<svg xmlns="http://www.w3.org/2000/svg" viewBox="0 0 968.49 592.21"><defs><style>.cls-1{fill:#5ebadb;}.cls-2{fill:#4fa7c6;}.cls-3{fill:#fff;}.cls-4{opacity:0.3;}.cls-5{fill:#326c93;}.cls-6{fill:#c6841a;}.cls-7{fill:#ffc44d;}.cls-8{fill:#f9ba3b;}.cls-9{fill:#993533;}.cls-10{fill:#f09400;}.cls-11{fill:#feab47;}.cls-12{fill:#bd4f49;}.cls-13{fill:#c4c4c4;}.cls-14{fill:#d8d8d8;}.cls-15{fill:#edd4a5;}.cls-16{fill:#dbbc93;}.cls-17{fill:#282828;}.cls-18{fill:#b7b7b7;}.cls-19{fill:#5f891b;}.cls-20{fill:#91c749;}.cls-21{fill:#a5db4f;}.cls-22{fill:#c6c6c6;}.cls-23{fill:#3f3f3f;}.cls-24{fill:#828282;}.cls-25{fill:#a3a8a9;}.cls-26{fill:#d2d3d6;}.cls-27{fill:#2d2d2d;}.cls-28{fill:#b3b9ba;}.cls-29{fill:#c96775;}.cls-30{fill:#ffabb3;}.cls-31{fill:#ffbbc5;}</style></defs><title>blueprint</title><g id="Layer_2" data-name="Layer 2"><g id="Layer_1-2" data-name="Layer 1"><circle class="cls-1" cx="754.56" cy="70.94" r="42.25"/><circle class="cls-1" cx="42.25" cy="70.94" r="42.26"/><rect class="cls-2" x="42.25" y="70.94" width="712.31" height="453.8"/><path class="cls-3" d="M668.78,482.48H128.69V113.19H668.78ZM132.16,479H665.3V116.67H132.16Z"/><g class="cls-4"><rect class="cls-3" x="167" y="114.93" width="1.74" height="365.82"/><rect class="cls-3" x="205.48" y="114.93" width="1.73" height="365.82"/><rect class="cls-3" x="243.96" y="114.93" width="1.73" height="365.82"/><rect class="cls-3" x="282.43" y="114.93" width="1.74" height="365.82"/><rect class="cls-3" x="320.91" y="114.93" width="1.74" height="365.81"/><rect class="cls-3" x="359.39" y="114.93" width="1.74" height="365.81"/><rect class="cls-3" x="397.86" y="114.93" width="1.74" height="365.82"/><rect class="cls-3" x="436.34" y="114.93" width="1.74" height="365.82"/><rect class="cls-3" x="474.82" y="114.93" width="1.74" height="365.81"/><rect class="cls-3" x="513.3" y="114.93" width="1.73" height="365.82"/><rect class="cls-3" x="551.77" y="114.93" width="1.73" height="365.82"/><rect class="cls-3" x="590.25" y="114.93" width="1.74" height="365.82"/><rect class="cls-3" x="628.72" y="114.93" width="1.74" height="365.82"/></g><g class="cls-4"><rect class="cls-3" x="130.62" y="114.06" width="536.22" height="1.74"/><rect class="cls-3" x="130.62" y="150.64" width="536.22" height="1.74"/><rect class="cls-3" x="130.62" y="187.23" width="536.22" height="1.74"/><rect class="cls-3" x="130.62" y="223.81" width="536.22" height="1.74"/><rect class="cls-3" x="130.62" y="260.39" width="536.22" height="1.74"/><rect class="cls-3" x="130.62" y="296.97" width="536.22" height="1.74"/><rect class="cls-3" x="130.62" y="333.55" width="536.22" height="1.74"/><rect class="cls-3" x="130.62" y="370.13" width="536.22" height="1.74"/><rect class="cls-3" x="130.62" y="406.71" width="536.22" height="1.74"/><rect class="cls-3" x="130.62" y="443.29" width="536.22" height="1.74"/><rect class="cls-3" x="130.62" y="479.88" width="536.22" height="1.74"/></g><rect class="cls-1" y="70.94" width="84.51" height="411.55"/><rect class="cls-1" x="712.3" y="70.94" width="84.51" height="411.55"/><circle class="cls-5" cx="754.56" cy="482.48" r="42.25"/><circle class="cls-5" cx="42.25" cy="482.48" r="42.26"/><path class="cls-6" d="M662.78,1.78H477.31V187.25L475.53,189l1.15,1.15.72.71,1.15,1.15,189-189-1.15-1.15-.71-.71L664.55,0Zm-114,71.42-37.62,37.61V35.59h75.23Z"/><polygon class="cls-7" points="585.72 32.66 546.95 71.42 570.04 94.52 664.55 0 475.53 0 508.18 32.66 585.72 32.66"/><polygon class="cls-8" points="570.04 94.52 546.95 71.42 508.18 110.19 508.18 32.66 475.53 0 475.53 189.03 570.04 94.52"/><rect class="cls-3" x="475.53" y="6.6" width="8.48" height="2.51"/><rect class="cls-3" x="475.53" y="15.1" width="5.97" height="2.51" transform="translate(-0.02 0.75) rotate(-0.09)"/><rect class="cls-3" x="477.25" y="21.86" width="2.51" height="5.97" transform="translate(452.92 503.31) rotate(-89.91)"/><rect class="cls-3" x="475.53" y="32.08" width="8.48" height="2.51" transform="translate(-0.05 0.75) rotate(-0.09)"/><rect class="cls-3" x="477.25" y="38.85" width="2.51" height="5.97" transform="translate(435.93 520.28) rotate(-89.91)"/><rect class="cls-3" x="475.53" y="49.07" width="5.96" height="2.51"/><rect class="cls-3" x="478.51" y="54.58" width="2.51" height="8.48" transform="translate(420.2 538.5) rotate(-89.91)"/><rect class="cls-3" x="475.53" y="66.06" width="5.97" height="2.51" transform="translate(-0.1 0.75) rotate(-0.09)"/><rect class="cls-3" x="475.53" y="74.56" width="5.96" height="2.51"/><rect class="cls-3" x="475.53" y="83.05" width="8.48" height="2.51" transform="translate(-0.13 0.75) rotate(-0.09)"/><rect class="cls-3" x="477.25" y="89.82" width="2.51" height="5.97" transform="translate(384.97 571.16) rotate(-89.91)"/><rect class="cls-3" x="477.25" y="98.31" width="2.51" height="5.97" transform="translate(376.47 579.65) rotate(-89.91)"/><rect class="cls-3" x="478.51" y="105.55" width="2.51" height="8.48" transform="matrix(0, -1, 1, 0, 369.23, 589.38)"/><rect class="cls-3" x="477.25" y="115.3" width="2.51" height="5.97" transform="translate(359.48 596.61) rotate(-89.91)"/><rect class="cls-3" x="477.25" y="123.79" width="2.51" height="5.97" transform="translate(350.99 605.09) rotate(-89.91)"/><rect class="cls-3" x="475.53" y="134.02" width="8.48" height="2.51"/><rect class="cls-3" x="475.53" y="142.51" width="5.97" height="2.51" transform="translate(-0.22 0.75) rotate(-0.09)"/><rect class="cls-3" x="475.53" y="151.01" width="5.97" height="2.51"/><rect class="cls-3" x="475.53" y="167.83" width="5.96" height="2.51"/><rect class="cls-3" x="475.53" y="176.33" width="5.96" height="2.51"/><rect class="cls-3" x="475.53" y="159.5" width="8.48" height="2.51"/><path class="cls-9" d="M287.64,430.13l4.66-7.79L284.51,427,267,437.49,142.66,561.8l-3.33,3.33-6.52,6.52-3.22,3.22-3.75,3.75s-2.75,2.85,0,5.6l2.29,2.29,2.29,2.29c2.75,2.75,5.6,0,5.6,0l3.75-3.75,3.22-3.22,6.53-6.53,3.33-3.33,124.3-124.3Z"/><path class="cls-10" d="M275.75,433.8c-1.71-1.71-5.21.12-5.21.12l-124.3,124.3,5.09,5.09L275.63,439S277.46,435.51,275.75,433.8Z"/><path class="cls-11" d="M280.73,444.09s1.83-3.5.12-5.21-5.21.12-5.21.12L151.33,563.3l5.09,5.09Z"/><path class="cls-12" d="M139.6,585.22l3.75-3.75-5.09-5.09h0l-5.09-5.09L129.42,575s-2.75,2.85,0,5.6l2.29,2.29h0l2.29,2.29C136.76,588,139.6,585.22,139.6,585.22Z"/><rect class="cls-13" x="149.86" y="563.92" width="4.71" height="7.2" transform="translate(-356.73 273.89) rotate(-45)"/><rect class="cls-13" x="140.14" y="573.71" width="4.55" height="7.2" transform="translate(-366.48 269.74) rotate(-44.99)"/><rect class="cls-14" x="142.67" y="568.84" width="9.23" height="7.2" transform="translate(-361.63 271.79) rotate(-45)"/><path class="cls-15" d="M278.3,436.34,275.63,439s3.5-1.83,5.21-.12-.12,5.21-.12,5.21l10.49-17.55a10.68,10.68,0,0,1-1.73-1.4Z"/><path class="cls-16" d="M275.63,439l2.66-2.66,11.2-11.2a10.7,10.7,0,0,1-1.4-1.73l-17.55,10.5s3.5-1.83,5.21-.12S275.63,439,275.63,439Z"/><path class="cls-17" d="M291.22,426.54l4.66-7.79-7.79,4.66a10.67,10.67,0,0,0,3.13,3.13Z"/><rect class="cls-18" x="144.77" y="558.83" width="4.71" height="7.2" transform="translate(-354.63 268.81) rotate(-45.01)"/><rect class="cls-18" x="135.05" y="568.63" width="4.55" height="7.2" transform="translate(-364.43 264.75) rotate(-45.01)"/><rect class="cls-13" x="137.58" y="563.75" width="9.23" height="7.2" transform="translate(-359.5 266.67) rotate(-44.99)"/><rect class="cls-6" x="606.99" y="389.68" width="43.47" height="202.53"/><rect class="cls-8" x="606.99" y="385.5" width="21.73" height="202.63"/><rect class="cls-7" x="628.72" y="385.5" width="21.74" height="202.63"/><rect class="cls-3" x="606.99" y="394.1" width="9.18" height="2.71"/><rect class="cls-3" x="606.99" y="403.29" width="6.45" height="2.71"/><rect class="cls-3" x="606.99" y="412.48" width="6.45" height="2.72"/><rect class="cls-3" x="606.99" y="421.67" width="9.17" height="2.72"/><rect class="cls-3" x="606.99" y="430.86" width="6.45" height="2.72"/><rect class="cls-3" x="606.99" y="440.05" width="6.45" height="2.72"/><polygon class="cls-3" points="616.16 451.96 616.17 449.24 606.99 449.24 606.99 451.96 616.16 451.96"/><rect class="cls-3" x="606.99" y="458.44" width="6.45" height="2.72"/><rect class="cls-3" x="606.99" y="467.63" width="6.45" height="2.72"/><rect class="cls-3" x="606.99" y="476.81" width="9.17" height="2.72"/><rect class="cls-3" x="606.99" y="486.01" width="6.45" height="2.72"/><rect class="cls-3" x="606.99" y="495.2" width="6.45" height="2.72"/><polygon class="cls-3" points="616.16 507.11 616.17 504.39 606.99 504.39 606.99 507.11 616.16 507.11"/><rect class="cls-3" x="606.99" y="513.58" width="6.45" height="2.72"/><rect class="cls-3" x="606.99" y="522.77" width="6.45" height="2.72"/><rect class="cls-3" x="606.99" y="531.96" width="9.17" height="2.72"/><rect class="cls-3" x="606.99" y="541.16" width="6.45" height="2.72"/><rect class="cls-3" x="606.99" y="550.35" width="6.45" height="2.72"/><rect class="cls-3" x="606.99" y="568.56" width="6.45" height="2.71"/><rect class="cls-3" x="606.99" y="577.74" width="6.45" height="2.72"/><rect class="cls-3" x="606.99" y="559.54" width="9.17" height="2.71"/><path class="cls-6" d="M833.55,285.87,857,309.35,966.24,200.08,943,176.84l0,0-.13-.08-.1-.11,0,0A79.14,79.14,0,0,0,833.55,285.87Zm35-74.26a45.18,45.18,0,0,1,49.11-9.8l-58.9,58.9A45.19,45.19,0,0,1,868.5,211.61Z"/><rect class="cls-8" x="830.68" y="238.33" width="154.59" height="16.58" transform="translate(91.56 714.27) rotate(-45)"/><path class="cls-7" d="M835.78,283.64l11.67,11.78L956.77,186.1l-11.52-11.52-.26-.16A79.14,79.14,0,0,0,835.78,283.64Zm34.95-74.26a45.19,45.19,0,0,1,49.11-9.79l-58.9,58.9A45.18,45.18,0,0,1,870.73,209.38Z"/><polygon class="cls-3" points="962.39 203.93 957.44 198.98 958.9 197.52 963.86 202.47 962.39 203.93"/><rect class="cls-3" x="955.39" y="203.95" width="2.07" height="4.92" transform="translate(133.56 735.8) rotate(-44.93)"/><rect class="cls-3" x="950.43" y="208.91" width="2.07" height="4.93" transform="translate(129.37 734.95) rotate(-45.02)"/><rect class="cls-3" x="944.73" y="212.1" width="2.08" height="7" transform="translate(124.71 732.16) rotate(-45.02)"/><rect class="cls-3" x="940.51" y="218.83" width="2.08" height="4.92" transform="translate(120.16 731.98) rotate(-45.1)"/><rect class="cls-3" x="935.55" y="223.79" width="2.08" height="4.92" transform="translate(114.25 728.39) rotate(-44.99)"/><rect class="cls-3" x="929.86" y="226.97" width="2.07" height="7" transform="translate(109.77 725.89) rotate(-45.01)"/><polygon class="cls-3" points="924.19 235.16 925.66 233.69 929.15 237.18 927.68 238.64 924.19 235.16"/><rect class="cls-3" x="920.67" y="238.66" width="2.07" height="4.92" transform="translate(98.82 721.28) rotate(-44.92)"/><rect class="cls-3" x="914.98" y="241.85" width="2.08" height="7" transform="translate(95.11 720.11) rotate(-45.04)"/><rect class="cls-3" x="910.76" y="248.58" width="2.07" height="4.93" transform="translate(90.01 719.08) rotate(-45.06)"/><rect class="cls-3" x="905.8" y="253.54" width="2.08" height="4.93" transform="translate(84.8 716.6) rotate(-45.03)"/><rect class="cls-3" x="900.11" y="256.73" width="2.07" height="7" transform="translate(80.77 714.94) rotate(-45.11)"/><rect class="cls-3" x="895.88" y="263.46" width="2.08" height="4.92" transform="translate(74.3 711.43) rotate(-44.95)"/><polygon class="cls-3" points="889.49 269.87 890.95 268.4 894.43 271.89 892.97 273.35 889.49 269.87"/><rect class="cls-3" x="885.23" y="271.6" width="2.07" height="7" transform="translate(64.91 706.98) rotate(-44.98)"/><rect class="cls-3" x="881" y="278.34" width="2.07" height="4.93" transform="translate(60.34 707.01) rotate(-45.07)"/><rect class="cls-3" x="876.05" y="283.29" width="2.07" height="4.93" transform="translate(54.76 703.75) rotate(-44.99)"/><rect class="cls-3" x="866.22" y="293.11" width="2.07" height="4.92" transform="translate(45.08 699.96) rotate(-45.01)"/><polygon class="cls-3" points="859.83 299.53 861.29 298.06 864.77 301.54 863.31 303.01 859.83 299.53"/><rect class="cls-3" x="870.35" y="286.48" width="2.07" height="7" transform="translate(50.11 700.96) rotate(-44.99)"/><path class="cls-19" d="M206.89,60.44V41.33H167V60.44s5.26,2.21,5.26,10.94S167,82.74,167,82.74V98.12h39.89V82.74s-5.26-2.63-5.26-11.36S206.89,60.44,206.89,60.44Z"/><path class="cls-20" d="M167,36.52V55.64s5.26,2.21,5.26,10.94S167,77.94,167,77.94V93.31h19.95V36.52Z"/><path class="cls-21" d="M206.89,55.64V36.52H186.95V93.31h19.95V77.94s-5.26-2.63-5.26-11.36S206.89,55.64,206.89,55.64Z"/><rect class="cls-22" x="179.33" y="45.04" width="10.39" height="42.66"/><rect class="cls-23" x="189.72" y="45.04" width="4.84" height="42.66"/><circle class="cls-23" cx="184.53" cy="66.37" r="2.01"/><path class="cls-24" d="M385,235.84A18.1,18.1,0,0,0,360.53,219l-14.91-14.91-3.87-3.87-10.63,10.63,3.87,3.87L349.9,229.6a18.1,18.1,0,0,0,16.87,24.49l1,1.3L378,250.2a17.43,17.43,0,0,0,1.75-1.43,17.72,17.72,0,0,0,1.43-1.75l5.34-10.09Z"/><polygon class="cls-25" points="548.85 372.59 543.51 362.79 540.22 366.08 548.85 372.59"/><polygon class="cls-26" points="528.98 357.6 540.22 366.08 543.51 362.79 535.77 348.61 527.72 356.65 528.98 357.6"/><polygon class="cls-27" points="503.53 417.92 497.02 409.28 493.73 412.57 503.53 417.92"/><polygon class="cls-26" points="487.59 396.79 479.54 404.83 493.73 412.57 497.02 409.28 488.54 398.04 487.59 396.79"/><rect class="cls-24" x="335.4" y="197.42" width="15.03" height="29.11" transform="translate(-49.46 304.55) rotate(-45)"/><polygon class="cls-28" points="371.19 224.47 364.4 233.46 527.72 356.65 535.77 348.61 371.19 224.47"/><polygon class="cls-25" points="479.54 404.83 487.59 396.79 364.4 233.46 355.4 240.25 479.54 404.83"/><rect class="cls-25" x="340.37" y="203.95" width="7.51" height="29.12" transform="translate(-53.71 307.34) rotate(-45)"/><rect class="cls-28" x="345.69" y="198.63" width="7.51" height="29.12" transform="translate(-48.39 309.59) rotate(-45.01)"/><circle class="cls-26" cx="363.06" cy="232.12" r="18.16" transform="translate(-57.8 324.71) rotate(-45)"/><circle class="cls-25" cx="363.06" cy="232.12" r="8.45" transform="translate(-57.81 324.65) rotate(-44.99)"/><rect class="cls-29" x="230.4" y="192.31" width="36.4" height="86.22" transform="translate(-93.66 244.75) rotate(-45)"/><path class="cls-29" d="M231,192l0,0h0Z"/><path class="cls-30" d="M205.24,202.08h0c-7.83,7.83,0,15.73,0,15.73l53.1,53.1L271.22,258l-61-61Z"/><path class="cls-31" d="M215.26,192.07h0l-5,5,61,61,12.87-12.87L231,192.07l0,0C230.66,191.76,222.93,184.39,215.26,192.07Z"/></g></g></svg>