<?xml version="1.0" encoding="utf-8"?>
<!-- Generator: Adobe Illustrator 21.1.0, SVG Export Plug-In . SVG Version: 6.00 Build 0)  -->
<svg version="1.1" id="Layer_1" xmlns="http://www.w3.org/2000/svg" xmlns:xlink="http://www.w3.org/1999/xlink" x="0px" y="0px"
	 viewBox="0 0 960 560" style="enable-background:new 0 0 960 560;" xml:space="preserve">
<style type="text/css">
	.st0{fill:#00305A;}
	.st1{fill:#FFFFFF;}
	.st2{fill:url(#SVGID_1_);}
</style>
<rect class="st0" width="960" height="560"/>
<g>
	<g>
		<path class="st1" d="M216.8,312.6l10.4-88.4h28.9c10.9,0,19.1,2.2,25.1,6s7.6,10.4,7.1,18c-0.5,4.4-2.2,7.6-4.4,11.5
			c-2.2,3.3-5.5,5.5-9.8,7.1c4.9,1.1,8.7,3.8,10.9,7.1c2.2,3.8,3.3,7.6,2.7,12.5c-1.1,8.7-4.9,14.7-10.9,19.6s-14.7,6.5-25.6,6.5
			L216.8,312.6C216.8,313.1,216.8,312.6,216.8,312.6z M241.4,274.9l-2.7,22.4h13.1c4.4,0,7.6-1.1,10.4-2.7c2.7-1.6,3.8-4.4,4.4-7.6
			c0.5-3.8,0-6.5-2.2-8.7c-1.6-2.2-4.9-3.3-9.3-3.3h-0.5C254.5,274.9,241.4,274.9,241.4,274.9z M243,261.3h8.2
			c4.9,0,8.7-1.1,11.5-2.7c2.7-1.6,4.4-4.4,4.9-7.6c0.5-3.8-0.5-6.5-2.7-8.2c-2.2-1.6-5.5-2.7-10.4-2.7h-8.2L243,261.3z"/>
		<path class="st1" d="M316.1,312.6h-20.7l10.9-94.4H327L316.1,312.6z"/>
		<path class="st1" d="M369.6,302.7c-2.7,3.8-4.9,6-8.2,8.2c-3.3,2.2-7.1,3.3-10.9,3.3c-6.5,0-12-2.7-14.7-7.1
			c-3.3-4.9-4.4-12-3.3-22.4l4.4-37.6h20.7l-4.4,37.6c-0.5,4.9-0.5,8.7,0.5,10.4c1.1,2.2,3.3,2.7,5.5,2.7s4.4-0.5,5.5-1.1
			c1.1-0.5,3.3-1.6,4.9-2.7l5.5-47.5h20.7l-8.2,66h-16.4L369.6,302.7z"/>
		<path class="st1" d="M427.4,314.2c-9.8,0-17.5-3.3-22.4-8.7c-4.9-6-6.5-13.6-5.5-22.9l0.5-2.2c1.1-9.8,4.9-18,10.9-24.6
			c6-6,14.2-9.3,24.6-9.3c8.7,0,15.3,2.7,19.6,7.6c4.4,4.9,5.5,12.5,4.9,21.8l-1.1,10.9h-38.2v0.5c0,3.8,1.1,6,3.3,8.2
			s4.9,3.3,9.3,3.3s7.1-0.5,9.8-1.1c2.7-0.5,5.5-1.6,9.3-3.3l3.8,12.5c-3.3,2.2-7.1,3.8-12,4.9C437.8,313.1,432.9,314.2,427.4,314.2
			z M432.9,261.3c-3.3,0-5.5,1.1-7.6,3.3c-1.6,2.2-3.3,4.9-3.8,8.2v0.5H439v-1.6c0.5-3.8,0-6-1.1-7.6
			C437.8,262.4,435.6,261.3,432.9,261.3z"/>
	</g>
	<g>
		<path class="st1" d="M562.7,278.7c1.1-9.8,4.9-18,11.5-24.6c6.5-6.5,14.7-8.7,24.6-8.7c9.8,0,17.5,3.3,22.4,9.3s6.5,14.7,5.5,24.6
			v1.1c-1.1,9.8-4.9,18-11.5,24.6c-6,6-14.7,9.3-24.6,9.3c-9.8,0-17.5-3.3-22.4-9.3s-6.5-14.7-5.5-24.6V278.7z M582.9,280.4
			c-0.5,5.5-0.5,9.8,1.1,13.1c1.6,3.3,4.4,4.9,8.2,4.9s7.1-1.6,9.3-4.9s3.8-7.1,4.4-13.1v-1.1c0.5-4.9,0-9.8-1.1-13.1
			c-1.6-3.3-4.4-4.9-8.2-4.9c-4.4,0-7.1,1.6-9.3,4.9s-3.8,7.1-4.4,13.1V280.4z"/>
		<path class="st1" d="M632.6,278.7c1.1-9.8,4.9-18,11.5-24.6c6-6,14.7-9.3,24.6-9.3c9.8,0,17.5,3.3,22.4,9.3s6.5,14.7,5.5,24.6v1.1
			c-1.1,9.8-4.9,18-11.5,24.6c-6,6-14.7,9.3-24.6,9.3c-9.8,0-17.5-3.3-22.4-9.3s-6.5-14.7-5.5-24.6V278.7z M652.7,280.4
			c-0.5,5.5-0.5,9.8,1.1,13.1c1.6,3.3,4.4,4.9,8.2,4.9c4.4,0,7.1-1.6,9.3-4.9s3.8-7.1,4.4-13.1v-1.1c0.5-4.9,0-9.8-1.1-13.1
			c-1.6-3.3-4.4-4.9-8.2-4.9s-7.1,1.6-9.3,4.9s-3.8,7.1-4.4,13.1V280.4z"/>
		<path class="st1" d="M728,246.5l-0.5,8.7c2.7-3.3,4.9-5.5,8.7-7.1c3.3-1.6,7.1-2.7,10.9-2.7c4.4,0,7.1,1.1,10.4,2.7
			c2.7,1.6,4.9,4.9,5.5,8.2c2.7-3.8,4.9-6,8.7-7.6c3.8-2.2,7.1-2.7,11.5-2.7c6,0,11.5,2.2,14.7,6.5c3.3,4.9,4.4,12,3.3,21.3
			l-4.9,38.7h-20.7l4.9-38.7c0.5-4.9,0-7.6-1.1-9.8c-1.1-1.6-3.3-2.7-5.5-2.7s-3.8,0.5-4.9,1.1c-1.1,0.5-3.3,1.6-4.4,3.3
			c0,0.5,0,1.1,0,1.6s0,1.1,0,1.6l-4.9,44.2H739l4.9-38.7c0.5-4.9,0.5-7.6-1.1-9.8s-3.3-2.7-5.5-2.7s-3.8,0.5-4.9,1.1
			c-1.1,0.5-3.3,1.6-4.4,3.3l-5.5,46.9h-20.7l7.6-65.5L728,246.5L728,246.5z"/>
	</g>
	<g>
		<path class="st1" d="M250.1,376.9h-4.9l1.6-8.7h-7.6l-1.6,8.7h-4.9l4.9-21.3h4.9l-2.2,8.7h7.6l2.2-8.7h4.9L250.1,376.9z"/>
		<path class="st1" d="M258.3,376.9h-4.9l3.3-15.8h4.9L258.3,376.9z M262.7,357.3h-4.9l0.5-3.3h4.9L262.7,357.3z"/>
		<path class="st1" d="M262.7,368.7c0.5-2.2,1.6-4.4,2.7-6c1.6-1.6,3.3-2.2,4.9-2.2c1.1,0,1.6,0,2.2,0.5c0.5,0.5,1.1,1.1,1.1,1.6
			l0.5-2.2h4.4l-3.3,15.3c-0.5,2.2-1.6,3.8-3.3,4.9c-1.6,1.1-3.8,2.2-6,2.2c-0.5,0-1.6,0-2.7-0.5c-1.1,0-1.6-0.5-2.2-1.1l1.6-3.8
			c0.5,0.5,1.1,0.5,1.6,0.5s1.1,0,2.2,0s1.6-0.5,2.7-1.1c0.5-0.5,1.1-1.1,1.1-2.2v-0.5c-0.5,0.5-1.1,1.1-1.6,1.1
			c-0.5,0.5-1.6,0.5-2.2,0.5c-2.2,0-3.3-0.5-3.8-2.2C262.1,373.7,262.1,371.5,262.7,368.7L262.7,368.7z M267.6,369.3
			c-0.5,1.1-0.5,2.2,0,2.7c0,0.5,0.5,1.1,1.6,1.1c0.5,0,1.1,0,1.6,0s0.5-0.5,1.1-0.5l1.6-6.5c0-0.5-0.5-0.5-0.5-1.1
			c-0.5,0-0.5-0.5-1.1-0.5c-1.1,0-1.6,0.5-2.2,1.1C268.1,366.6,267.6,367.7,267.6,369.3L267.6,369.3z"/>
		<path class="st1" d="M286.1,362.7c0.5-0.5,1.1-1.1,2.2-1.6c0.5-0.5,1.6-0.5,2.2-0.5c1.6,0,2.7,0.5,3.3,1.6c0.5,1.1,0.5,2.7,0,5.5
			l-1.6,8.7h-4.9l2.2-9.3c0-1.1,0-2.2,0-2.7s-0.5-0.5-1.6-0.5c-0.5,0-1.1,0-1.1,0c-0.5,0-0.5,0.5-1.1,0.5l-2.7,12h-4.9L283,354h4.9
			L286.1,362.7z"/>
		<path class="st1" d="M306.3,369.3h-8.7l1.1-3.8h8.7L306.3,369.3z"/>
		<path class="st1" d="M321,370.9c0-0.5,0-1.1-0.5-1.6s-1.1-1.1-2.2-1.1c-2.7-1.1-4.4-1.6-5.5-2.7s-1.6-2.2-1.1-4.4
			c0.5-1.6,1.6-3.3,3.3-4.4c1.6-1.1,3.8-1.6,6-1.6s4.4,0.5,5.5,1.6s1.6,2.7,1.1,4.4l0,0h-4.9c0-1.1,0-1.6-0.5-2.2
			c-0.5-0.5-1.1-0.5-2.2-0.5s-1.6,0-2.7,0.5c-0.5,0.5-1.1,1.1-1.1,1.6s0,1.1,0.5,1.6s1.6,1.1,2.7,1.6c2.2,0.5,3.8,1.6,4.9,2.7
			s1.1,2.7,1.1,4.4c-0.5,1.6-1.6,3.3-3.3,4.4c-1.6,1.1-3.8,1.6-6,1.6s-4.4-0.5-6-1.6s-2.2-2.7-1.6-4.9l0,0h4.9c0,1.1,0,2.2,0.5,2.7
			s1.6,0.5,2.7,0.5s1.6,0,2.2-0.5C320.5,372,321,371.5,321,370.9z"/>
		<path class="st1" d="M343.4,368.7c-0.5,2.2-1.6,4.4-2.7,5.5c-1.6,1.6-3.3,2.2-4.9,2.2c-0.5,0-1.6,0-2.2-0.5s-1.1-0.5-1.1-1.1
			l-1.6,7.6H326l4.9-21.8h4.4v1.6c0.5-0.5,1.1-1.1,2.2-1.6c0.5-0.5,1.6-0.5,2.2-0.5c2.2,0,3.3,0.5,3.8,2.2
			C344,364.4,344,366,343.4,368.7L343.4,368.7z M338.5,368.7c0.5-1.1,0.5-2.2,0-3.3s-0.5-1.1-1.6-1.1c-0.5,0-1.1,0-1.6,0.5
			c-0.5,0-0.5,0.5-1.1,1.1l-1.6,6.5c0,0.5,0.5,0.5,0.5,0.5c0.5,0,0.5,0,1.6,0s1.6-0.5,2.2-1.1C338,370.9,338.5,370.4,338.5,368.7
			L338.5,368.7z"/>
		<path class="st1" d="M351,376.4c-2.2,0-3.8-0.5-4.9-2.2c-1.1-1.6-1.1-3.3-1.1-5.5v-0.5c0.5-2.2,1.6-4.4,3.3-6
			c1.6-1.6,3.8-2.2,6-2.2s3.8,0.5,4.4,1.6c1.1,1.1,1.1,2.7,0.5,4.9l-0.5,2.7H350l0,0c0,0.5,0,1.6,0.5,2.2s1.1,0.5,2.2,0.5
			s1.6,0,2.2,0c0.5,0,1.1-0.5,2.2-0.5l0.5,2.7c-0.5,0.5-1.6,1.1-2.7,1.1C353.8,376.4,352.1,376.4,351,376.4z M353.2,364.4
			c-0.5,0-1.1,0-1.6,0.5s-1.1,1.1-1.1,2.2l0,0h4.4v-0.5c0-0.5,0-1.6,0-1.6C354.9,364.4,354.3,364.4,353.2,364.4z"/>
		<path class="st1" d="M366.9,376.4c-2.2,0-3.8-0.5-4.9-2.2c-1.1-1.6-1.1-3.3-1.1-5.5v-0.5c0.5-2.2,1.6-4.4,3.3-6
			c1.6-1.6,3.8-2.2,6-2.2s3.8,0.5,4.4,1.6c1.1,1.1,1.1,2.7,0.5,4.9v3.3h-8.7l0,0c0,0.5,0,1.6,0.5,2.2s1.1,0.5,2.2,0.5s1.6,0,2.2,0
			s1.1-0.5,2.2-0.5l0.5,2.7c-0.5,0.5-1.6,1.1-2.7,1.1C369,376.4,368,376.4,366.9,376.4z M369,363.8c-0.5,0-1.1,0-1.6,0.5
			s-1.1,1.1-1.1,2.2l0,0h4.4V366c0-0.5,0-1.6,0-1.6S370.1,363.8,369,363.8z"/>
		<path class="st1" d="M376.7,368.2c0.5-2.2,1.6-4.4,2.7-6c1.6-1.6,3.3-2.2,4.9-2.2c0.5,0,1.1,0,1.6,0.5s1.1,0.5,1.1,1.6l1.6-8.7
			h4.9l-4.4,22.9h-4.4v-2.2c-0.5,0.5-1.1,1.1-2.2,1.6c0,0.5-1.1,0.5-1.6,0.5c-2.2,0-3.3-0.5-3.8-2.2
			C376.1,373.1,376.1,370.9,376.7,368.2L376.7,368.2z M381.6,368.7c-0.5,1.1-0.5,2.2,0,2.7c0,0.5,0.5,1.1,1.6,1.1
			c0.5,0,1.1,0,1.6-0.5c0.5,0,1.1-0.5,1.1-1.1l1.6-6.5c0-0.5-0.5-0.5-0.5-1.1c-0.5,0-0.5-0.5-1.1-0.5c-1.1,0-1.6,0.5-2.2,1.1
			C382.1,366,381.6,367.1,381.6,368.7L381.6,368.7z"/>
		<path class="st1" d="M405.1,375.8h-4.9l4.9-21.3h4.9L405.1,375.8z"/>
		<path class="st1" d="M416.5,360.6l-0.5,2.2c0.5-0.5,1.6-1.6,2.2-1.6c1.1-0.5,1.6-0.5,2.7-0.5c1.6,0,2.7,0.5,3.3,1.6
			c0.5,1.1,0.5,2.7,0,4.9L422,377h-4.9l2.2-9.8c0-1.1,0-1.6,0-1.6c-0.5-0.5-0.5-0.5-1.6-0.5c-0.5,0-1.1,0-1.1,0
			c-0.5,0-0.5,0.5-1.1,0.5l-2.2,10.4h-4.9l3.3-15.8L416.5,360.6z"/>
		<path class="st1" d="M435.6,356.2l-1.1,3.8h2.7l-0.5,3.3H434l-1.6,7.6c0,0.5,0,1.1,0,1.1s0.5,0.5,1.1,0.5s0.5,0,0.5,0h0.5
			l-0.5,3.8c-0.5,0-1.1,0-1.6,0.5c-0.5,0-1.1,0-1.6,0c-1.6,0-2.7-0.5-3.3-1.1c-0.5-1.1-0.5-2.2-0.5-3.8l1.6-7.1h-2.2l0.5-3.3h2.2
			l1.1-3.8L435.6,356.2z"/>
		<path class="st1" d="M443.2,376.4c-2.2,0-3.8-0.5-4.9-2.2s-1.1-3.3-1.1-5.5v-0.5c0.5-2.2,1.6-4.4,3.3-6c1.6-1.6,3.8-2.2,6-2.2
			s3.8,0.5,4.4,1.6c1.1,1.1,1.1,2.7,0.5,4.9v3.3h-8.7l0,0c0,0.5,0,1.6,0.5,2.2s1.1,0.5,2.2,0.5s1.6,0,2.2,0c0.5,0,1.1-0.5,2.2-0.5
			l0.5,2.7c-0.5,0.5-1.6,1.1-2.7,1.1C445.4,375.8,444.3,376.4,443.2,376.4z M445.4,363.8c-0.5,0-1.1,0-1.6,0.5s-1.1,1.1-1.1,2.2l0,0
			h4.4V366c0-0.5,0-1.6,0-1.6C447.1,363.8,446.5,363.8,445.4,363.8z"/>
		<path class="st1" d="M463.4,364.4h-1.6c-0.5,0-1.1,0-1.6,0.5c-0.5,0-0.5,0.5-1.1,0.5l-2.2,10.4H452l3.3-15.8h4.4l-0.5,2.2
			c0.5-1.1,1.1-1.6,1.6-2.2c0.5-0.5,1.1-0.5,2.2-0.5h0.5h0.5L463.4,364.4z"/>
		<path class="st1" d="M471.1,360l-0.5,2.2c0.5-0.5,1.6-1.6,2.2-1.6c1.1-0.5,1.6-0.5,2.7-0.5c1.6,0,2.7,0.5,3.3,1.6
			c0.5,1.1,0.5,2.7,0,4.9l-2.2,9.8h-4.9l2.2-9.8c0-1.1,0-1.6,0-1.6c-0.5-0.5-0.5-0.5-1.6-0.5c-0.5,0-1.1,0-1.1,0
			c-0.5,0-0.5,0.5-1.1,0.5l-2.2,10.9H463l3.3-15.8h4.8V360z"/>
		<path class="st1" d="M486.9,375.8c-2.2,0-3.8-0.5-4.9-2.2s-1.1-3.3-1.1-5.5v-0.5c0.5-2.2,1.6-4.4,3.3-6c1.6-1.6,3.8-2.2,6-2.2
			s3.8,0.5,4.4,1.6c1.1,1.1,1.1,2.7,0.5,4.9l-0.5,2.7h-8.7l0,0c0,0.5,0,1.6,0.5,2.2s1.1,0.5,2.2,0.5s1.6,0,2.2,0s1.1-0.5,2.2-0.5
			l0.5,2.7c-0.5,0.5-1.6,1.1-2.7,1.1C489.1,375.8,488,375.8,486.9,375.8z M489.1,363.8c-0.5,0-1.1,0-1.6,0.5s-1.1,1.1-1.1,2.2l0,0
			h4.4V366c0-0.5,0-1.6,0-1.6C490.2,363.8,490.2,363.8,489.1,363.8z"/>
		<path class="st1" d="M505.4,356.2l-0.5,3.8h2.7l-0.5,3.3h-2.7l-1.6,7.1c0,0.5,0,1.1,0,1.1s0.5,0.5,1.1,0.5s0.5,0,0.5,0h0.5
			l-0.5,3.8c-0.5,0-1.1,0-1.6,0.5c-0.5,0-1.1,0-1.6,0c-1.6,0-2.7-0.5-3.3-1.1c-0.5-1.1-0.5-2.2-0.5-3.8l1.6-7.1h-2.2l0.5-3.3h2.2
			l1.1-3.8L505.4,356.2z"/>
		<path class="st1" d="M519.1,364.4c-0.5-1.1-0.5-1.6-1.1-2.2c0-0.5,0-1.6,0-2.2c0.5-1.6,1.1-3.3,2.7-4.4c1.1-1.1,2.7-1.6,4.9-1.6
			c1.6,0,2.7,0.5,3.3,1.6c0.5,1.1,1.1,2.2,0.5,3.8c0,1.1-0.5,1.6-1.1,2.7c-0.5,0.5-1.6,1.6-2.2,2.2l-1.6,1.1l2.7,3.8
			c0.5-0.5,1.1-1.1,1.1-1.6c0.5-0.5,0.5-1.1,0.5-2.2h3.3c-0.5,1.6-0.5,2.7-1.1,3.8c-0.5,1.1-1.1,2.2-2.2,3.3l2.2,3.8l0,0h-5.5
			l-0.5-1.1c-1.1,0.5-1.6,1.1-2.7,1.1s-1.6,0.5-2.7,0.5c-2.2,0-3.8-0.5-4.9-1.6c-1.1-1.1-1.1-2.7-1.1-4.4c0-1.1,0.5-2.2,1.6-2.7
			C516.9,366.6,518,365.5,519.1,364.4L519.1,364.4z M521.3,372c0.5,0,1.1,0,1.1,0c0.5,0,1.1,0,1.1-0.5l-2.7-4.4l0,0
			c-0.5,0.5-0.5,0.5-1.1,1.1c0,0.5-0.5,0.5-0.5,1.1c0,0.5,0,1.1,0,1.6C520.2,372,520.7,372,521.3,372z M522.9,360c0,0.5,0,0.5,0,1.1
			c0,0.5,0.5,0.5,0.5,1.1l1.1-0.5c0.5-0.5,1.1-0.5,1.1-1.1s0.5-0.5,0.5-1.1c0-0.5,0-0.5,0-1.1s-0.5-0.5-1.1-0.5
			c-0.5,0-1.1,0-1.6,0.5S522.9,359.5,522.9,360z"/>
		<path class="st1" d="M560,368.2L560,368.2l6-13.6h4.9l-9.8,21.3h-4.4l-0.5-13.1l0,0l-6.5,12.5h-4.4V354h4.9l-0.5,13.6l0,0
			l7.1-13.6h3.3L560,368.2L560,368.2z"/>
		<path class="st1" d="M573.1,375.3h-4.9l3.3-15.3h4.9L573.1,375.3z M576.9,356.2H572l0.5-3.3h4.9L576.9,356.2z"/>
		<path class="st1" d="M587.3,363.8h-1.6c-0.5,0-1.1,0-1.6,0.5c-0.5,0-0.5,0.5-1.1,0.5l-2.2,10.4h-4.9l3.3-15.8h4.4l-0.5,2.2
			c0.5-1.1,1.1-1.6,1.6-2.2c0.5-0.5,1.1-0.5,2.2-0.5h0.5h0.5L587.3,363.8z"/>
		<path class="st1" d="M593.8,375.8c-2.2,0-3.8-0.5-4.9-2.2c-1.1-1.6-1.1-3.3-1.1-5.5v-0.5c0.5-2.2,1.6-4.4,3.3-6
			c1.6-1.6,3.8-2.2,6-2.2s3.8,0.5,4.4,1.6c1.1,1.1,1.1,2.7,0.5,4.9l-0.5,2.7h-8.7l0,0c0,0.5,0,1.6,0.5,2.2c0.5,0.5,1.1,0.5,2.2,0.5
			s1.6,0,2.2,0c0.5,0,1.1-0.5,2.2-0.5l0.5,2.7c-0.5,0.5-1.6,1.1-2.7,1.1C596,375.3,594.9,375.8,593.8,375.8z M596,363.3
			c-0.5,0-1.1,0-1.6,0.5s-1.1,1.1-1.1,2.2l0,0h4.4v-0.5c0-0.5,0-1.6,0-1.6C597.1,363.3,597.1,363.3,596,363.3z"/>
		<path class="st1" d="M607.5,375.3h-4.9l4.9-22.4h4.9L607.5,375.3z"/>
		<path class="st1" d="M617.8,375.3c-2.2,0-3.8-0.5-4.9-2.2c-1.1-1.6-1.1-3.3-1.1-5.5v-0.5c0.5-2.2,1.6-4.4,3.3-6
			c1.6-1.6,3.8-2.2,6-2.2s3.8,0.5,4.4,1.6c1.1,1.1,1.1,2.7,0.5,4.9l-0.5,2.7h-8.7l0,0c0,0.5,0,1.6,0.5,2.2c0.5,0.5,1.1,0.5,2.2,0.5
			s1.6,0,2.2,0c0.5,0,1.1-0.5,2.2-0.5l0.5,2.7c-0.5,0.5-1.6,1.1-2.7,1.1C620,375.3,618.9,375.3,617.8,375.3z M620,363.3
			c-0.5,0-1.1,0-1.6,0.5s-1.1,1.1-1.1,2.2l0,0h4.4v-0.5c0-0.5,0-1.6,0-1.6C621.1,363.3,620.6,363.3,620,363.3z"/>
		<path class="st1" d="M635.3,370.9c0-0.5,0-0.5-0.5-1.1c-0.5-0.5-1.1-0.5-2.2-0.5c-1.6-0.5-3.3-1.1-3.8-1.6s-1.1-1.6-0.5-3.3
			c0.5-1.6,1.1-2.7,2.7-3.3c1.6-1.1,3.3-1.6,4.9-1.6c2.2,0,3.8,0.5,4.9,1.6c1.1,1.1,1.1,2.2,1.1,3.8l0,0H637c0-0.5,0-1.1,0-1.6
			s-0.5-0.5-1.6-0.5c-0.5,0-1.1,0-1.6,0.5s-0.5,0.5-0.5,1.1s0,0.5,0.5,1.1c0.5,0.5,1.1,0.5,2.2,0.5c1.6,0.5,3.3,1.1,3.8,1.6
			s1.1,1.6,0.5,3.3c-0.5,1.6-1.1,2.7-2.7,3.3c-1.6,1.1-3.3,1.6-5.5,1.6s-3.8-0.5-4.9-1.6c-1.1-1.1-1.1-2.2-1.1-3.8l0,0h4.4
			c0,0.5,0,1.1,0.5,1.6s1.1,0.5,1.6,0.5s1.1,0,1.6-0.5C635.3,371.5,635.3,371.5,635.3,370.9z"/>
		<path class="st1" d="M650.6,370.9c0-0.5,0-0.5-0.5-1.1c-0.5-0.5-1.1-0.5-2.2-0.5c-1.6-0.5-3.3-1.1-3.8-1.6s-1.1-1.6-0.5-3.3
			c0.5-1.6,1.1-2.7,2.7-3.3c1.6-1.1,3.3-1.6,4.9-1.6c2.2,0,3.8,0.5,4.9,1.6c1.1,1.1,1.1,2.2,1.1,3.8l0,0h-4.9c0-0.5,0-1.1,0-1.6
			s-0.5-0.5-1.6-0.5c-0.5,0-1.1,0-1.6,0.5s-0.5,0.5-0.5,1.1s0,0.5,0.5,1.1c0.5,0.5,1.1,0.5,2.2,0.5c1.6,0.5,3.3,1.1,3.8,1.6
			s1.1,1.6,0.5,3.3c-0.5,1.6-1.1,2.7-2.7,3.3c-1.6,1.1-3.3,1.6-5.5,1.6s-3.8-0.5-4.9-1.6c-1.1-1.1-1.1-2.2-1.1-3.8l0,0h4.4
			c0,0.5,0,1.1,0.5,1.6s1.1,0.5,1.6,0.5s1.1,0,1.6-0.5C650.6,371.5,650.6,370.9,650.6,370.9z"/>
		<path class="st1" d="M676.8,369.3c0-0.5,0-1.1-0.5-1.6s-1.1-1.1-2.2-1.1c-2.7-1.1-4.4-1.6-5.5-2.7s-1.6-2.2-1.1-4.4
			c0.5-1.6,1.6-3.3,3.3-4.4c1.6-1.1,3.8-1.6,6-1.6s4.4,0.5,5.5,1.6s1.6,2.7,1.1,4.4l0,0h-4.9c0-1.1,0-1.6-0.5-2.2
			c-0.5-0.5-1.1-0.5-2.2-0.5c-1.1,0-1.6,0-2.7,0.5c-0.5,0.5-1.1,1.1-1.1,1.6s0,1.1,0.5,1.6s1.6,1.1,2.7,1.6c2.2,0.5,3.8,1.6,4.9,2.7
			c1.1,1.1,1.1,2.7,1.1,4.4c-0.5,1.6-1.6,3.3-3.3,4.4c-1.6,1.1-3.8,1.6-6,1.6s-4.4-0.5-6-1.6s-2.2-2.7-1.6-4.9l0,0h4.9
			c0,1.1,0,2.2,0.5,2.7s1.6,0.5,2.7,0.5s1.6,0,2.2-0.5C676.8,370.4,676.8,369.8,676.8,369.3z"/>
		<path class="st1" d="M684.4,367.1c0.5-2.2,1.6-4.4,3.3-6c1.6-1.6,3.8-2.2,6-2.2s4.4,0.5,4.9,2.2c1.1,1.6,1.1,3.3,0.5,6v0.5
			c-0.5,2.2-1.6,4.4-3.3,6c-1.6,1.6-3.8,2.2-6,2.2s-4.4-0.5-4.9-2.2C683.8,371.5,683.8,369.8,684.4,367.1L684.4,367.1z M689.3,367.1
			c-0.5,1.1-0.5,2.2,0,3.3c0,0.5,1.1,1.1,1.6,1.1c1.1,0,1.6-0.5,2.2-1.1c0.5-0.5,1.1-1.6,1.1-3.3v-0.5c0.5-1.1,0.5-2.2,0-3.3
			c0-0.5-1.1-1.1-1.6-1.1c-1.1,0-1.6,0.5-2.2,1.1C689.8,364.9,689.3,365.5,689.3,367.1L689.3,367.1z"/>
		<path class="st1" d="M705.1,374.7h-4.9l4.9-22.4h4.9L705.1,374.7z"/>
		<path class="st1" d="M717.7,373.1c-0.5,0.5-1.6,1.1-2.2,1.6c-0.5,0.5-1.6,0.5-2.7,0.5c-1.6,0-2.7-0.5-3.3-1.6
			c-0.5-1.1-0.5-2.7-0.5-4.9l2.2-9.3h4.9l-2.2,9.8c0,1.1,0,1.6,0,2.2c0,0.5,0.5,0.5,1.1,0.5c0.5,0,1.1,0,1.6,0s0.5-0.5,1.1-0.5
			l2.7-11.5h4.9l-3.3,15.8h-4.4v-2.6H717.7z"/>
		<path class="st1" d="M735.1,355.1l-1.1,3.8h2.7l-0.5,3.3h-2.7l-1.6,7.1c0,0.5,0,1.1,0,1.1s0.5,0.5,1.1,0.5c0.5,0,0.5,0,0.5,0h0.5
			l-0.5,3.8c-0.5,0-1.1,0-1.6,0.5c-0.5,0-1.1,0-1.6,0c-1.6,0-2.7-0.5-3.3-1.1c-0.5-1.1-0.5-2.2-0.5-3.8l1.6-7.1h-2.2l0.5-3.3h2.2
			l1.1-3.8L735.1,355.1z"/>
		<path class="st1" d="M740.6,374.7h-4.9l3.3-15.8h4.9L740.6,374.7z M744.9,355.7H740l0.5-3.3h4.9L744.9,355.7z"/>
		<path class="st1" d="M744.9,366.6c0.5-2.2,1.6-4.4,3.3-6c1.6-1.6,3.8-2.2,6-2.2s4.4,0.5,4.9,2.2c1.1,1.6,1.1,3.3,0.5,6v0.5
			c-0.5,2.2-1.6,4.4-3.3,6c-1.6,1.6-3.8,2.2-6,2.2s-4.4-0.5-4.9-2.2C744.4,371.5,744.4,369.3,744.9,366.6L744.9,366.6z M749.9,367.1
			c-0.5,1.1-0.5,2.2,0,3.3c0,0.5,1.1,1.1,1.6,1.1c1.1,0,1.6-0.5,2.2-1.1c0.5-0.5,1.1-1.6,1.1-3.3v-0.5c0.5-1.1,0.5-2.2,0-3.3
			c0-0.5-1.1-1.1-1.6-1.1c-1.1,0-1.6,0.5-2.2,1.1C750.4,364.4,749.9,365.5,749.9,367.1L749.9,367.1z"/>
		<path class="st1" d="M768.4,358.9l-0.5,2.2c0.5-0.5,1.6-1.6,2.2-1.6c1.1-0.5,1.6-0.5,2.7-0.5c1.6,0,2.7,0.5,3.3,1.6
			c0.5,1.1,0.5,2.7,0,4.9l-2.2,9.8H769l2.2-9.8c0-1.1,0-1.6,0-1.6c-0.5-0.5-0.5-0.5-1.6-0.5c-0.5,0-1.1,0-1.1,0
			c-0.5,0-0.5,0.5-1.1,0.5l-2.7,11.5h-4.9l3.3-15.8L768.4,358.9z"/>
		<path class="st1" d="M786.4,369.8c0-0.5,0-0.5-0.5-1.1c-0.5-0.5-1.1-0.5-2.2-0.5c-1.6-0.5-3.3-1.1-3.8-1.6s-1.1-1.6-0.5-3.3
			c0.5-1.6,1.1-2.7,2.7-3.3c1.6-1.1,3.3-1.6,4.9-1.6c2.2,0,3.8,0.5,4.9,1.6c1.1,1.1,1.1,2.2,1.1,3.8l0,0h-5c0-0.5,0-1.1,0-1.6
			s-0.5-0.5-1.6-0.5c-0.5,0-1.1,0-1.6,0.5s-0.5,0.5-0.5,1.1c0,0.5,0,0.5,0.5,1.1c0.5,0.5,1.1,0.5,2.2,0.5c1.6,0.5,3.3,1.1,3.8,1.6
			s1.1,1.6,0.5,3.3c-0.5,1.6-1.1,2.7-2.7,3.3c-1.6,1.1-3.3,1.6-5.5,1.6s-3.8-0.5-4.9-1.6c-1.1-1.1-1.1-2.2-1.1-3.8l0,0h4.4
			c0,0.5,0,1.1,0.5,1.6s1.1,0.5,1.6,0.5s1.1,0,1.6-0.5C785.9,370.9,786.4,370.4,786.4,369.8z"/>
	</g>
	<g>
		<path class="st1" d="M714.9,220.4l-0.5,4.4l0,0l2.2-4.4l11.5-24h4.4l1.6,24v4.9l0,0l1.6-4.9l10.4-24h4.9L734.6,233h-4.4l-1.6-25.1
			v-3.3l0,0l-1.1,3.3L715,233h-4.4l-1.1-36.6h4.9L714.9,220.4z"/>
		<path class="st1" d="M754.2,232.9h-4.9l5.5-27.3h4.9L754.2,232.9z M761.3,199.1h-4.9l1.1-4.9h4.9L761.3,199.1z"/>
		<path class="st1" d="M788,216.5h-16.4l-3.3,15.8h-4.9l7.6-36.6h24l-0.5,3.8h-19.1l-2.7,12.5h16.4L788,216.5z"/>
		<path class="st1" d="M797.3,232.9h-4.9l5.5-27.3h4.9L797.3,232.9z M804.4,199.1h-4.9l1.1-4.9h4.9L804.4,199.1z"/>
	</g>
	<linearGradient id="SVGID_1_" gradientUnits="userSpaceOnUse" x1="135" y1="270" x2="824.6" y2="270">
		<stop  offset="0" style="stop-color:#004B8D"/>
		<stop  offset="1" style="stop-color:#4192D9"/>
	</linearGradient>
	<path class="st2" d="M327,209.4l278.8-4.9L488,321.8L797.9,336l-362.8,5.5l124.4-117.9L327,209.4z M824.6,190.3
		c-65.5-40.4-160.9-68.2-267.9-74.2c-205.1-10.9-375.9,64.4-381.9,168.6c-3.3,58.4,46.4,112.9,126,151.7
		C201,404.2,135,348.6,135,285.3c0-100.4,166.4-181.7,372.1-181.7C641.8,103.6,759.7,138.5,824.6,190.3z"/>
</g>
</svg>
