<?xml version="1.0" encoding="utf-8"?>
<!-- Generator: Adobe Illustrator 21.1.0, SVG Export Plug-In . SVG Version: 6.00 Build 0)  -->
<svg version="1.1" id="Layer_1" xmlns="http://www.w3.org/2000/svg" xmlns:xlink="http://www.w3.org/1999/xlink" x="0px" y="0px"
	 viewBox="0 0 427.4 380.6" style="enable-background:new 0 0 427.4 380.6;" xml:space="preserve">
<style type="text/css">
	.st0{fill:#9A9E97;}
	.st1{fill:#FFE4B3;}
	.st2{fill:#282F39;}
	.st3{fill:#E0F5F8;}
	.st4{fill:#FFFFFF;}
	.st5{fill:none;stroke:#000000;stroke-miterlimit:10;}
	.st6{fill:none;stroke:#000000;stroke-miterlimit:10;stroke-dasharray:12.4348,12.4348;}
	.st7{fill:none;stroke:#000000;stroke-miterlimit:10;stroke-dasharray:14.3333,14.3333;}
	.st8{fill:#2291BF;}
	.st9{fill:#F7A806;}
	.st10{fill:#F7B906;}
	.st11{fill:#B3B3B3;}
	.st12{opacity:0.72;fill:#1A1A1A;enable-background:new    ;}
	.st13{opacity:0.42;fill:#1A1A1A;enable-background:new    ;}
	.st14{fill:#FFBA38;}
	.st15{fill:#F15D2F;}
	.st16{fill:none;stroke:#FFFFFF;stroke-width:2;stroke-miterlimit:10;}
	.st17{fill:none;stroke:#999999;stroke-width:2;stroke-linecap:round;stroke-miterlimit:10;}
	.st18{fill:#E6E6E6;}
	.st19{fill:#999999;}
	.st20{opacity:0.12;enable-background:new    ;}
	.st21{fill:#7E827A;}
	.st22{fill:none;stroke:#B3B3B3;stroke-width:2;stroke-linecap:round;stroke-miterlimit:10;}
	.st23{opacity:0.28;enable-background:new    ;}
</style>
<g>
	<rect x="313" y="71.4" class="st0" width="7.5" height="34.2"/>
	<polygon class="st1" points="150,0 135.5,28.6 164.6,28.6 	"/>
	<g>
		<rect x="21.6" y="144.6" class="st2" width="314.8" height="214.7"/>
	</g>
	<rect x="33.9" y="158.4" class="st3" width="291.6" height="187.2"/>
	<rect x="59.3" y="172.9" class="st4" width="239.4" height="158.1"/>
	<g>
		<g>
			<polyline class="st5" points="287.1,238.2 287.1,242.6 282.7,242.6 			"/>
			<line class="st6" x1="273.7" y1="242.6" x2="79.8" y2="242.6"/>
			<polyline class="st5" points="75.3,242.6 70.9,242.6 70.9,238.2 			"/>
			<line class="st7" x1="70.9" y1="227.8" x2="70.9" y2="212.2"/>
			<polyline class="st5" points="70.9,207 70.9,202.7 75.3,202.7 			"/>
			<line class="st6" x1="84.2" y1="202.7" x2="278.2" y2="202.7"/>
			<polyline class="st5" points="282.7,202.7 287.1,202.7 287.1,207 			"/>
			<line class="st7" x1="287.1" y1="217.4" x2="287.1" y2="233"/>
		</g>
	</g>
	<rect x="70.2" y="180.2" class="st8" width="38.4" height="10.9"/>
	<polygon class="st9" points="157.2,24.7 150,28.6 142.7,24.7 135.5,28.6 135.5,144.6 164.5,144.6 164.5,28.6 	"/>
	<polygon class="st10" points="150,28.6 145.7,26.3 145.7,28.6 145.7,144.6 154.4,144.6 154.4,28.6 154.4,26.2 	"/>
	<polygon points="150,0 144.3,11.2 155.6,11.2 	"/>
	<rect x="70.2" y="316.3" class="st11" width="218.7" height="2.8"/>
	<g>
		<rect x="70.9" y="253.7" class="st8" width="55.9" height="51.2"/>
		<rect x="75.7" y="258.7" class="st4" width="33.4" height="5.7"/>
		<rect x="75.7" y="295.2" class="st4" width="13.9" height="4.2"/>
		<rect x="75.7" y="272.2" class="st12" width="40.9" height="2.8"/>
		<rect x="75.7" y="278.2" class="st13" width="44.8" height="2.8"/>
		<rect x="75.7" y="284.1" class="st12" width="39.3" height="2.8"/>
		<rect x="75.7" y="289.6" class="st13" width="42.3" height="2.8"/>
	</g>
	<g>
		<rect x="151.9" y="253.7" class="st14" width="55.9" height="51.2"/>
		<rect x="156.7" y="258.7" class="st4" width="33.4" height="5.7"/>
		<rect x="156.7" y="295.2" class="st4" width="13.9" height="4.2"/>
		<rect x="156.7" y="272.2" class="st12" width="40.9" height="2.8"/>
		<rect x="156.7" y="278.2" class="st13" width="44.8" height="2.8"/>
		<rect x="156.7" y="284.1" class="st12" width="39.3" height="2.8"/>
		<rect x="156.7" y="289.6" class="st13" width="42.3" height="2.8"/>
	</g>
	<g>
		<rect x="233" y="253.7" class="st15" width="55.9" height="51.2"/>
		<rect x="237.8" y="258.7" class="st4" width="33.4" height="5.7"/>
		<rect x="237.8" y="295.2" class="st4" width="13.9" height="4.2"/>
		<rect x="237.8" y="272.2" class="st12" width="40.9" height="2.8"/>
		<rect x="237.8" y="278.2" class="st13" width="44.8" height="2.8"/>
		<rect x="237.8" y="284.1" class="st12" width="39.3" height="2.8"/>
		<rect x="237.8" y="289.6" class="st13" width="42.3" height="2.8"/>
	</g>
	<path class="st9" d="M94.1,39.5v31.9h259.7V39.5H94.1z M105.6,60.3c-2.7,0-4.9-2.2-4.9-4.9s2.2-4.9,4.9-4.9s4.9,2.2,4.9,4.9
		S108.3,60.3,105.6,60.3z"/>
	<rect x="94.1" y="64.1" class="st10" width="259.7" height="7.3"/>
	<g>
		<rect x="172.9" y="180.2" class="st8" width="36" height="5.7"/>
		<rect x="212.9" y="180.2" class="st14" width="36" height="5.7"/>
		<rect x="252.8" y="180.2" class="st15" width="36" height="5.7"/>
	</g>
	<line class="st16" x1="100.8" y1="71.3" x2="100.8" y2="66.3"/>
	<line class="st16" x1="117.2" y1="71.3" x2="117.2" y2="66.3"/>
	<line class="st16" x1="133.6" y1="71.3" x2="133.6" y2="66.3"/>
	<line class="st16" x1="150" y1="71.3" x2="150" y2="66.3"/>
	<line class="st16" x1="166.4" y1="71.3" x2="166.4" y2="66.3"/>
	<line class="st16" x1="182.8" y1="71.3" x2="182.8" y2="66.3"/>
	<line class="st16" x1="199.2" y1="71.3" x2="199.2" y2="66.3"/>
	<line class="st16" x1="215.6" y1="71.3" x2="215.6" y2="66.3"/>
	<line class="st16" x1="297.7" y1="71.3" x2="297.7" y2="66.3"/>
	<line class="st16" x1="314.1" y1="71.3" x2="314.1" y2="66.3"/>
	<line class="st16" x1="330.5" y1="71.3" x2="330.5" y2="66.3"/>
	<line class="st16" x1="346.9" y1="71.3" x2="346.9" y2="66.3"/>
	<line class="st16" x1="232" y1="71.3" x2="232" y2="66.3"/>
	<line class="st16" x1="248.5" y1="71.3" x2="248.5" y2="66.3"/>
	<line class="st16" x1="264.9" y1="71.3" x2="264.9" y2="66.3"/>
	<line class="st17" x1="233.5" y1="204.4" x2="314.9" y2="144.4"/>
	<line class="st16" x1="281.3" y1="71.3" x2="281.3" y2="66.3"/>
	<g>
		<rect x="0.1" y="359.4" class="st18" width="357.8" height="10.6"/>
		<path class="st19" d="M319.6,380.6H38.3c-11.8,0-23.3-2.8-33.7-8.3L0,369.9h357.8l-4.6,2.4C342.9,377.8,331.3,380.6,319.6,380.6z"
			/>
		<rect x="0.1" y="359.4" class="st11" width="357.8" height="2.8"/>
		<g>
			<polygon class="st2" points="207.8,366.7 150.1,366.7 147.6,359.4 210.3,359.4 			"/>
		</g>
	</g>
	<rect x="135.5" y="71.4" class="st20" width="28.9" height="5"/>
	<polygon class="st21" points="308.4,71.4 308.4,74.2 311.2,77.1 321.7,77.1 324.6,74.2 324.6,71.4 	"/>
	<path class="st10" d="M330.1,141.7c-1.2-1.3-3.3-1.4-4.6-0.1c-2.4,2.3-5.6,3.6-9,3.6c-7.2,0-13-5.8-13-13s5.8-13,13-13h0.1h0.1l0,0
		c2.1,0,3.8-1.7,3.8-3.8v-10H313v7.5c-9.1,1.7-16,9.6-16,19.2c0,10.7,8.8,19.5,19.5,19.5c5.1,0,9.9-2,13.5-5.4
		C331.3,145.2,331.3,143.1,330.1,141.7z"/>
	<line class="st22" x1="404" y1="191.4" x2="314.9" y2="144.4"/>
	<g>
		<g>
			
				<rect x="214.2" y="194.8" transform="matrix(0.9978 -6.636182e-02 6.636182e-02 0.9978 -13.459 21.7263)" class="st2" width="212.2" height="37.3"/>
		</g>
		<g>
			<path class="st4" d="M312.8,223.4l-16.1-5.9l-0.1-2.2l15.1-8.8l0.2,3.8l-10.5,5.7l11.1,3.7L312.8,223.4z"/>
			<path class="st4" d="M326,202.7l-7,23.6l-4.4,0.3l7-23.6L326,202.7z"/>
			<path class="st4" d="M328.6,218.6l10.4-5.2l-11.1-4.3l-0.2-3.8l16.2,6.7l0.1,2.2l-15.2,7.9L328.6,218.6z"/>
		</g>
	</g>
	<circle class="st9" cx="316.7" cy="105.6" r="5.7"/>
	<polygon class="st23" points="215.6,239 336.4,239 336.4,231 	"/>
</g>
</svg>
