<?xml version="1.0" encoding="utf-8"?>
<!-- Generator: Adobe Illustrator 21.1.0, SVG Export Plug-In . SVG Version: 6.00 Build 0)  -->
<svg version="1.1" id="Layer_1" xmlns="http://www.w3.org/2000/svg" xmlns:xlink="http://www.w3.org/1999/xlink" x="0px" y="0px"
	 viewBox="0 0 445.9 390.6" style="enable-background:new 0 0 445.9 390.6;" xml:space="preserve">
<style type="text/css">
	.st0{fill:#B3B3B3;}
	.st1{fill:#282F39;}
	.st2{fill:#CCCCCC;}
	.st3{fill:#E0F5F8;}
	.st4{fill:#FFFFFF;}
	.st5{fill:#E6E6E6;}
	.st6{fill:#999999;}
	.st7{fill:none;stroke:#282F39;stroke-width:3;stroke-miterlimit:10;}
	.st8{fill:#FFFFFF;stroke:#282F39;stroke-width:3;stroke-miterlimit:10;}
	.st9{fill:#2291BF;}
	.st10{opacity:0.72;fill:#1A1A1A;enable-background:new    ;}
	.st11{opacity:0.42;fill:#1A1A1A;enable-background:new    ;}
	.st12{fill:#FFBA38;}
	.st13{fill:#F15D2F;}
	.st14{opacity:0.63;}
	.st15{fill:#E59D35;}
	.st16{opacity:0.12;fill:#1A1A1A;enable-background:new    ;}
	.st17{fill:#F2F2F2;}
	.st18{fill:url(#SVGID_1_);}
	.st19{fill:#DBDCDD;}
	.st20{fill:#E6E7E8;}
	.st21{opacity:0.12;enable-background:new    ;}
</style>
<g>
	<path class="st0" d="M325.7,383.8H182.1c0,0,24.7,0,24.7-62c0-23.6,94.2-23.6,94.2,0C301,383.8,325.7,383.8,325.7,383.8z"/>
	<g>
		<path class="st1" d="M434.4,321.8H73.3c-6.3,0-11.5-5.2-11.5-11.5v-260c0-6.3,5.2-11.5,11.5-11.5h361.1c6.3,0,11.5,5.2,11.5,11.5
			v259.9C445.9,316.7,440.8,321.8,434.4,321.8z"/>
	</g>
	<path class="st2" d="M73.2,321.8h361.3c6.3,0,11.4-5.1,11.4-11.4v-16.6h-384v16.6C61.9,316.7,67,321.8,73.2,321.8z"/>
	<rect x="81.2" y="51.5" class="st3" width="349.6" height="228.5"/>
	<rect x="96" y="61.2" class="st4" width="320.2" height="209.2"/>
	<rect x="182.1" y="383.8" class="st5" width="143.6" height="5.7"/>
	<rect x="206.7" y="321.8" class="st6" width="94.3" height="5.7"/>
	<g>
		<line class="st7" x1="231" y1="108.3" x2="389.8" y2="108.3"/>
		<path class="st7" d="M389.8,144.8c-19.2-22.4-47.6-36.6-79.4-36.6s-60.2,14.2-79.4,36.6"/>
		<rect x="221.2" y="144.8" class="st7" width="9.8" height="9.8"/>
		<rect x="389.8" y="144.8" class="st7" width="9.8" height="9.8"/>
		<rect x="305.8" y="103.3" class="st8" width="9.8" height="9.8"/>
		<circle class="st7" cx="226.1" cy="108.3" r="4.9"/>
		<circle class="st7" cx="394.6" cy="108.3" r="4.9"/>
	</g>
	<rect x="110.3" y="253.1" class="st0" width="288.9" height="3.7"/>
	<g>
		<rect x="110.3" y="174.1" class="st9" width="70.4" height="64.6"/>
		<rect x="116.4" y="180.4" class="st4" width="42" height="7.2"/>
		<rect x="116.4" y="226.4" class="st4" width="17.5" height="5.3"/>
		<rect x="116.4" y="197.5" class="st10" width="51.6" height="3.6"/>
		<rect x="116.4" y="205" class="st11" width="56.4" height="3.6"/>
		<rect x="116.4" y="212.4" class="st10" width="49.5" height="3.6"/>
		<rect x="116.4" y="219.3" class="st11" width="53.2" height="3.6"/>
	</g>
	<g>
		<rect x="220.9" y="174.1" class="st12" width="70.4" height="64.6"/>
		<rect x="227" y="180.4" class="st4" width="42" height="7.2"/>
		<rect x="227" y="226.4" class="st4" width="17.5" height="5.3"/>
		<rect x="227" y="197.5" class="st10" width="51.6" height="3.6"/>
		<rect x="227" y="205" class="st11" width="56.4" height="3.6"/>
		<rect x="227" y="212.4" class="st10" width="49.5" height="3.6"/>
		<rect x="227" y="219.3" class="st11" width="53.2" height="3.6"/>
	</g>
	<g>
		<rect x="328.8" y="174.1" class="st13" width="70.4" height="64.6"/>
		<rect x="334.8" y="180.4" class="st4" width="42" height="7.2"/>
		<rect x="334.8" y="226.4" class="st4" width="17.5" height="5.3"/>
		<rect x="334.8" y="197.5" class="st10" width="51.6" height="3.6"/>
		<rect x="334.8" y="205" class="st11" width="56.4" height="3.6"/>
		<rect x="334.8" y="212.4" class="st10" width="49.5" height="3.6"/>
		<rect x="334.8" y="219.3" class="st11" width="53.2" height="3.6"/>
	</g>
	<g>
		<rect x="266.2" y="70.2" class="st9" width="41.3" height="6.5"/>
		<rect x="312.1" y="70.2" class="st12" width="41.3" height="6.5"/>
		<rect x="357.9" y="70.2" class="st13" width="41.3" height="6.5"/>
	</g>
	<rect x="110.3" y="70.2" class="st9" width="44" height="12.5"/>
	<g class="st14">
		<g>
			<polygon points="342.1,259.9 340.7,259.9 340.7,321.8 344.9,321.8 			"/>
		</g>
		<g>
			<polygon points="387.1,317.7 340.7,317.7 340.7,321.8 387.1,321.8 			"/>
		</g>
		<g>
			<polygon points="387.1,290.8 340.7,290.8 340.7,295 387.1,295 			"/>
		</g>
		<g>
			<polygon points="400.5,259.9 399.1,259.9 399.1,321.8 403.3,321.8 			"/>
		</g>
	</g>
	<rect x="340.7" y="369.3" class="st15" width="46.4" height="2.3"/>
	<rect x="340.7" y="342.4" class="st15" width="46.4" height="2.3"/>
	<rect x="340.7" y="315.4" class="st15" width="46.4" height="2.3"/>
	<rect x="340.7" y="288.5" class="st15" width="46.4" height="2.3"/>
	<path class="st12" d="M387.1,259.9v18.9h-46.4v-18.9h-12v18.9v12v15v11.9v15v12v15v12v18.9h12v-18.9h46.4v18.9h12v-18.9v-12v-15
		v-12v-15v-12v-15v-12v-18.8H387.1L387.1,259.9z M387.1,359.7h-46.4v-15h46.4V359.7z M387.1,332.7h-46.4v-15h46.4V332.7z
		 M387.1,305.7h-46.4v-15h46.4V305.7z"/>
	<g>
		<g>
			<path class="st1" d="M299.5,131l-1.4,1.4l-6.8-6.8c-2.9-2.9-7.6-2.9-10.5,0l0,0c-2.9,2.9-2.9,7.6,0,10.5l6.8,6.8l-1.4,1.4
				c-0.7,0.7-0.7,1.8,0,2.5l1,1c0.7,0.7,1.8,0.7,2.5,0l13.3-13.3c0.7-0.7,0.7-1.8,0-2.5l-1-1C301.3,130.2,300.2,130.2,299.5,131z"/>
		</g>
		<path class="st4" d="M291.6,145.8l23.4,23.4l5.9,0.6l2.1,2.1c1.2,1.2,3,1.2,4.1,0l0,0c1.2-1.2,1.2-3,0-4.1l-2.1-2.1l-0.6-5.9
			L301,136.4L291.6,145.8z"/>
		<path class="st13" d="M300.5,154.7l14.5,14.5l5.9,0.6l2.1,2.1c1.2,1.2,3,1.2,4.1,0l0,0c1.2-1.2,1.2-3,0-4.1l-2.1-2.1l-0.6-5.9
			l-5.1-5.1C319.4,154.7,300.5,154.7,300.5,154.7z"/>
		<path class="st16" d="M280.7,125.5c-2.9,2.9-2.9,7.6,0,10.5l6.8,6.8l-1.4,1.4c-0.7,0.7-0.7,1.8,0,2.5l1,1c0.7,0.7,1.8,0.7,2.5,0
			l2-2l8.8,8.8l14.5,14.5l5.9,0.6l2.1,2.1c1.2,1.2,3,1.2,4.1,0L280.7,125.5z"/>
	</g>
	<g>
		<rect x="293.9" y="1.4" class="st17" width="35" height="35"/>
		<rect x="293.9" y="1.4" class="st5" width="17.5" height="35"/>
		<rect x="340.5" y="1.4" class="st17" width="35" height="35"/>
		<rect x="340.5" y="1.4" class="st5" width="17.5" height="35"/>
		<rect x="387.2" y="1.4" class="st17" width="35" height="35"/>
		<rect x="387.2" y="1.4" class="st5" width="17.5" height="35"/>
		<g>
			<path class="st9" d="M313.9,4.4V4.2C313.9,4.4,313.9,4.4,313.9,4.4z"/>
			<path class="st9" d="M328.8,0h-35c-1.2,0-2.1,0.9-2.1,2.1v2.7c0,1.2,0.9,2.1,2.1,2.1V1.4h0.5h0.2c0.4,0,1.2,0.1,2,0.8
				c0.7,0.7,0.9,1.6,0.9,2v0.2v13.3c0,2,1.6,3.6,3.6,3.6s3.6-1.6,3.6-3.6V5.9V5.7c0-1.2,1.9-1.2,1.9,0v0.2v2.9c0,2,1.6,3.6,3.6,3.6
				s3.6-1.6,3.6-3.6V1.4l0,0v2.8c0-0.4,0.1-1.3,0.9-2c0.7-0.7,1.5-0.8,2-0.8h0.2h11.9v5.5c1.2,0,2.1-0.9,2.1-2.1V2.1
				C330.9,1,330,0,328.8,0z"/>
		</g>
		<g>
			<g>
				<path class="st12" d="M360.5,4.4V4.2C360.5,4.4,360.5,4.4,360.5,4.4z"/>
				<path class="st12" d="M375.5,0h-35c-1.2,0-2.1,0.9-2.1,2.1v2.7c0,1.2,0.9,2.1,2.1,2.1V1.4h0.5h0.2c0.4,0,1.2,0.1,2,0.8
					c0.7,0.7,0.9,1.6,0.9,2v0.2v13.3c0,2,1.6,3.6,3.6,3.6s3.6-1.6,3.6-3.6V5.9V5.7c0-1.2,1.9-1.2,1.9,0v0.2v2.9c0,2,1.6,3.6,3.6,3.6
					s3.6-1.6,3.6-3.6V1.4l0,0v2.8c0-0.4,0.1-1.3,0.9-2c0.7-0.7,1.5-0.8,2-0.8h0.2h11.9v5.5c1.2,0,2.1-0.9,2.1-2.1V2.1
					C377.6,1,376.6,0,375.5,0z"/>
			</g>
		</g>
		<g>
			<g>
				<path class="st13" d="M407.2,4.4V4.2C407.2,4.4,407.2,4.4,407.2,4.4z"/>
				<path class="st13" d="M422.1,0h-35c-1.2,0-2.1,0.9-2.1,2.1v2.7c0,1.2,0.9,2.1,2.1,2.1V1.4h0.5h0.2c0.4,0,1.2,0.1,2,0.8
					c0.7,0.7,0.9,1.6,0.9,2v0.2v13.3c0,2,1.6,3.6,3.6,3.6s3.6-1.6,3.6-3.6V5.9V5.7c0-1.2,1.9-1.2,1.9,0v0.2v2.9c0,2,1.6,3.6,3.6,3.6
					s3.6-1.6,3.6-3.6V1.4l0,0v2.8c0-0.4,0.1-1.3,0.9-2c0.7-0.7,1.5-0.8,2-0.8h0.2H422v5.5c1.2,0,2.1-0.9,2.1-2.1V2.1
					C424.2,1,423.3,0,422.1,0z"/>
			</g>
		</g>
	</g>
	<g>
		<g>
			<path class="st2" d="M90.4,151.6L90.4,151.6c-0.3,1.3-0.4,2.4-0.4,3.5c-0.1,5,2,9.6,5.9,13.6c4,4,8.6,6,13.6,5.9
				c1.1,0,2.3-0.1,3.5-0.4l0.1-0.1c2.3-0.9,4.5-2.6,6.4-4.9c6.2-7.7,4.9-14.8,4.9-15.1c-0.1-0.2-0.1-0.3-0.4-0.4s-0.4,0-0.5,0.1
				l-8.3,8.3c-0.8,0.1-5.9,0.7-9.7-3c-3.7-3.7-3.2-8.8-3-9.7l8.3-8.3c0.1-0.1,0.2-0.4,0.1-0.5s0-0.1-0.1-0.2s-0.1-0.1-0.3-0.1
				c-0.3,0-7.4-1.2-15.1,4.9C93,147.1,91.3,149.2,90.4,151.6z"/>
			
				<linearGradient id="SVGID_1_" gradientUnits="userSpaceOnUse" x1="-2349.8457" y1="2250.0544" x2="-2349.8457" y2="2355.8591" gradientTransform="matrix(-0.7071 -0.7071 0.7071 -0.7071 -3230.9939 172.1423)">
				<stop  offset="0" style="stop-color:#B3B3B3"/>
				<stop  offset="5.000000e-02" style="stop-color:#D1D1D1"/>
				<stop  offset="0.5146" style="stop-color:#E6E6E6"/>
				<stop  offset="0.95" style="stop-color:#D2D2D2"/>
				<stop  offset="1" style="stop-color:#B3B3B3"/>
			</linearGradient>
			<path class="st18" d="M91.2,159.9c0.9,2.6,2.5,5.4,5.2,8.2c2.8,2.8,5.6,4.3,8.2,5.2c-3.3,0.3-4.3,0.2-9.5,5.4
				c-5.3,5.3-52.8,52.8-52.8,52.8s-10.1,9.3-16.8,20.7c-0.2-3.3-1.6-6.6-4.2-9.3c-2.5-2.5-5.9-3.9-9.3-4.2
				c11.5-6.6,20.7-16.8,20.7-16.8s47.4-47.4,52.8-52.8C91,164.2,90.9,163.2,91.2,159.9z"/>
			<path class="st0" d="M29.5,228.4l54.1-54.1c1.8-1.8,4.6-1.8,6.4,0l0.3,0.3c1.8,1.8,1.8,4.6,0,6.4l-54.1,54
				c-1.8,1.8-4.6,1.8-6.4,0l-0.3-0.3C27.8,233,27.8,230.1,29.5,228.4z"/>
			<path class="st19" d="M1.3,245.8c-2.7,6.5,0.6,12.8,2.7,14.8s8.3,5.4,14.8,2.7c4.2-1.8,6.2-5,7-7.4c1.6-4.9,0.4-10.2-3.2-13.8
				s-8.9-4.8-13.8-3.2C6.3,239.7,3.1,241.5,1.3,245.8z M10.9,241.9c0.1-0.1,0.1-0.1,0.2-0.1l2.2,1.1l2.1-1c0.1-0.1,0.2-0.1,0.2,0.1
				l1.8,2.1l2.5,0.2c0.1,0,0.2,0.1,0.2,0.2l0.2,2.6l2.1,1.6c0.1,0.1,0.1,0.1,0.1,0.2l-1,2.3l0.9,2.5c0.1,0.1,0,0.1-0.1,0.2l-1.9,1.3
				l-0.3,2.5c0,0.1-0.1,0.2-0.2,0.2l-2.3,0.2l-1.7,2.1c-0.1,0.1-0.1,0.1-0.2,0.1l-2.2-0.9l-2.3,1.1c-0.1,0.1-0.2,0.1-0.2-0.1
				l-1.6-2.1L6.9,258c-0.1,0-0.2-0.1-0.2-0.2l-0.2-2.6l-2.1-1.6c-0.1-0.1-0.1-0.1-0.1-0.2l0.8-2.3l-1-2.3c-0.1-0.1,0-0.1,0.1-0.2
				l1.9-1.6l0.4-2.7c0-0.1,0.1-0.2,0.2-0.2l2.5-0.3L10.9,241.9z"/>
			<path class="st20" d="M1.8,246c-2.8,6.6,1,12.7,2.5,14.3c1.6,1.6,7.6,5.4,14.3,2.5c4.2-1.8,5.9-4.9,6.7-7.1
				c1.6-4.5,0.5-9.7-3.1-13.3s-8.8-4.7-13.3-3.1C6.7,240,3.5,241.8,1.8,246z M6.6,243.8l2.4-0.3l1.6-2c0.2-0.2,0.6-0.3,0.9-0.2l2,1
				l1.9-0.9c0.3-0.1,0.6-0.1,0.8,0.1l1.6,1.9l2.3,0.2c0.1,0,0.4,0.1,0.5,0.2c0.1,0.1,0.1,0.3,0.2,0.5l0.3,2.4l1.8,1.6
				c0.2,0.2,0.4,0.5,0.2,0.8l-0.8,2.1l0.8,2.3c0.1,0.3,0,0.7-0.3,0.8l-1.8,1.2l-0.3,2.4c-0.1,0.4-0.3,0.6-0.6,0.6l-2.2,0.2l-1.6,2
				c-0.2,0.2-0.5,0.4-0.8,0.2l-2-0.8l-2.1,1c-0.3,0.1-0.6,0.1-0.9-0.2L9.2,259l-2.4-0.3c-0.4-0.1-0.6-0.3-0.6-0.6L6,255.8l-2-1.5
				c-0.2-0.2-0.4-0.5-0.2-0.8l0.8-2.1l-0.9-2.1c-0.1-0.3-0.1-0.6,0.2-0.8l1.8-1.5l0.4-2.5C6,244.1,6.3,243.8,6.6,243.8z"/>
			<path class="st19" d="M96.2,168.3c3.9,3.9,8.3,5.8,13.3,5.8c1.3,0,2.4-0.1,3.4-0.4c2-0.8,4.1-2.3,6.2-4.9
				c6.1-7.6,4.9-14.8,4.9-14.8l-8.5,8.5c0,0-5.9,1.3-10.3-3.1c-4.4-4.4-3.1-10.3-3.1-10.3l8.5-8.5c0,0-7.1-1.3-14.8,4.9
				c-2.6,2.1-4,4.2-4.9,6.2c-0.2,0.9-0.4,2.1-0.4,3.4C90.4,160,92.3,164.4,96.2,168.3z"/>
			<path class="st19" d="M22.7,241.9c5.2,5.2,5.2,13.6,0,18.8c-5.2,5.2-13.6,5.2-18.8,0c-5.2-5.2-5.2-13.6,0-18.8
				C9,236.7,17.5,236.7,22.7,241.9z M4.5,260c4.8,4.8,12.6,4.8,17.4,0c4.8-4.8,4.8-12.6,0-17.4c-4.8-4.8-12.6-4.8-17.4,0
				C-0.2,247.4-0.3,255.2,4.5,260z"/>
		</g>
		<path class="st21" d="M20.2,244.3c0,0,0.1,0.1,0,0.1l0.2,2.6l2.1,1.6c0.1,0.1,0.1,0.1,0.1,0.2l-1,2.3l0.9,2.5
			c0.1,0.1,0,0.1-0.1,0.2l-1.9,1.3l-0.3,2.5c0,0.1-0.1,0.2-0.2,0.2l-2.3,0.2l-1.7,2.1c-0.1,0.1-0.1,0.1-0.2,0.1l-2.2-0.9l-2.3,1.1
			c-0.1,0.1-0.2,0.1-0.2-0.1l-1.6-2.1L7,257.9c-0.1,0-0.2-0.1-0.2-0.2L4,260.5c5.2,5.2,13.5,5.2,18.7,0.1c1.3-1.2,2.1-2.5,2.8-3.7
			c1-2,1.3-4.2,1.3-6.4c6.6-10.7,15.7-19.1,15.7-19.1s47.4-47.4,52.8-52.8c4.4-4.4,5.9-5.2,8.1-5.3c2,0.7,4.1,1.1,6.3,1.1
			c1.1,0,2.3-0.1,3.5-0.4l0.1-0.1c2.3-0.9,4.5-2.6,6.4-4.9c6.2-7.7,4.9-14.8,4.9-15.1c-0.1-0.2-0.1-0.3-0.4-0.4s-0.4,0-0.5,0.1
			l-8.3,8.3c-0.8,0.1-5.9,0.7-9.7-3C105.6,159,20.2,244.3,20.2,244.3z"/>
	</g>
	<path class="st13" d="M136.3,102h-6.9l-2.2,7.6c-2.2,0.6-4.2,1.4-6.1,2.5l-6.9-3.9l-4.9,4.9l3.9,6.9c-1.1,1.9-2,3.9-2.5,6.1
		l-7.6,2.2v6.9l7.6,2.2c0.6,2.2,1.4,4.2,2.5,6.1l-3.9,6.9l4.9,4.9l6.9-3.9c1.9,1.1,3.9,2,6.1,2.5l2.2,7.6h6.9l2.2-7.6
		c2.2-0.6,4.2-1.4,6.1-2.5l6.9,3.9l4.9-4.9l-3.9-6.9c1.1-1.9,2-3.9,2.5-6.1l7.6-2.2v-6.9l-7.6-2.2c-0.6-2.2-1.4-4.2-2.5-6.1l3.9-6.9
		l-4.9-4.9l-7,3.9c-1.9-1.1-3.9-2-6.1-2.5L136.3,102z M145.2,131.7c0,6.9-5.5,12.4-12.4,12.4s-12.4-5.5-12.4-12.4
		c0-6.9,5.5-12.4,12.4-12.4C139.7,119.3,145.2,124.9,145.2,131.7z"/>
	<path class="st13" d="M186.6,93.4l-4.8-1.9l-3.7,4.8c-1.7-0.2-3.3-0.2-5,0.1l-3.7-4.7l-4.8,2.1l0.8,6c-1.3,1-2.5,2.2-3.5,3.6
		l-5.9-0.6l-1.9,4.9l4.7,3.6c-0.2,1.7-0.2,3.4,0.1,5l-4.7,3.8l2,4.8l5.9-0.8c1,1.3,2.2,2.5,3.5,3.5l-0.6,6l4.8,1.9l3.7-4.8
		c1.7,0.2,3.3,0.2,5-0.1l3.7,4.7l4.8-2.1l-0.8-6c1.3-1,2.5-2.2,3.5-3.6l5.9,0.6l1.9-4.9l-4.7-3.6c0.2-1.7,0.2-3.4-0.1-5l4.7-3.8
		l-2-4.8l-5.9,0.8c-1-1.3-2.2-2.5-3.5-3.5L186.6,93.4z M184.4,116.9c-1.9,4.8-7.4,7.2-12.1,5.3c-4.8-1.9-7.1-7.4-5.2-12.2
		s7.4-7.2,12.1-5.3C184.1,106.6,186.4,112.1,184.4,116.9z"/>
</g>
</svg>
