<?xml version="1.0" encoding="utf-8"?>
<!-- Generator: Adobe Illustrator 21.1.0, SVG Export Plug-In . SVG Version: 6.00 Build 0)  -->
<svg version="1.1" id="Layer_1" xmlns="http://www.w3.org/2000/svg" xmlns:xlink="http://www.w3.org/1999/xlink" x="0px" y="0px"
	 viewBox="0 0 572.8 7" style="enable-background:new 0 0 572.8 7;" xml:space="preserve">
<title>dashed</title>
<g id="Layer_2">
	<g id="Layer_1-2">
		<rect x="557.8" width="15" height="7"/>
		<path d="M43.6,7V0h28.6v7H43.6z M100.7,7V0h28.6v7H100.7z M157.8,7V0h28.6v7H157.8z M215,7V0h28.6v7H215z M272.1,7V0h28.6v7H272.1
			z M329.2,7V0h28.6v7H329.2z M386.4,7V0H415v7H386.4z M443.5,7V0h28.6v7H443.5z M500.7,7V0h28.6v7H500.7z"/>
		<rect width="15" height="7"/>
	</g>
</g>
</svg>
