<svg xmlns="http://www.w3.org/2000/svg" viewBox="0 0 375.79 555.16"><defs><style>.cls-1{fill:#fff;}.cls-2{fill:#ebebeb;}.cls-3{fill:#0089b0;}.cls-4{fill:#0095bf;}.cls-5{fill:#e3bda6;}.cls-6{fill:#bf9f8d;}.cls-7{fill:none;}.cls-8{fill:#f8ceb5;}.cls-9{fill:#e0b65a;}.cls-10{fill:#ffcf66;}.cls-11{fill:#ffe099;}.cls-12{fill:#ebcd8d;}.cls-13{fill:#00a9d9;}.cls-14{fill:#f5de00;}</style></defs><title>engineer</title><g id="Layer_2" data-name="Layer 2"><g id="Layer_1-2" data-name="Layer 1"><path class="cls-1" d="M187.11,307.26l-3.22,1.07-45.28-14-10,14.94c-9.49,6.48-37.42,17.48-68.21,27.17,0,0-41,7.7-57.94,29.23A14.54,14.54,0,0,0,0,369.05v186.1H54.82V411.9a16.15,16.15,0,0,1,16.11-16.1H187.11V307.26Z"/><path class="cls-2" d="M371.72,365.72c-16.92-21.53-57.95-29.23-57.95-29.23C283,326.81,255,315.8,245.56,309.32l-9.94-14.94-45.28,14-3.21-1.07V395.8H304.87A16.14,16.14,0,0,1,321,411.9V555.16h54.82V376.32C373.36,369.36,371.72,365.72,371.72,365.72Z"/><path class="cls-3" d="M321,411.9a16.14,16.14,0,0,0-16.1-16.1H187.11V555.16H321Z"/><path class="cls-4" d="M70.93,395.8a16.15,16.15,0,0,0-16.11,16.1V555.16h132.3V395.8Z"/><polygon class="cls-5" points="187.11 245.26 138.61 266.63 138.61 294.38 187.11 309.32 187.89 309.09 187.89 245.61 187.11 245.26"/><polygon class="cls-6" points="235.61 266.63 187.89 245.61 187.89 309.09 235.61 294.38 235.61 266.63"/><path class="cls-7" d="M264.64,162.32l.35-.16c0-.45-.06-.91-.1-1.39C264.73,161.77,264.64,162.32,264.64,162.32Z"/><path class="cls-8" d="M97.77,140.36a135.88,135.88,0,0,0,3.31,19.88c-8,1.07-7.42,13.65-7.42,13.65-1.45,40.53,23.63,47.27,23.63,47.27,10.61,63.16,69.82,73.22,69.82,73.22l.78-.15V140.36Z"/><path class="cls-5" d="M280.56,173.89s.84-17.75-12.91-12.88a190.88,190.88,0,0,0,5-20.64H187.89V294.23c7-1.45,59.13-14.17,69-73.07C256.92,221.16,282,214.42,280.56,173.89Zm-15.92-11.56s.09-.55.24-1.55c0,.48.07.94.1,1.39Z"/><path class="cls-9" d="M187.11,102.08v34h94.55V105.48A91.45,91.45,0,0,0,250.88,37V62.82a13.79,13.79,0,0,1-27.57,0V27.58a13.71,13.71,0,0,1,1.8-6.8,91.18,91.18,0,0,0-24.21-6.31V88.29A13.79,13.79,0,0,1,187.11,102.08Z"/><path class="cls-10" d="M187.11,102.08h0a13.79,13.79,0,0,1-13.79-13.79V14.46a91.18,91.18,0,0,0-24.21,6.31,13.69,13.69,0,0,1,1.8,6.8V62.82a13.79,13.79,0,1,1-27.57,0V37a91.45,91.45,0,0,0-30.79,68.52V136h94.57Z"/><path class="cls-11" d="M92.54,136H86.49a10.19,10.19,0,0,0,0,20.38H187.11V136Z"/><path class="cls-12" d="M287.71,136H187.11v20.38h100.6a10.19,10.19,0,0,0,0-20.38Z"/><path class="cls-12" d="M187.11,0V102.08a13.79,13.79,0,0,0,13.78-13.79V13.79A13.79,13.79,0,0,0,187.11,0Z"/><path class="cls-11" d="M187.1,0a13.79,13.79,0,0,0-13.79,13.79V88.29a13.79,13.79,0,0,0,13.79,13.79h0V0Z"/><path class="cls-12" d="M237.09,13.79a13.81,13.81,0,0,0-13.79,13.79V62.82a13.79,13.79,0,0,0,27.57,0V27.58A13.79,13.79,0,0,0,237.09,13.79Z"/><path class="cls-11" d="M149.1,20.77a13.78,13.78,0,0,0-25.77,6.8V62.82a13.79,13.79,0,1,0,27.57,0V27.58A13.69,13.69,0,0,0,149.1,20.77Z"/><path class="cls-13" d="M73.37,327.15V461A18.3,18.3,0,1,0,110,461V315.51Z"/><circle class="cls-14" cx="91.67" cy="460.12" r="8.86"/><path class="cls-13" d="M302.42,327.15V461a18.3,18.3,0,1,1-36.61,0V315.51Z"/><circle class="cls-14" cx="284.12" cy="460.12" r="8.86"/></g></g></svg>