<svg xmlns="http://www.w3.org/2000/svg" xmlns:xlink="http://www.w3.org/1999/xlink" viewBox="0 0 420.62 234.18"><defs><style>.cls-1{fill:url(#linear-gradient);}.cls-2{fill:#fbce2d;}.cls-3{fill:#282f39;}.cls-4{fill:url(#linear-gradient-2);}.cls-5{fill:url(#linear-gradient-3);}.cls-6{fill:#fff;opacity:0.8;}</style><linearGradient id="linear-gradient" x1="280.99" y1="121.78" x2="24.6" y2="121.78" gradientUnits="userSpaceOnUse"><stop offset="0" stop-color="#ffba3f"/><stop offset="0.2" stop-color="#ff9537"/><stop offset="0.43" stop-color="#ff712f"/><stop offset="0.65" stop-color="#ff5729"/><stop offset="0.85" stop-color="#ff4825"/><stop offset="1" stop-color="#ff4224"/></linearGradient><linearGradient id="linear-gradient-2" x1="97" y1="98.59" x2="0" y2="98.59" xlink:href="#linear-gradient"/><linearGradient id="linear-gradient-3" x1="157.24" y1="-2225.12" x2="57.96" y2="-2225.12" gradientTransform="matrix(1, 0, 0, -1, 0, -2202.79)" xlink:href="#linear-gradient"/></defs><title>fast</title><g id="Layer_2" data-name="Layer 2"><g id="Layer_1-2" data-name="Layer 1"><path class="cls-1" d="M218.83,122.1A62.16,62.16,0,0,1,281,59.95V32.37S242.56,28.72,210,38.91s-50.55-3.59-50.55-3.59,7.84,19.79,31.76,28.95c0,0-20,8.69-69.41-7.55S24.6,73.58,24.6,73.58,80,70.46,113.26,109c34.94,40.47,38.92,46.68,78,61.63,0,0-12.94,18.56-58.43,9.3,0,0,43,31.9,148.16,31.9V184.26A62.16,62.16,0,0,1,218.83,122.1Z"/><path class="cls-2" d="M223.54,98.34a61.89,61.89,0,0,1,3.82-7.66C218.65,90,214,86.47,214,86.47A31.83,31.83,0,0,0,223.54,98.34Z"/><path class="cls-2" d="M281,184.26A62.15,62.15,0,0,1,223.32,98.9c-6.47-1.86-16.63-2.92-31.49.16-26.84,5.57-61.51-12.43-61.51-12.43S164.55,137,195,134.27c31.34-2.76,28.6,56.06,90.48,56.06v-6.25C284,184.18,282.5,184.26,281,184.26Z"/><path class="cls-3" d="M420.62,90.33,412,64.7l-31.07,1.6a88.91,88.91,0,0,0-17-19.41l5.72-30.59-24.25-12L324.53,27.4a88.9,88.9,0,0,0-25.74-1.73L281.22,0,255.58,8.66l1.6,31.07a88.9,88.9,0,0,0-19.41,17L207.18,51l-12,24.25,23.11,20.85a88.91,88.91,0,0,0-1.73,25.74l-25.67,17.58L199.55,165l31.07-1.6a88.91,88.91,0,0,0,17,19.41l-5.72,30.59,24.25,12L287,202.34a88.9,88.9,0,0,0,25.73,1.73l17.58,25.67,25.63-8.66L354.33,190a88.9,88.9,0,0,0,19.41-17l30.59,5.72,12-24.25-23.11-20.85A88.91,88.91,0,0,0,395,107.91ZM321.31,160.9a48.59,48.59,0,1,1,30.48-61.59A48.59,48.59,0,0,1,321.31,160.9Z"/><path class="cls-4" d="M97,111.71s-16,1-36.5-16.11S17.5,79.27,0,90.15c0,0,21-7.6,39,12.64S97,111.71,97,111.71Z"/><path class="cls-5" d="M157.24,22.44s-15.22,5-39.41-6.18S72.08,11.52,58,26.54c0,0,18.34-12.75,40.94,2.19S157.24,22.44,157.24,22.44Z"/><path class="cls-6" d="M322.67,234.18a23,23,0,0,0-19.21-10.33c-.72,0-1.44,0-2.14.1a30.72,30.72,0,0,0-38.07-8.09,37.73,37.73,0,0,0-71.74,16.32q0,1,.05,2Z"/><path class="cls-6" d="M279.17,234.18a28.15,28.15,0,0,0-23.51-12.64c-.88,0-1.76,0-2.62.13a37.58,37.58,0,0,0-46.58-9.9,46.17,46.17,0,0,0-87.78,20q0,1.23.07,2.45Z"/></g></g></svg>