<?xml version="1.0" encoding="utf-8"?>
<!-- Generator: Adobe Illustrator 21.1.0, SVG Export Plug-In . SVG Version: 6.00 Build 0)  -->
<svg version="1.1" id="Layer_1" xmlns="http://www.w3.org/2000/svg" xmlns:xlink="http://www.w3.org/1999/xlink" x="0px" y="0px"
	 viewBox="0 0 314.4 314.4" style="enable-background:new 0 0 314.4 314.4;" xml:space="preserve">
<style type="text/css">
	.st0{fill:#CE7C05;}
	.st1{fill:#FDB128;}
	.st2{fill:#F9B84E;}
	.st3{fill:#FFFFFF;}
	.st4{fill:#FB9B00;}
	.st5{opacity:0.47;fill:#CE7C05;}
</style>
<g id="XMLID_29_">
	<g id="XMLID_19_">
		
			<rect id="XMLID_4_" x="146.9" y="37.2" transform="matrix(0.866 -0.5 0.5 0.866 -57.5399 99.6623)" class="st0" width="20.6" height="240"/>
		
			<rect id="XMLID_12_" x="146.9" y="37.2" transform="matrix(6.123234e-17 -1 1 6.123234e-17 -3.971244e-06 314.4031)" class="st0" width="20.6" height="240"/>
		
			<rect id="XMLID_13_" x="146.9" y="37.2" transform="matrix(-0.866 -0.5 0.5 -0.866 214.7409 371.9431)" class="st0" width="20.6" height="240"/>
	</g>
	<path id="XMLID_7_" class="st1" d="M314.4,169.2v-24H297c-0.4-4.3-0.9-8.5-1.6-12.6l16.8-4.5l-6.2-23.2l-16.7,4.5
		c-1.5-4-3.1-7.9-4.9-11.8l15-8.7l-12-20.8l-15,8.7c-2.4-3.5-5-6.9-7.8-10.1l12.3-12.3l-17-17l-12.3,12.3c-3.2-2.7-6.6-5.3-10.1-7.8
		l8.7-15l-20.8-12l-8.7,15c-3.8-1.8-7.8-3.4-11.8-4.9l4.5-16.7l-23.2-6.2L181.8,19c-4.1-0.7-8.4-1.3-12.6-1.6V0h-24v17.4
		c-4.3,0.4-8.5,0.9-12.6,1.6l-4.5-16.8l-23.2,6.2l4.5,16.7c-4,1.5-7.9,3.1-11.8,4.9l-8.7-15l-20.8,12l8.7,15
		c-3.5,2.4-6.9,5-10.1,7.8L54.5,37.6l-17,17l12.3,12.3c-2.7,3.2-5.3,6.6-7.7,10.1l-15-8.7L15.1,89l15,8.7c-1.8,3.8-3.4,7.8-4.9,11.8
		l-16.7-4.5l-6.2,23.2l16.8,4.5c-0.7,4.1-1.3,8.4-1.6,12.6H0v24h17.4c0.4,4.3,0.9,8.5,1.6,12.6l-16.8,4.5l6.2,23.2l16.7-4.5
		c1.5,4,3.1,7.9,4.9,11.8l-15,8.7l12,20.8l15-8.7c2.4,3.5,5,6.9,7.7,10.1l-12.3,12.3l17,17l12.3-12.3c3.2,2.7,6.6,5.3,10.1,7.7
		l-8.7,15l20.8,12l8.7-15c3.8,1.8,7.8,3.4,11.8,4.9l-4.5,16.7l23.2,6.2l4.5-16.8c4.1,0.7,8.4,1.3,12.6,1.6v17.4h24V297
		c4.3-0.4,8.5-0.9,12.6-1.6l4.5,16.8l23.2-6.2l-4.5-16.7c4-1.5,7.9-3.1,11.8-4.9l8.7,15l20.8-12l-8.7-15c3.5-2.4,6.9-5,10.1-7.7
		l12.3,12.3l17-17l-12.3-12.3c2.7-3.2,5.3-6.6,7.8-10.1l15,8.7l12-20.8l-15-8.7c1.8-3.8,3.4-7.8,4.9-11.8l16.7,4.5l6.2-23.2
		l-16.8-4.5c0.7-4.1,1.3-8.4,1.6-12.6H314.4z M157.2,277.7c-66.5,0-120.5-53.9-120.5-120.5c0-66.5,53.9-120.5,120.5-120.5
		s120.5,53.9,120.5,120.5C277.7,223.7,223.7,277.7,157.2,277.7z"/>
	<path id="XMLID_10_" class="st0" d="M157.2,36.7c-66.5,0-120.5,53.9-120.5,120.5c0,66.5,53.9,120.5,120.5,120.5
		s120.5-53.9,120.5-120.5C277.7,90.7,223.7,36.7,157.2,36.7z M157.2,266.6c-60.4,0-109.4-49-109.4-109.4
		c0-60.4,49-109.4,109.4-109.4s109.4,49,109.4,109.4C266.6,217.6,217.6,266.6,157.2,266.6z"/>
	<circle id="XMLID_11_" class="st2" cx="157.2" cy="157.2" r="75.2"/>
	<g id="XMLID_15_">
		<circle id="XMLID_8_" class="st3" cx="158.1" cy="110.1" r="5.6"/>
		<circle id="XMLID_14_" class="st3" cx="158.1" cy="203" r="5.6"/>
	</g>
	<g id="XMLID_20_">
		
			<ellipse id="XMLID_22_" transform="matrix(0.7071 -0.7071 0.7071 0.7071 -50.7884 124.7607)" class="st3" cx="125.2" cy="123.7" rx="5.6" ry="5.6"/>
		
			<ellipse id="XMLID_21_" transform="matrix(0.7071 -0.7071 0.7071 0.7071 -78.0186 190.5004)" class="st3" cx="190.9" cy="189.4" rx="5.6" ry="5.6"/>
	</g>
	<g id="XMLID_23_">
		<circle id="XMLID_25_" class="st3" cx="111.6" cy="156.6" r="5.6"/>
		<circle id="XMLID_24_" class="st3" cx="204.6" cy="156.6" r="5.6"/>
	</g>
	<g id="XMLID_26_">
		
			<ellipse id="XMLID_28_" transform="matrix(0.7071 -0.7071 0.7071 0.7071 -97.2733 144.0159)" class="st3" cx="125.2" cy="189.4" rx="5.6" ry="5.6"/>
		
			<ellipse id="XMLID_27_" transform="matrix(0.7071 -0.7071 0.7071 0.7071 -31.5338 171.2458)" class="st3" cx="190.9" cy="123.7" rx="5.6" ry="5.6"/>
	</g>
	<path id="XMLID_18_" class="st4" d="M157.2,91.1c-36.5,0-66.1,29.6-66.1,66.1s29.6,66.1,66.1,66.1c36.5,0,66.1-29.6,66.1-66.1
		S193.7,91.1,157.2,91.1z M157.2,216.3c-32.6,0-59.1-26.5-59.1-59.1s26.5-59.1,59.1-59.1s59.1,26.5,59.1,59.1
		S189.8,216.3,157.2,216.3z"/>
	<circle id="XMLID_2_" class="st0" cx="157.2" cy="157.2" r="34.2"/>
	<path id="XMLID_65_" class="st5" d="M314.4,169.2v-24H297c-0.4-4.3-0.9-8.5-1.6-12.6l16.8-4.5l-6.2-23.2l-16.7,4.5
		c-1.5-4-3.1-7.9-4.9-11.8l15-8.7l-12-20.8l-15,8.7c-2.4-3.5-5-6.9-7.8-10.1l12.3-12.3l-17-17l-12.3,12.3c-3.2-2.7-6.6-5.3-10.1-7.8
		l8.7-15l-20.8-12l-8.7,15c-3.8-1.8-7.8-3.4-11.8-4.9l4.5-16.7l-23.2-6.2L181.8,19c-4.1-0.7-8.4-1.3-12.6-1.6V0h-13.8v47.9
		c0.6,0,1.2-0.1,1.8-0.1c16.2,0,31.7,3.6,45.5,9.9l-17.2,29.8c-8.7-3.6-18.3-5.5-28.3-5.5c-0.6,0-1.2,0.1-1.8,0.1v150.2
		c0.6,0,1.2,0.1,1.8,0.1c10,0,19.6-2,28.3-5.5l17.2,29.8c-13.9,6.4-29.3,9.9-45.5,9.9c-0.6,0-1.2,0-1.8-0.1v47.9h13.8V297
		c4.3-0.4,8.5-0.9,12.6-1.6l4.5,16.8l23.2-6.2l-4.5-16.7c4-1.5,7.9-3.1,11.8-4.9l8.7,15l20.8-12l-8.7-15c3.5-2.4,6.9-5,10.1-7.8
		l12.3,12.3l17-17l-12.3-12.3c2.7-3.2,5.3-6.6,7.8-10.1l15,8.7l12-20.8l-15-8.7c1.8-3.8,3.4-7.8,4.9-11.8l16.7,4.5l6.2-23.2
		l-16.8-4.5c0.7-4.1,1.3-8.4,1.6-12.6H314.4z M220.6,246.3l-17.2-29.8c15.1-11.8,25.6-29.1,28.3-49h34.4
		C263.1,200,245.8,228.4,220.6,246.3z M231.7,146.9c-2.7-19.9-13.2-37.2-28.3-49l17.2-29.8c25.2,18,42.5,46.3,45.5,78.8H231.7z"/>
</g>
</svg>
