<?xml version="1.0" encoding="utf-8"?>
<!-- Generator: Adobe Illustrator 21.1.0, SVG Export Plug-In . SVG Version: 6.00 Build 0)  -->
<svg version="1.1" id="Layer_1" xmlns="http://www.w3.org/2000/svg" xmlns:xlink="http://www.w3.org/1999/xlink" x="0px" y="0px"
	 viewBox="0 0 603.1 353.3" style="enable-background:new 0 0 603.1 353.3;" xml:space="preserve">
<style type="text/css">
	.st0{fill:#DFE0E1;}
	.st1{fill:#BBBDBF;}
	.st2{fill:#D3D4D6;}
	.st3{fill:#EDEDEE;}
	.st4{fill:#AAACAF;}
	.st5{fill:#989A9D;}
	.st6{fill:#BE1E2D;}
	.st7{fill:#353435;}
	.st8{fill:#4E4F51;}
	.st9{fill:#404041;}
	.st10{fill:#D2413F;}
	.st11{fill:#93111D;}
</style>
<title>hammer</title>
<g id="Layer_2">
	<g id="Layer_1-2">
		<g id="_Group_">
			<g id="_Group_2">
				
					<rect id="_Path_" x="54.4" y="310.4" transform="matrix(0.9433 -0.332 0.332 0.9433 -102.9576 49.2243)" class="st0" width="76.3" height="31.1"/>
				<path id="_Path_2" class="st1" d="M30.8,265.4l49.8-17.5c-1.3,27,9.6,46.8,20.6,58.5l-49.8,17.5
					C60.2,305.2,60.4,281.6,30.8,265.4z"/>
				<path id="_Path_3" class="st2" d="M37.9,23.1c2.2,1.1,2.4,8.8,2.4,8.8c0,0.2,0,0.3-0.1,0.5c-12.8,60-7.7,110.9,36.6,133.2
					L103,240l-72,25.3L4.8,190.8C4.6,190.9-18.4,115.8,37.9,23.1z"/>
				<path id="_Path_4" class="st3" d="M37.9,23.1c2.2,1.1,2.4,8.8,2.4,8.8c0,0.2,0,0.3-0.1,0.5c-12.8,60-7.7,110.9,36.6,133.2
					l-72,25.3C4.6,190.9-18.4,115.8,37.9,23.1z"/>
				<path id="_Path_5" class="st4" d="M40.1,32.4c-12.8,60-7.7,110.9,36.5,133.2l-62.8,22.1C13.8,187.7-4.4,110.6,40.1,32.4z"/>
				
					<rect id="_Path_6" x="56.4" y="321.8" transform="matrix(0.9433 -0.332 0.332 0.9433 -108.6037 39.0742)" class="st3" width="7.3" height="31.1"/>
				
					<rect id="_Path_7" x="17.4" y="187.1" transform="matrix(0.9433 -0.332 0.332 0.9433 -73.9457 20.2554)" class="st3" width="9.7" height="78.9"/>
				
					<rect id="_Path_8" x="82.6" y="164.6" transform="matrix(0.9433 -0.332 0.332 0.9433 -62.845 40.2066)" class="st1" width="7.3" height="78.9"/>
				
					<rect id="_Path_9" x="63.2" y="318.8" transform="matrix(0.9433 -0.332 0.332 0.9433 -107.1198 41.7475)" class="st2" width="10.8" height="31.1"/>
				
					<rect id="_Path_10" x="105.1" y="301.7" transform="matrix(0.9433 -0.332 0.332 0.9433 -98.6902 56.8943)" class="st1" width="24.2" height="31.1"/>
				<path id="_Path_11" class="st5" d="M80.6,247.9l22.2-7.8c-12.9,31.1,2.1,49.5,20.6,58.5l-22.2,7.8
					C90,294.8,79.3,274.9,80.6,247.9z"/>
				<path id="_Path_12" class="st1" d="M37.8,262.9l42.8-15.1c-1.3,27,9.6,46.8,20.6,58.5l-42.8,15.1
					C64.5,303.7,63.2,280.6,37.8,262.9z"/>
				<path id="_Path_13" class="st4" d="M48,259.3l32.6-11.5c-1.3,27,9.6,46.8,20.6,58.5l-32.6,11.5C69.8,301.9,65.9,279.6,48,259.3z
					"/>
				<path id="_Path_14" class="st5" d="M40.1,32.4c-12.8,60-7.7,110.9,36.5,133.2l-22.2,7.8C54.4,173.4,10.4,136.4,40.1,32.4z"/>
			</g>
			<path id="_Compound_Path_" class="st6" d="M99.3,230L595.8,55.3c5.6-2,8.6-8.2,6.6-13.8L590.3,7.2c-2-5.6-8.2-8.6-13.8-6.6
				L80.1,175.4L99.3,230z M538.9,34.2l12-4.2c5.2-1.8,10.9,0.9,12.7,6.1c1.8,5.2-0.9,10.9-6.1,12.7l0,0l-12.2,4.3
				c-5.2,1.8-10.8-0.9-12.7-6c0,0,0,0,0-0.1c-0.9-2.5-0.7-5.3,0.5-7.7c1.1-2.5,3.2-4.4,5.8-5.2L538.9,34.2z"/>
			<polygon id="_Path_15" class="st7" points="76.6,165.6 111.3,164.4 117.5,182.1 85.1,189.7 			"/>
			<polygon id="_Path_16" class="st8" points="126.6,208 130.6,219.3 102.8,240 97.4,224.7 			"/>
			<path id="_Compound_Path_2" class="st9" d="M510.5,85.3l85.3-30c5.6-2,8.6-8.2,6.6-13.8L590.3,7.2c-2-5.6-8.2-8.6-13.8-6.6
				l-85.3,30L510.5,85.3z M538.9,34.2l12-4.2c5.2-1.8,10.9,0.9,12.7,6.1c1.8,5.2-0.9,10.9-6.1,12.7l0,0l-12.2,4.3
				c-5.2,1.8-10.8-0.9-12.7-6c0,0,0,0,0-0.1c-0.9-2.5-0.7-5.3,0.5-7.7c1.1-2.5,3.2-4.4,5.8-5.2L538.9,34.2z"/>
			<polygon id="_Path_17" class="st9" points="85.1,189.7 117.5,182.1 126.6,208 97.4,224.7 			"/>
			
				<rect id="_Path_18" x="117.2" y="140.8" transform="matrix(0.9433 -0.332 0.332 0.9433 -30.656 114.1023)" class="st10" width="402.9" height="11.9"/>
			<path id="_Path_19" class="st8" d="M506.7,74.3l95.5-33.6l0.4,1c2,5.6-1,11.8-6.6,13.8l-85.3,30L506.7,74.3z"/>
			
				<rect id="_Path_20" x="103" y="97" transform="matrix(0.9433 -0.332 0.332 0.9433 -18.0526 107.0956)" class="st11" width="402.9" height="18.8"/>
			<path id="_Path_21" class="st7" d="M491.3,30.6l85.3-30c5.6-2,11.8,1,13.8,6.6l2.6,7.5l-95.5,33.6L491.3,30.6z"/>
		</g>
	</g>
</g>
</svg>
