<?xml version="1.0" encoding="utf-8"?>
<!-- Generator: Adobe Illustrator 21.1.0, SVG Export Plug-In . SVG Version: 6.00 Build 0)  -->
<svg version="1.1" id="Layer_1" xmlns="http://www.w3.org/2000/svg" xmlns:xlink="http://www.w3.org/1999/xlink" x="0px" y="0px"
	 viewBox="0 0 856.2 405.9" style="enable-background:new 0 0 856.2 405.9;" xml:space="preserve">
<style type="text/css">
	.st0{fill:#FFD200;}
	.st1{fill:#231F20;}
	.st2{fill:#FFF100;}
	.st3{fill:#FDBC11;}
	.st4{fill:#454547;}
	.st5{fill:#515254;}
	.st6{fill:#B7D333;}
	.st7{fill:#D8DF21;}
	.st8{fill:#EFEC79;}
	.st9{fill:#404041;}
	.st10{fill:#FFFFFF;}
	.st11{fill:#FFF7A6;}
	.st12{fill:#E7E983;}
	.st13{fill:#AC7D47;}
</style>
<title>level</title>
<g id="Layer_2_1_">
	<g id="Layer_1-2_1_">
		<g id="_Group__1_">
			<g id="_Group_2_1_">
				<path id="_Path__1_" class="st0" d="M813.9,0l42.2,120.5L42.2,405.9L0,285.4l348-122l11.1,31.8c2.8,8.1,11.7,12.4,19.8,9.5
					c0,0,0,0,0,0l88.6-31.1c8.1-2.8,12.4-11.7,9.5-19.8c0,0,0,0,0,0L466,122L813.9,0z"/>
				
					<rect id="_Rectangle_" x="808.8" y="0.9" transform="matrix(0.9437 -0.3309 0.3309 0.9437 24.8934 275.7185)" class="st1" width="27.1" height="127.6"/>
				
					<rect id="_Path_2_1_" x="17" y="219.8" transform="matrix(0.9437 -0.3309 0.3309 0.9437 -63.1918 74.7055)" class="st2" width="341.7" height="6.4"/>
				
					<rect id="_Path_3_1_" x="457.4" y="65.3" transform="matrix(0.9437 -0.3309 0.3309 0.9437 12.7095 211.7302)" class="st2" width="341.7" height="6.4"/>
				
					<rect id="_Rectangle_2" x="44" y="256.9" transform="matrix(0.9437 -0.3309 0.3309 0.9437 -60.8347 162.9336)" class="st3" width="808.4" height="6.4"/>
				
					<rect id="_Rectangle_3" x="20.4" y="277.3" transform="matrix(0.9437 -0.3309 0.3309 0.9437 -110.9742 30.4308)" class="st1" width="27.1" height="127.6"/>
				
					<rect id="_Rectangle_4" x="20.9" y="280.5" transform="matrix(0.9437 -0.3309 0.3309 0.9437 -112.5208 27.6335)" class="st4" width="8" height="127.6"/>
				
					<rect id="_Rectangle_5" x="8.1" y="279.4" transform="matrix(0.9437 -0.3309 0.3309 0.9437 -92.5234 21.7517)" class="st4" width="19" height="6.4"/>
				
					<rect id="_Rectangle_6" x="788.7" y="4.3" transform="matrix(0.9437 -0.3309 0.3309 0.9437 42.6923 265.8609)" class="st4" width="27.1" height="6.4"/>
				
					<rect id="_Rectangle_7" x="829.9" y="3.7" transform="matrix(0.9437 -0.3309 0.3309 0.9437 25.6391 279.2604)" class="st4" width="6.4" height="121.2"/>
				<g id="_Group_3">
					<g id="_Group_4">
						<path id="_Path_4_1_" class="st1" d="M216.5,244.5c6.2,2.3,11.7,6,16,10.9c0.9,1,1.7,2,2.5,3.1c0.7,0.9,1.3,1.9,1.9,2.9
							c0.6,1.1,1.3,2.2,1.8,3.4c0.6,1.3,1.1,2.6,1.6,3.9c0.9,2.5,1.5,5.1,1.9,7.8c0.3,2.5,0.4,5,0.3,7.5
							c-0.9,16.1-11.4,30.1-26.6,35.4l-0.9,0.3c14.7-5.6,24.7-19.3,25.6-35c0.1-2.5,0-5-0.3-7.5c-0.4-2.6-1-5.3-1.9-7.8
							c-0.5-1.3-1-2.6-1.6-3.9c-0.6-1.2-1.2-2.3-1.8-3.4c-0.6-1-1.2-2-1.9-2.9c-0.8-1.1-1.6-2.1-2.5-3.1
							c-10.5-11.7-26.9-16.2-41.9-11.4l0.9-0.4C198.4,241.3,207.9,241.4,216.5,244.5"/>
						<g id="_Group_5">
							<path id="_Path_5_1_" class="st5" d="M247.4,266.3c1.7,4.9,2.6,10,2.7,15.1c0.2,20.2-12.5,38.3-31.6,45
								c-0.4,0.1-0.7,0.2-1.1,0.3c-18.8,6.1-39.5-0.2-51.7-15.8c-3.2-4.1-5.7-8.6-7.4-13.5c-0.5-1.3-0.9-2.7-1.2-4
								c-0.3-1.2-0.6-2.5-0.8-3.7s-0.3-2.3-0.4-3.4c-0.1-1.3-0.2-2.6-0.2-3.9c-0.2-19.8,12-37.6,30.5-44.6c0.3-0.1,0.7-0.3,1-0.4
								c19.1-6.7,40.3-0.5,52.7,15.4c0.8,1,1.6,2.1,2.3,3.2c0.6,1,1.2,1.9,1.8,2.9c0.5,1,1.2,2.2,1.7,3.4
								C246.3,263.5,246.9,265,247.4,266.3z"/>
							<path id="_Path_6_1_" class="st1" d="M245.3,267c1.7,4.9,2.6,10,2.7,15.1c0.2,19.8-12,37.6-30.5,44.6
								c-18.8,6.1-39.5-0.2-51.7-15.8c-3.2-4.1-5.7-8.6-7.4-13.5c-0.5-1.3-0.9-2.7-1.2-4c-0.3-1.2-0.6-2.5-0.8-3.7
								c-0.2-1.3-0.3-2.3-0.4-3.4c-0.1-1.3-0.2-2.6-0.2-3.9c-0.2-19.8,12-37.6,30.5-44.6c18.8-6.1,39.5,0.2,51.7,15.8
								c0.8,1,1.6,2.1,2.3,3.2c0.6,1,1.2,1.9,1.8,2.9c0.5,1,1.2,2.2,1.7,3.4C244.2,264.3,244.8,265.7,245.3,267z"/>
							<path id="_Path_7_1_" class="st5" d="M215.1,319.8l-1,0.4c-15.2,5.3-32.1,1-42.9-11.1c-1.7-1.9-3.2-3.9-4.4-6
								c-1.4-2.3-2.5-4.7-3.4-7.3c-0.5-1.3-0.9-2.7-1.2-4c-0.3-1.3-0.5-2.5-0.7-3.8c-0.2-1.1-0.3-2.3-0.3-3.5c-0.1-1.3-0.1-2.7,0-4
								c0.9-16.1,11.4-30.1,26.6-35.4l1-0.3c-14.7,5.6-24.7,19.3-25.6,35.1c-0.1,1.3-0.1,2.7,0,4c0,1.2,0.1,2.3,0.3,3.5
								c0.2,1.3,0.4,2.5,0.7,3.8c0.3,1.4,0.7,2.7,1.2,4c0.9,2.5,2,5,3.4,7.3c1.3,2.1,2.8,4.2,4.4,6
								C183.6,320.1,200.1,324.6,215.1,319.8z"/>
						</g>
						<g id="_Group_6">
							<g id="_Group_7">
								<path id="_Path_8_1_" class="st6" d="M216,319.4c-2.5,0.9-5.1,1.5-7.8,1.9c-2.5,0.3-5,0.4-7.5,0.3l-24.3-69.4
									c1.9-1.7,3.9-3.2,6-4.4c2.3-1.4,4.7-2.5,7.3-3.4c1.3-0.5,2.7-0.9,4-1.2c1.3-0.3,2.5-0.5,3.8-0.7c1.1-0.2,2.3-0.3,3.5-0.3
									c1.3-0.1,2.7-0.1,4,0l24.3,69.4c-1,0.9-2,1.7-3.1,2.5c-0.9,0.7-1.9,1.3-2.9,1.9c-1.1,0.6-2.2,1.3-3.4,1.8
									C218.7,318.4,217.4,319,216,319.4z"/>
								<g id="_Group_8">
									<path id="_Path_9_1_" class="st7" d="M216,319.4c-2.5,0.9-5.1,1.5-7.8,1.9l-25.8-73.5c2.3-1.4,4.7-2.5,7.3-3.4
										c1.3-0.5,2.7-0.9,4-1.2c1.3-0.3,2.5-0.5,3.8-0.7l25.8,73.5c-1.1,0.6-2.2,1.3-3.4,1.8C218.7,318.4,217.4,319,216,319.4z"/>
								</g>
								<path id="_Path_10_1_" class="st8" d="M219.9,317.8l-26.2-74.7c1.3-0.3,2.5-0.5,3.8-0.7c1.1-0.2,2.3-0.3,3.5-0.3l25.2,72
									c-0.9,0.7-1.9,1.3-2.9,1.9C222.2,316.7,221.1,317.3,219.9,317.8z"/>
							</g>
							<g id="_Group_9">
								<g id="_Group_10">
									
										<rect id="_Path_11_1_" x="181.9" y="264.8" transform="matrix(0.9437 -0.3309 0.3309 0.9437 -76.6986 80.1524)" class="st9" width="30.3" height="1.2"/>
								</g>
								<g id="_Group_11">
									
										<rect id="_Path_12_1_" x="193.5" y="297.8" transform="matrix(0.9437 -0.3309 0.3309 0.9437 -86.9903 85.8507)" class="st9" width="30.3" height="1.2"/>
								</g>
							</g>
							<g id="_Group_12">
								<path id="_Compound_Path__1_" class="st9" d="M202.1,295.2c-1.6-0.8-2.8-2.1-3.4-3.8l-5-14.3c-1.2-3.5,0.6-7.3,4.1-8.5
									l0.8-0.3c3.5-1.2,7.3,0.6,8.5,4.1l5,14.3c1.2,3.5-0.6,7.3-4.1,8.5l-0.8,0.3C205.5,296.1,203.7,296,202.1,295.2z M199.8,291
									c1,2.9,4.1,4.4,7,3.4c0,0,0,0,0,0l0.8-0.3c2.9-1,4.4-4.1,3.4-7c0,0,0,0,0,0l-5-14.3c-1-2.9-4.1-4.4-7-3.4c0,0,0,0,0,0
									l-0.8,0.3c-2.9,1-4.4,4.1-3.4,7c0,0,0,0,0,0L199.8,291z"/>
							</g>
							<g id="_Group_13">
								<path id="_Path_13_1_" class="st10" d="M195.8,259.7c-4.9,1.7-9.9,0.2-11.2-3.5c-0.1-0.2-0.1-0.4-0.2-0.6
									c-0.8-3.5,2.1-7.5,6.8-9.1c4.6-1.6,9.4-0.3,11,2.9c0.1,0.2,0.2,0.4,0.3,0.6C203.7,253.7,200.7,258,195.8,259.7z"/>
								<path id="_Path_14_1_" class="st6" d="M184.4,255.6c-0.1-0.2-0.2-0.4-0.3-0.6c-1.3-3.6,1.7-8,6.6-9.7s9.9-0.2,11.2,3.5
									c0.1,0.2,0.1,0.4,0.2,0.6c-1.6-3.2-6.3-4.5-11-2.9C186.5,248.2,183.7,252.1,184.4,255.6z"/>
								<path id="_Path_15_1_" class="st11" d="M195.4,258.5c-2.8,1.1-5.9,0.9-8.5-0.4c-1-0.6-1.9-1.4-2.4-2.5
									c-0.8-3.5,2.1-7.5,6.8-9.1c4.6-1.6,9.4-0.3,11,2.9c0.2,1.2,0.1,2.4-0.3,3.4C200.6,255.6,198.2,257.6,195.4,258.5z"/>
								<path id="_Path_16_1_" class="st12" d="M195.4,258.5c-1,0.4-2.1,0.6-3.2,0.7c-1.9,0.1-3.5-1.3-3.6-3.2
									c-0.1-1.1,0.4-2.1,1.2-2.8c1.9-1.5,4.3-2.4,6.7-2.3c1.9,0.1,3.4,1.7,3.3,3.5c0,1.1-0.6,2.1-1.5,2.7
									C197.4,257.7,196.4,258.2,195.4,258.5z"/>
								
									<ellipse id="_Path_17_1_" transform="matrix(0.9436 -0.3311 0.3311 0.9436 -71.2167 78.1344)" class="st10" cx="193.7" cy="248.1" rx="3.1" ry="1.3"/>
							</g>
						</g>
					</g>
					<g id="_Group_14">
						<path id="_Path_18_1_" class="st5" d="M698.5,108.1c1.7,4.9,2.6,10,2.7,15.1c0.2,20.2-12.5,38.3-31.6,45
							c-0.4,0.1-0.7,0.2-1.1,0.3c-18.8,6.1-39.5-0.2-51.7-15.8c-3.2-4.1-5.7-8.6-7.4-13.5c-0.5-1.3-0.9-2.7-1.2-4
							c-0.3-1.2-0.6-2.5-0.8-3.7c-0.2-1.3-0.3-2.3-0.4-3.4c-0.1-1.3-0.2-2.6-0.2-3.9c-0.2-19.8,12-37.6,30.5-44.6
							c0.3-0.1,0.7-0.3,1-0.4c19.1-6.7,40.3-0.5,52.7,15.4c0.8,1,1.6,2.1,2.3,3.2c0.6,1,1.2,1.9,1.8,2.9s1.2,2.2,1.7,3.4
							C697.5,105.4,698.1,106.8,698.5,108.1z"/>
						<path id="_Path_19_1_" class="st1" d="M696.4,108.8c1.7,4.9,2.6,10,2.7,15.1c0.8,25.2-18.9,46.3-44.1,47.1
							c-14.9,0.5-29.1-6.3-38.1-18.3c-3.2-4.1-5.7-8.6-7.4-13.5c-0.5-1.3-0.9-2.7-1.2-4c-0.3-1.2-0.6-2.5-0.8-3.7
							c-0.2-1.3-0.3-2.3-0.4-3.4c-0.1-1.3-0.2-2.6-0.2-3.9C606.1,99,625.8,77.9,651,77c14.9-0.5,29.1,6.3,38.1,18.3
							c0.8,1,1.6,2.1,2.3,3.2c0.6,1,1.2,1.9,1.8,2.9c0.5,1,1.2,2.2,1.7,3.4C695.4,106.1,696,107.5,696.4,108.8z"/>
						<path id="_Path_20_1_" class="st1" d="M667.7,86.3c6.2,2.3,11.7,6,16.1,10.9c0.9,1,1.7,2,2.5,3.1c0.7,0.9,1.3,1.9,1.9,2.9
							c0.6,1.1,1.3,2.2,1.8,3.4c0.6,1.3,1.1,2.6,1.6,3.9c0.9,2.5,1.5,5.1,1.9,7.8c0.3,2.5,0.4,5,0.3,7.5
							c-0.9,16.1-11.4,30.1-26.6,35.4l-0.9,0.3c14.7-5.6,24.7-19.3,25.6-35c0.1-2.5,0-5-0.3-7.5c-0.4-2.6-1-5.3-1.9-7.8
							c-0.5-1.3-1-2.6-1.6-3.9c-0.6-1.2-1.2-2.3-1.8-3.4c-0.6-1-1.2-2-1.9-2.9c-0.8-1.1-1.6-2.1-2.5-3.1
							c-10.5-11.7-26.9-16.2-41.9-11.4l0.9-0.4C649.6,83.1,659.1,83.2,667.7,86.3"/>
						<path id="_Path_21_1_" class="st5" d="M666.2,161.6l-1,0.4c-15.2,5.3-32.1,1-42.9-11.1c-1.7-1.9-3.2-3.9-4.4-6
							c-1.4-2.3-2.5-4.7-3.4-7.3c-0.5-1.3-0.9-2.7-1.2-4c-0.3-1.3-0.5-2.5-0.7-3.8c-0.2-1.1-0.3-2.3-0.3-3.5c-0.1-1.3-0.1-2.7,0-4
							c0.9-16.1,11.4-30.1,26.6-35.4l1-0.3c-14.7,5.6-24.7,19.3-25.6,35.1c-0.1,1.3-0.1,2.7,0,4c0,1.2,0.2,2.3,0.3,3.5
							c0.2,1.3,0.4,2.5,0.7,3.8c0.3,1.4,0.7,2.7,1.2,4c0.9,2.5,2,5,3.4,7.3c1.3,2.1,2.8,4.2,4.4,6
							C634.8,161.9,651.2,166.4,666.2,161.6z"/>
						<g id="_Group_15">
							<g id="_Group_16">
								<path id="_Path_22" class="st6" d="M636.8,159.5c2.4,1.2,4.9,2.1,7.6,2.7c2.4,0.6,4.9,1,7.4,1.1l31.9-66.3
									c-1.7-1.9-3.5-3.6-5.5-5.1c-2.1-1.6-4.4-3-6.9-4.2c-1.3-0.6-2.6-1.2-3.9-1.6c-1.2-0.4-2.4-0.8-3.7-1.1
									c-1.1-0.3-2.3-0.5-3.4-0.7c-1.3-0.2-2.7-0.4-4-0.4l-31.9,66.3c0.9,1,1.8,2,2.8,2.9c0.8,0.8,1.7,1.5,2.6,2.2
									c1,0.8,2.1,1.5,3.2,2.2C634.2,158.3,635.5,158.9,636.8,159.5z"/>
								<g id="_Group_17">
									<path id="_Path_23" class="st7" d="M636.8,159.5c2.4,1.2,4.9,2.1,7.6,2.7L678.2,92c-2.1-1.6-4.4-3-6.9-4.2
										c-1.3-0.6-2.6-1.2-3.9-1.6c-1.2-0.4-2.4-0.8-3.7-1.1l-33.8,70.3c1,0.8,2.1,1.5,3.2,2.2
										C634.3,158.2,635.5,158.9,636.8,159.5z"/>
								</g>
								<path id="_Path_24" class="st8" d="M633.1,157.5l34.3-71.3c-1.2-0.4-2.4-0.8-3.7-1.1c-1.1-0.3-2.3-0.5-3.4-0.7l-33,68.7
									c0.8,0.8,1.7,1.5,2.6,2.2C631,156.1,632,156.9,633.1,157.5z"/>
							</g>
							<g id="_Group_18">
								<g id="_Group_19">
									
										<rect id="_Path_25" x="661.1" y="92.7" transform="matrix(0.4333 -0.9012 0.9012 0.4333 277.7044 657.4643)" class="st9" width="1.2" height="30.3"/>
								</g>
								<g id="_Group_20">
									
										<rect id="_Path_26" x="645" y="122.7" transform="matrix(0.4312 -0.9023 0.9023 0.4312 242.8317 660.9561)" class="st9" width="1.2" height="30.3"/>
								</g>
							</g>
							<g id="_Group_21">
								<path id="_Compound_Path_2_1_" class="st9" d="M648.3,136.8l-0.8-0.4c-3.3-1.6-4.7-5.6-3.1-8.9l6.6-13.7
									c1.6-3.3,5.6-4.7,8.9-3.1l0.8,0.4c3.3,1.6,4.7,5.6,3.1,8.9l-6.6,13.6C655.6,137,651.6,138.4,648.3,136.8
									C648.3,136.8,648.3,136.8,648.3,136.8z M659.3,111.7c-2.7-1.3-6-0.2-7.3,2.6l-6.6,13.7c-1.3,2.7-0.2,6,2.6,7.3l0.8,0.4
									c2.7,1.3,6,0.2,7.3-2.6l6.6-13.7c1.3-2.7,0.2-6-2.6-7.3L659.3,111.7z"/>
							</g>
							<g id="_Group_22">
								<path id="_Path_27" class="st10" d="M663.5,102.5c4.7,2.3,9.9,1.3,11.5-2.2c0.1-0.2,0.2-0.4,0.2-0.6
									c1.2-3.4-1.3-7.7-5.7-9.8s-9.3-1.4-11.2,1.7c-0.1,0.2-0.2,0.4-0.3,0.6C656.4,95.6,658.8,100.2,663.5,102.5z"/>
								<path id="_Path_28" class="st6" d="M675.3,99.6c0.1-0.2,0.2-0.4,0.3-0.6c1.7-3.5-0.8-8.1-5.5-10.4
									c-4.7-2.3-9.9-1.3-11.5,2.2c-0.1,0.2-0.2,0.4-0.2,0.6c1.9-3,6.8-3.8,11.2-1.7C674,92,676.4,96.3,675.3,99.6z"/>
								<path id="_Path_29" class="st11" d="M664.1,101.3c2.6,1.4,5.7,1.6,8.5,0.5c1.1-0.4,2-1.2,2.7-2.2c1.2-3.4-1.3-7.7-5.7-9.8
									s-9.3-1.4-11.2,1.7c-0.4,1.1-0.4,2.3,0,3.5C659.2,97.8,661.3,100.1,664.1,101.3z"/>
								<path id="_Path_30" class="st12" d="M664.1,101.3c1,0.5,2,0.8,3.1,1c1.9,0.3,3.6-0.9,4-2.8c0.2-1.1-0.1-2.1-0.9-2.9
									c-1.7-1.7-4-2.8-6.4-3.1c-1.9-0.1-3.5,1.3-3.7,3.2c-0.1,1.1,0.3,2.1,1.2,2.8C662.2,100.2,663.1,100.8,664.1,101.3z"/>
								
									<ellipse id="_Path_31" transform="matrix(0.4333 -0.9012 0.9012 0.4333 296.2169 653.4818)" class="st10" cx="667.8" cy="91.2" rx="1.3" ry="3.1"/>
							</g>
						</g>
					</g>
				</g>
				<g id="_Group_23">
					<g id="_Group_24">
						<path id="_Path_32" class="st6" d="M466.2,145.7c0.9,2.5,1.5,5.1,1.9,7.8c0.3,2.5,0.4,5,0.3,7.5l-97.2,34.1
							c-1.7-1.9-3.2-3.9-4.4-6c-1.4-2.3-2.5-4.7-3.4-7.3c-0.5-1.3-0.9-2.7-1.2-4c-0.3-1.3-0.5-2.5-0.7-3.8c-0.2-1.1-0.3-2.3-0.3-3.5
							c-0.1-1.3-0.1-2.7,0-4l97.2-34.1c0.9,1,1.7,2,2.5,3.1c0.7,0.9,1.3,1.9,1.9,2.9c0.6,1.1,1.3,2.2,1.8,3.4
							C465.2,143,465.7,144.4,466.2,145.7z"/>
						<g id="_Group_25">
							<path id="_Path_33" class="st7" d="M466.2,145.7c0.9,2.5,1.5,5.1,1.9,7.8L366.7,189c-1.4-2.3-2.5-4.7-3.4-7.3
								c-0.5-1.3-0.9-2.7-1.2-4c-0.3-1.3-0.5-2.5-0.7-3.8l101.4-35.5c0.6,1.1,1.3,2.2,1.8,3.4C465.2,143.1,465.7,144.4,466.2,145.7z
								"/>
						</g>
						<path id="_Path_34" class="st8" d="M464.6,141.8l-102.5,35.9c-0.3-1.3-0.5-2.5-0.7-3.8c-0.2-1.1-0.3-2.3-0.3-3.5l99.7-35
							c0.7,0.9,1.3,1.9,1.9,2.9C463.4,139.5,464,140.6,464.6,141.8z"/>
					</g>
					<g id="_Group_26">
						<g id="_Group_27">
							
								<rect id="_Path_35" x="397.2" y="154.5" transform="matrix(0.9437 -0.3309 0.3309 0.9437 -33.7307 141.1862)" class="st9" width="1.2" height="30.3"/>
						</g>
						<g id="_Group_28">
							
								<rect id="_Path_36" x="432.1" y="142.4" transform="matrix(0.9436 -0.3311 0.3311 0.9436 -27.774 152.138)" class="st9" width="1.2" height="30.4"/>
						</g>
					</g>
					<g id="_Group_29">
						<path id="_Path_37" class="st10" d="M417.3,170.9c-4.9,1.7-9.9,0.2-11.2-3.5c-0.1-0.2-0.1-0.4-0.2-0.6
							c-0.8-3.5,2.1-7.5,6.8-9.1s9.4-0.3,11,2.9c0.1,0.2,0.2,0.4,0.3,0.6C425.1,164.8,422.2,169.2,417.3,170.9z"/>
						<path id="_Path_38" class="st6" d="M405.9,166.8c-0.1-0.2-0.2-0.4-0.3-0.6c-1.3-3.6,1.7-8,6.6-9.7c4.9-1.7,9.9-0.2,11.2,3.5
							c0.1,0.2,0.1,0.4,0.2,0.6c-1.6-3.2-6.3-4.5-11-2.9C407.9,159.3,405.1,163.3,405.9,166.8z"/>
						<path id="_Path_39" class="st11" d="M416.8,169.7c-2.8,1.1-5.9,0.9-8.6-0.4c-1-0.6-1.9-1.4-2.4-2.5c-0.8-3.5,2.1-7.5,6.8-9.1
							s9.4-0.3,11,2.9c0.2,1.2,0.1,2.4-0.3,3.4C422,166.7,419.7,168.8,416.8,169.7z"/>
						<path id="_Path_40" class="st12" d="M416.8,169.7c-1,0.4-2.1,0.6-3.2,0.7c-1.9,0.1-3.5-1.3-3.6-3.2c-0.1-1.1,0.4-2.1,1.2-2.8
							c1.9-1.5,4.3-2.4,6.7-2.3c1.9,0.1,3.4,1.7,3.3,3.5c0,1.1-0.6,2.1-1.5,2.7C418.8,168.8,417.9,169.3,416.8,169.7z"/>
						
							<ellipse id="_Path_41" transform="matrix(0.9437 -0.3309 0.3309 0.9437 -29.3485 146.0456)" class="st10" cx="414.3" cy="159.2" rx="3.1" ry="1.3"/>
					</g>
					<g id="_Group_30">
						<path id="_Compound_Path_3" class="st9" d="M404.5,172.8c-1.6-0.8-2.8-2.1-3.4-3.8l-0.3-0.8c-1.2-3.5,0.6-7.3,4.1-8.5l14.3-5
							c3.5-1.2,7.3,0.6,8.5,4.1l0.3,0.8c1.2,3.5-0.6,7.3-4.1,8.5l-14.3,5C407.9,173.7,406.1,173.6,404.5,172.8z M423.8,156
							c-1.3-0.6-2.8-0.7-4.2-0.2l-14.3,5c-2.9,1-4.4,4.1-3.4,7c0,0,0,0,0,0l0.3,0.8c1,2.9,4.1,4.4,7,3.4c0,0,0,0,0,0l14.3-5
							c2.9-1,4.4-4.1,3.4-7c0,0,0,0,0,0l-0.3-0.8C426.2,157.7,425.1,156.6,423.8,156L423.8,156z"/>
					</g>
				</g>
				<path id="_Path_42" class="st1" d="M466,122l11.1,31.8c2.8,8.1-1.4,17-9.5,19.8c0,0,0,0,0,0l-88.6,31.1
					c-8.1,2.8-17-1.4-19.8-9.5c0,0,0,0,0,0L348,163.4l0,0c7.7-2.7,16.2,1.4,18.9,9.1l4.3,12.1c1.8,5.2,7.4,7.9,12.6,6.1c0,0,0,0,0,0
					l71.4-25c5.2-1.8,7.9-7.4,6.1-12.6c0,0,0,0,0,0l-4.3-12.1C454.2,133.3,458.2,124.8,466,122C466,122,466,122,466,122z"/>
				<g id="_Group_31">
					<path id="_Path_43" class="st5" d="M115.4,312.6c0.9,2.6,1.4,5.3,1.4,8.1c0.1,10.8-6.7,20.4-16.8,24l-0.6,0.1
						c-10,3.3-21-0.1-27.6-8.4c-1.7-2.2-3-4.6-3.9-7.2c-0.3-0.7-0.5-1.4-0.7-2.1c-0.2-0.7-0.3-1.3-0.4-2c-0.1-0.6-0.2-1.2-0.2-1.8
						c-0.1-0.6-0.1-1.4-0.1-2.1c-0.1-10.6,6.4-20.1,16.3-23.8l0.6-0.2c10.2-3.6,21.5-0.3,28.1,8.2c0.4,0.6,0.8,1.1,1.2,1.8
						c0.4,0.6,0.7,1,1,1.6c0.3,0.5,0.6,1.2,0.9,1.8C114.8,311.2,115.1,311.8,115.4,312.6z"/>
					<path id="_Path_44" class="st1" d="M114.3,313c0.9,2.6,1.4,5.3,1.4,8.1c0.1,10.6-6.4,20.1-16.3,23.8c-10,3.3-21-0.1-27.6-8.4
						c-1.7-2.2-3-4.6-3.9-7.2c-0.3-0.7-0.5-1.4-0.7-2.2c-0.2-0.7-0.3-1.3-0.4-2c-0.1-0.6-0.2-1.2-0.2-1.8c-0.1-0.6-0.1-1.4-0.1-2.1
						c-0.1-10.6,6.4-20.1,16.3-23.8c10.1-3.3,21.1,0.1,27.6,8.4c0.4,0.6,0.8,1.1,1.2,1.8c0.4,0.6,0.7,1,1,1.6
						c0.3,0.5,0.6,1.2,0.9,1.8C113.8,311.6,114.1,312.3,114.3,313z"/>
					<path id="_Path_45" class="st5" d="M97.3,338.4l-0.5,0.1c-7,2.5-14.9,0.5-19.9-5.1c-0.8-0.9-1.5-1.8-2-2.8
						c-0.6-1.1-1.2-2.2-1.6-3.4c-0.2-0.6-0.4-1.2-0.6-1.9c-0.1-0.6-0.2-1.2-0.3-1.7c-0.1-0.5-0.1-1.1-0.1-1.6c0-0.6,0-1.2,0-1.9
						c0.4-7.4,5.3-13.9,12.3-16.3l0.5-0.1c-6.8,2.6-11.4,8.9-11.8,16.2c0,0.6,0,1.2,0,1.9c0,0.5,0.1,1.1,0.1,1.6
						c0.1,0.6,0.2,1.2,0.3,1.7c0.2,0.6,0.3,1.3,0.6,1.9c0.4,1.2,0.9,2.3,1.6,3.4c0.6,1,1.3,1.9,2,2.8
						C82.8,338.6,90.4,340.6,97.3,338.4z"/>
				</g>
				
					<ellipse id="_Path_46" transform="matrix(0.9437 -0.3309 0.3309 0.9437 -101.0152 48.4058)" class="st13" cx="91.7" cy="320.9" rx="18.4" ry="18.4"/>
			</g>
			<path id="_Path_47" class="st4" d="M366.9,172.5c-3.1-8.8-16.8-3-16.8-3l-2.1-6l0,0C355.7,160.7,364.2,164.8,366.9,172.5z"/>
			<path id="_Path_48" class="st4" d="M456.9,140.9c-3.1-8.8,11.2-12.9,11.2-12.9l-2.1-6l0,0C458.2,124.7,454.2,133.2,456.9,140.9z"
				/>
		</g>
	</g>
</g>
</svg>
