<?xml version="1.0" encoding="utf-8"?>
<!-- Generator: Adobe Illustrator 21.1.0, SVG Export Plug-In . SVG Version: 6.00 Build 0)  -->
<svg version="1.1" id="Layer_1" xmlns="http://www.w3.org/2000/svg" xmlns:xlink="http://www.w3.org/1999/xlink" x="0px" y="0px"
	 viewBox="0 0 960 560" style="enable-background:new 0 0 960 560;" xml:space="preserve">
<style type="text/css">
	.st0{fill:#212121;}
	.st1{fill:#C4C4C4;}
	.st2{fill:#FFFFFF;}
	.st3{fill:#FFBA38;}
	.st4{fill:#3D3D3D;}
</style>
<title>moonwalker</title>
<g id="Icon_Flat">
	<rect x="-45" class="st0" width="1043" height="560"/>
</g>
<g>
	<path class="st1" d="M829,280.7v2.6H798l-22.9-67h-30.6v12.1h-3c-2.9,0.3-5.5,2.2-6.6,5c-3.7,0.8-6.4,4-6.4,7.8v93.4
		c0.2,3.8,3.4,6.7,7.2,6.6c1.5,1.7,3.7,2.7,6,2.5h8.2c2.2,0.1,4.4-0.8,5.8-2.6c3.5-0.2,6.3-3.1,6.4-6.6v-93.3c0-3.5-2.3-6.6-5.6-7.7
		c-1.1-2.8-3.6-4.7-6.6-5.1h-2.5v-6.7h24.1l22.9,67H829v8h83.1v-16.1H829z"/>
	<polygon class="st2" points="186.3,243.2 170.2,243.2 170.2,329 206.4,329 206.4,314.2 186.3,314.2 	"/>
	<rect x="221.1" y="243.2" class="st2" width="14.7" height="85.8"/>
	<polygon class="st2" points="282.8,283.7 272.4,243.2 254.7,243.2 254.7,329 268.1,329 268.1,277.9 281.6,329 297.5,329 
		297.5,243.2 282.8,243.2 	"/>
	<polygon class="st2" points="315,329 352.5,329 352.5,314.2 329.7,314.2 329.7,292.8 347.1,292.8 347.1,278.1 329.7,278.1 
		329.7,257.9 352.5,257.9 352.5,243.2 315,243.2 	"/>
	<polygon class="st2" points="396.4,294 388.3,243.2 368.6,243.2 368.6,329 382,329 382,285.6 388.9,329 403.1,329 408.8,286.4 
		408.8,329 423.5,329 423.5,243.2 403.9,243.2 	"/>
	<path class="st2" d="M451.6,243.2L438.4,329h14.3l2.2-16.1H468l2.2,16.1h15.4l-13.3-85.8L451.6,243.2z M465.9,299.6h-9.1l4.6-30.9
		L465.9,299.6z"/>
	<polygon class="st2" points="528.1,243.2 528.1,283.7 518.1,243.2 499.9,243.2 499.9,329 513.4,329 513.4,277.9 527.3,329 
		542.8,329 542.8,243.2 	"/>
	<path class="st2" d="M566.1,269.8c4.8,0,7.3,2.9,7.3,8.1v1h-4.6v-1.3c0-2.3-0.9-3.2-2.5-3.2c-1.6,0-2.5,0.9-2.5,3.2
		c0,6.6,9.7,7.9,9.7,17.1c0,5.2-2.5,8.1-7.4,8.1s-7.4-2.9-7.4-8.1v-2h4.6v2.3c0,2.3,1,3.1,2.6,3.1c1.6,0,2.6-0.8,2.6-3.1
		c0-6.6-9.7-7.9-9.7-17.1C558.8,272.8,561.3,269.8,566.1,269.8z"/>
	<path class="st2" d="M579.4,270.2h15.3v4.6h-5.2v27.6h-5v-27.7h-5.2V270.2z"/>
	<path class="st2" d="M611.7,302.5c-0.4-1.3-0.6-2.6-0.4-4v-5.1c0-3-1-4.1-3.2-4.1h-1.7v13.1h-5v-32.3h7.4c5.1,0,7.3,2.4,7.3,7.4
		v2.5c0,3.3-1,5.5-3.2,6.6c2.5,1.1,3.3,3.5,3.3,6.9v5c-0.1,1.3,0.1,2.7,0.5,3.9L611.7,302.5z M606.3,274.8v9.9h1.9
		c1.9,0,3-0.8,3-3.4v-3.2c0-2.3-0.8-3.3-2.5-3.3L606.3,274.8z"/>
	<path class="st2" d="M624,270.2h5v32.3h-5V270.2z"/>
	<path class="st2" d="M651.8,278.2v4.2c0,5.2-2.4,8-7.4,8h-2.3v12.1h-5v-32.2h7.3C649.3,270.2,651.8,273,651.8,278.2z M642,274.8
		v10.9h2.3c1.6,0,2.4-0.7,2.4-3v-4.8c0-2.3-0.9-3-2.4-3L642,274.8z"/>
	<path class="st2" d="M658.6,270.2h5v32.3h-5V270.2z"/>
	<path class="st2" d="M676.1,279.1v23.4h-4.5v-32.3h6.2l5.1,19.3v-19.3h4.4v32.3h-5.1L676.1,279.1z"/>
	<path class="st2" d="M702.8,284.5h6.9v10.2c0,5.2-2.5,8.1-7.4,8.1s-7.4-2.9-7.4-8.1V278c0-5.2,2.5-8.1,7.4-8.1s7.4,2.9,7.4,8.1v3.1
		h-4.6v-3.4c0-2.3-1-3.2-2.6-3.2s-2.6,0.9-2.6,3.2v17.3c0,2.3,1,3.1,2.6,3.1s2.6-0.8,2.6-3.1v-6h-2.3V284.5z"/>
	<rect x="558.1" y="316" class="st3" width="152.4" height="13"/>
	<rect x="557.8" y="243.2" class="st3" width="152.8" height="13"/>
	<polygon class="st3" points="150.3,302.9 150.3,261.6 150.3,261.6 150.3,248 150.3,245.3 81.5,245.3 81.5,310.8 71.7,310.8 
		71.7,269.5 79.1,269.5 63.5,242.5 47.9,269.5 55.3,269.5 55.3,327.2 97.9,327.2 97.9,261.6 107.7,261.6 107.7,327.2 124.1,327.2 
		124.1,261.6 133.9,261.6 133.9,302.9 126.5,302.9 142.1,329.9 157.7,302.9 	"/>
	<rect x="58" y="266.8" class="st4" width="10.9" height="57.7"/>
	<rect x="84.2" y="248" class="st4" width="10.9" height="76.4"/>
	<rect x="110.5" y="248" class="st4" width="10.9" height="76.4"/>
	<rect x="136.6" y="248" class="st4" width="10.9" height="57.7"/>
	<rect x="58" y="313.5" class="st4" width="37.1" height="10.9"/>
	<rect x="84.3" y="248" class="st4" width="37.1" height="10.9"/>
	<rect x="110.5" y="248" class="st4" width="37.1" height="10.9"/>
	<polygon class="st4" points="52.6,266.8 63.5,248 74.3,266.8 	"/>
	<polygon class="st4" points="152.9,305.7 142.1,324.5 131.2,305.7 	"/>
</g>
</svg>
