<?xml version="1.0" encoding="utf-8"?>
<!-- Generator: Adobe Illustrator 21.1.0, SVG Export Plug-In . SVG Version: 6.00 Build 0)  -->
<svg version="1.1" id="Layer_1" xmlns="http://www.w3.org/2000/svg" xmlns:xlink="http://www.w3.org/1999/xlink" x="0px" y="0px"
	 viewBox="0 0 348.7 168" style="enable-background:new 0 0 348.7 168;" xml:space="preserve">
<style type="text/css">
	.st0{fill:#282F39;}
	.st1{fill:#FFBA38;}
	.st2{fill:#FFFFFF;}
	.st3{fill:#F7F1E3;}
</style>
<path class="st0" d="M329.7,168H19c-10.5,0-19-8.5-19-19V19C0,8.5,8.5,0,19,0h310.7c10.5,0,19,8.5,19,19v130
	C348.7,159.5,340.2,168,329.7,168z"/>
<rect x="-707.2" y="416.6" class="st0" width="1817.9" height="189"/>
<g>
	<path class="st1" d="M214.3,1164.3l-5.5-5.5l-7.8,4.4c-2.2-1.3-4.5-2.2-6.9-2.8l-2.4-8.6l-7.8,0l-2.4,8.6c-2.4,0.6-4.7,1.5-6.9,2.8
		l-7.8-4.4l-5.5,5.5l4.4,7.8c-1.3,2.2-2.2,4.5-2.8,6.9l-8.6,2.4l0,7.8l8.6,2.4c0.6,2.4,1.5,4.7,2.8,6.9l-4.4,7.8l5.5,5.5l7.8-4.4
		c2.2,1.3,4.5,2.2,6.9,2.8l2.4,8.6l7.8,0l2.4-8.6c2.4-0.6,4.7-1.5,6.9-2.8l7.8,4.4l5.5-5.5l-4.4-7.8c1.3-2.2,2.2-4.5,2.8-6.9
		l8.6-2.4l0-7.8l-8.6-2.4c-0.6-2.4-1.5-4.7-2.8-6.9L214.3,1164.3z M197.6,1195.2c-5.5,5.5-14.3,5.5-19.8,0s-5.5-14.3,0-19.8
		c5.5-5.5,14.3-5.5,19.8,0C203.1,1180.9,203.1,1189.8,197.6,1195.2z"/>
	<polygon class="st1" points="219,1216.6 215.6,1208 210.4,1213.2 	"/>
	
		<rect x="161" y="1160.2" transform="matrix(0.7071 -0.7071 0.7071 0.7071 -774.6765 459.4109)" class="st1" width="12.5" height="9.3"/>
	<path class="st1" d="M159.1,1154.6l-2.1,2.1c-1.9,1.9-1.9,4.9,0,6.7l1.1,1.1l8.8-8.8l-1.1-1.1
		C163.9,1152.7,160.9,1152.7,159.1,1154.6z"/>
	<path class="st1" d="M190.5,1196.9c2.1-0.5,4-1.5,5.7-3.2c1.6-1.6,2.7-3.6,3.2-5.7l-14.4-14.4c-2.1,0.5-4,1.5-5.7,3.2
		c-1.6,1.6-2.7,3.6-3.2,5.7L190.5,1196.9z"/>
</g>
<g>
	<path class="st2" d="M270.6,1179.7v20.2c0,2.9-2.2,5.3-5.1,5.3c-2.6,0-4.8-1.9-5.1-4.6c-2.6,3-7.1,5-12.1,5
		c-6.1,0-13.4-4.2-13.4-12.8c0-9,7.3-12.3,13.4-12.3c5.1,0,9.7,1.6,12.2,4.7v-5.4c0-3.9-3.4-6.5-8.5-6.5c-3,0-5.8,0.8-8.5,2.6
		c-0.6,0.3-1.3,0.6-2,0.6c-2.1,0-3.8-1.8-3.8-3.9c0-1.4,0.8-2.7,1.8-3.4c4.4-2.9,9.3-4.2,14.3-4.2
		C262.5,1165.1,270.6,1168.6,270.6,1179.7z M260.5,1195.3v-4.8c-1.7-2.2-4.9-3.4-8.1-3.4c-4,0-7.3,2.2-7.3,5.8
		c0,3.6,3.3,5.7,7.3,5.7C255.6,1198.7,258.8,1197.6,260.5,1195.3z"/>
	<path class="st2" d="M314,1179.7v20.2c0,2.9-2.2,5.3-5.1,5.3c-2.6,0-4.8-1.9-5.1-4.6c-2.6,3-7.1,5-12.1,5
		c-6.1,0-13.4-4.2-13.4-12.8c0-9,7.3-12.3,13.4-12.3c5.1,0,9.7,1.6,12.2,4.7v-5.4c0-3.9-3.4-6.5-8.5-6.5c-3,0-5.8,0.8-8.5,2.6
		c-0.6,0.3-1.3,0.6-2,0.6c-2.1,0-3.8-1.8-3.8-3.9c0-1.4,0.8-2.7,1.8-3.4c4.4-2.9,9.3-4.2,14.3-4.2
		C305.9,1165.1,314,1168.6,314,1179.7z M303.8,1195.3v-4.8c-1.7-2.2-4.9-3.4-8.1-3.4c-4,0-7.3,2.2-7.3,5.8c0,3.6,3.3,5.7,7.3,5.7
		C299,1198.7,302.2,1197.6,303.8,1195.3z"/>
	<path class="st2" d="M347.3,1169.9c0,2.5-1.6,4.6-4.8,5c-2.6,0.3-6.6,1.8-8.3,4.2v20.9c0,2.8-2.3,5.1-5,5.1c-2.9,0-5.1-2.3-5.1-5.1
		v-29.4c0-2.9,2.2-5.2,5-5.2c2.9,0,5.2,2.2,5.2,5.1l-0.1,0.7c1.7-2.3,4-4.5,6.3-5.4c1-0.4,1.7-0.6,2.6-0.6
		C345.8,1165.3,347.3,1167.4,347.3,1169.9z"/>
	<path class="st2" d="M350.3,1185.3c0-10.9,7.7-20.2,20.4-20.2c12.8,0,20.4,9.3,20.4,20.2c0,11-7.7,20.3-20.4,20.3
		C358,1205.6,350.3,1196.3,350.3,1185.3z M380.6,1185.3c0-6-3.6-11.2-9.9-11.2c-6.3,0-9.8,5.2-9.8,11.2c0,6.1,3.5,11.3,9.8,11.3
		C377,1196.5,380.6,1191.3,380.6,1185.3z"/>
	<path class="st2" d="M434.8,1177.4v22.7c0,2.8-2.2,5.1-5.1,5.1c-2.7,0-5-2.3-5-5.1v-18.8c0-5.4-2.8-7.2-7.1-7.2
		c-4,0-7.1,2.2-8.8,4.6v21.4c0,2.8-2.3,5.1-5,5.1c-2.9,0-5.1-2.3-5.1-5.1v-29.5c0-2.9,2.2-5.2,5-5.2c2.9,0,5.2,2.3,5.2,5.2v0.3
		c2.5-2.8,7.1-5.8,13.4-5.8C430.7,1165.1,434.8,1169.9,434.8,1177.4z"/>
	<path class="st1" d="M468.1,1169.9c0,2.5-1.6,4.6-4.8,5c-2.6,0.3-6.6,1.8-8.3,4.2v20.9c0,2.8-2.3,5.1-5,5.1c-2.9,0-5.1-2.3-5.1-5.1
		v-29.4c0-2.9,2.2-5.2,5-5.2c2.9,0,5.2,2.2,5.2,5.1l-0.1,0.7c1.7-2.3,4-4.5,6.3-5.4c1-0.4,1.7-0.6,2.6-0.6
		C466.6,1165.3,468.1,1167.4,468.1,1169.9z"/>
	<path class="st1" d="M491.1,1165.1c11.5,0,19.3,8.6,19.3,18.7c0,3.4-2.2,4.8-6.1,4.8h-22.6c0.6,4.9,4.6,8.9,11.1,8.9
		c2.6,0,5.4-0.8,7.8-2.2c0.6-0.3,1.2-0.5,1.9-0.5c2.2,0,4,1.8,4,4c0,1.5-1,2.8-2.2,3.5c-3.8,2.2-8.2,3.2-12.7,3.2
		c-11.7,0-20.6-7.9-20.6-20.3C471.2,1174.1,479.4,1165.1,491.1,1165.1z M481.6,1181.7h19c-0.2-3.7-2.8-8.5-9.5-8.5
		C484.8,1173.1,482.1,1177.9,481.6,1181.7z"/>
	<path class="st1" d="M517.8,1200.1v-44.2c0-2.8,2.2-5.1,5.1-5.1c2.7,0,5,2.3,5,5.1v44.2c0,2.8-2.3,5.1-5,5.1
		C520,1205.2,517.8,1202.8,517.8,1200.1z"/>
	<path class="st1" d="M555.5,1165.1c11.5,0,19.3,8.6,19.3,18.7c0,3.4-2.2,4.8-6.1,4.8h-22.6c0.6,4.9,4.6,8.9,11.1,8.9
		c2.6,0,5.4-0.8,7.8-2.2c0.6-0.3,1.2-0.5,1.9-0.5c2.2,0,4,1.8,4,4c0,1.5-1,2.8-2.2,3.5c-3.8,2.2-8.2,3.2-12.7,3.2
		c-11.7,0-20.6-7.9-20.6-20.3C535.5,1174.1,543.8,1165.1,555.5,1165.1z M546,1181.7h19c-0.2-3.7-2.8-8.5-9.5-8.5
		C549.2,1173.1,546.5,1177.9,546,1181.7z"/>
	<path class="st1" d="M594.6,1164.1v1.9h3.9c2.5,0,4.5,2,4.5,4.5c0,2.4-2,4.4-4.5,4.4h-3.9v25.2c0,2.8-2.3,5.1-5.1,5.1
		c-2.8,0-5.1-2.3-5.1-5.1v-25.2h-2.5c-2.5,0-4.5-2-4.5-4.4c0-2.5,2-4.5,4.5-4.5h2.5v-2.1c0-8.4,5.4-13.4,13-13.4
		c1.4,0,2.8,0.2,4.1,0.5c1.8,0.4,3.1,1.8,3.1,3.8c0,2.2-1.5,3.9-3.9,3.8c-0.4,0-1-0.1-1.3-0.1
		C596.5,1158.5,594.6,1160.4,594.6,1164.1z"/>
	<path class="st1" d="M605.8,1185.3c0-10.9,7.7-20.2,20.4-20.2c12.8,0,20.4,9.3,20.4,20.2c0,11-7.7,20.3-20.4,20.3
		C613.5,1205.6,605.8,1196.3,605.8,1185.3z M636.1,1185.3c0-6-3.6-11.2-9.9-11.2c-6.3,0-9.8,5.2-9.8,11.2c0,6.1,3.5,11.3,9.8,11.3
		C632.5,1196.5,636.1,1191.3,636.1,1185.3z"/>
	<path class="st1" d="M677.4,1169.9c0,2.5-1.6,4.6-4.8,5c-2.6,0.3-6.6,1.8-8.3,4.2v20.9c0,2.8-2.3,5.1-5,5.1c-2.9,0-5.1-2.3-5.1-5.1
		v-29.4c0-2.9,2.2-5.2,5-5.2c2.9,0,5.2,2.2,5.2,5.1l-0.1,0.7c1.7-2.3,4-4.5,6.3-5.4c1-0.4,1.7-0.6,2.6-0.6
		C675.9,1165.3,677.4,1167.4,677.4,1169.9z"/>
	<path class="st1" d="M719.6,1155.9v44.2c0,2.9-2.2,5.3-5.1,5.3c-2.8,0-5.1-2.3-5.2-5.2v-0.3c-3.1,3.8-7.3,5.8-11.8,5.8
		c-9.7,0-17.1-7.3-17.1-20.2c0-12.6,7.3-20.3,17.1-20.3c4.5,0,8.8,1.9,11.9,5.9v-15.1c0-2.8,2.3-5.1,5.1-5.1
		S719.6,1153.1,719.6,1155.9z M709.4,1192.1v-13.7c-1.8-2.6-5.4-4.4-8.8-4.4c-5.8,0-9.7,4.6-9.7,11.3c0,6.6,4,11.2,9.7,11.2
		C704,1196.5,707.6,1194.7,709.4,1192.1z"/>
</g>
<g>
	<path class="st1" d="M148.4,799.6l-5.5-5.5l-7.8,4.4c-2.2-1.3-4.5-2.2-6.9-2.8l-2.4-8.6l-7.8,0l-2.4,8.6c-2.4,0.6-4.7,1.5-6.9,2.8
		l-7.8-4.4l-5.5,5.5l4.4,7.8c-1.3,2.2-2.2,4.5-2.8,6.9l-8.6,2.4l0,7.8l8.6,2.4c0.6,2.4,1.5,4.7,2.8,6.9l-4.4,7.8l5.5,5.5l7.8-4.4
		c2.2,1.3,4.5,2.2,6.9,2.8l2.4,8.6l7.8,0l2.4-8.6c2.4-0.6,4.7-1.5,6.9-2.8l7.8,4.4l5.5-5.5l-4.4-7.8c1.3-2.2,2.2-4.5,2.8-6.9
		l8.6-2.4l0-7.8l-8.6-2.4c-0.6-2.4-1.5-4.7-2.8-6.9L148.4,799.6z M131.8,830.6c-5.5,5.5-14.3,5.5-19.8,0c-5.5-5.5-5.5-14.3,0-19.8
		c5.5-5.5,14.3-5.5,19.8,0C137.3,816.2,137.3,825.1,131.8,830.6z"/>
	<polygon class="st1" points="153.1,851.9 149.7,843.3 144.6,848.5 	"/>
	
		<rect x="95.1" y="795.5" transform="matrix(0.7071 -0.7071 0.7071 0.7071 -536.1028 306.0455)" class="st1" width="12.5" height="9.3"/>
	<path class="st1" d="M93.2,789.9l-2.1,2.1c-1.9,1.9-1.9,4.9,0,6.7l1.1,1.1l8.8-8.8l-1.1-1.1C98.1,788,95.1,788,93.2,789.9z"/>
	<path class="st1" d="M124.6,832.3c2.1-0.5,4-1.5,5.7-3.2s2.7-3.6,3.2-5.7l-14.4-14.4c-2.1,0.5-4,1.5-5.7,3.2s-2.7,3.6-3.2,5.7
		L124.6,832.3z"/>
</g>
<g>
	<path class="st2" d="M204.8,815v20.2c0,2.9-2.2,5.3-5.1,5.3c-2.6,0-4.8-1.9-5.1-4.6c-2.6,3-7.1,5-12.1,5c-6.1,0-13.4-4.2-13.4-12.8
		c0-9,7.3-12.3,13.4-12.3c5.1,0,9.7,1.6,12.2,4.7v-5.4c0-3.9-3.4-6.5-8.5-6.5c-3,0-5.8,0.8-8.5,2.6c-0.6,0.3-1.3,0.6-2,0.6
		c-2.1,0-3.8-1.8-3.8-3.9c0-1.4,0.8-2.7,1.8-3.4c4.4-2.9,9.3-4.2,14.3-4.2C196.7,800.4,204.8,803.9,204.8,815z M194.6,830.7v-4.8
		c-1.7-2.2-4.9-3.4-8.1-3.4c-4,0-7.3,2.2-7.3,5.8c0,3.6,3.3,5.7,7.3,5.7C189.7,834,192.9,832.9,194.6,830.7z"/>
	<path class="st2" d="M248.1,815v20.2c0,2.9-2.2,5.3-5.1,5.3c-2.6,0-4.8-1.9-5.1-4.6c-2.6,3-7.1,5-12.1,5c-6.1,0-13.4-4.2-13.4-12.8
		c0-9,7.3-12.3,13.4-12.3c5.1,0,9.7,1.6,12.2,4.7v-5.4c0-3.9-3.4-6.5-8.5-6.5c-3,0-5.8,0.8-8.5,2.6c-0.6,0.3-1.3,0.6-2,0.6
		c-2.1,0-3.8-1.8-3.8-3.9c0-1.4,0.8-2.7,1.8-3.4c4.4-2.9,9.3-4.2,14.3-4.2C240.1,800.4,248.1,803.9,248.1,815z M238,830.7v-4.8
		c-1.7-2.2-4.9-3.4-8.1-3.4c-4,0-7.3,2.2-7.3,5.8c0,3.6,3.3,5.7,7.3,5.7C233.1,834,236.3,832.9,238,830.7z"/>
	<path class="st2" d="M281.4,805.2c0,2.5-1.6,4.6-4.8,5c-2.6,0.3-6.6,1.8-8.3,4.2v20.9c0,2.8-2.3,5.1-5,5.1c-2.9,0-5.1-2.3-5.1-5.1
		V806c0-2.9,2.2-5.2,5-5.2c2.9,0,5.2,2.2,5.2,5.1l-0.1,0.7c1.7-2.3,4-4.5,6.3-5.4c1-0.4,1.7-0.6,2.6-0.6
		C279.9,800.6,281.4,802.7,281.4,805.2z"/>
	<path class="st2" d="M284.5,820.6c0-10.9,7.7-20.2,20.4-20.2c12.8,0,20.4,9.3,20.4,20.2c0,11-7.7,20.3-20.4,20.3
		C292.1,840.9,284.5,831.6,284.5,820.6z M314.7,820.6c0-6-3.6-11.2-9.9-11.2c-6.3,0-9.8,5.2-9.8,11.2c0,6.1,3.5,11.3,9.8,11.3
		C311.1,831.9,314.7,826.7,314.7,820.6z"/>
	<path class="st2" d="M369,812.7v22.7c0,2.8-2.2,5.1-5.1,5.1c-2.7,0-5-2.3-5-5.1v-18.8c0-5.4-2.8-7.2-7.1-7.2c-4,0-7.1,2.2-8.8,4.6
		v21.4c0,2.8-2.3,5.1-5,5.1c-2.9,0-5.1-2.3-5.1-5.1v-29.5c0-2.9,2.2-5.2,5-5.2c2.9,0,5.2,2.3,5.2,5.2v0.3c2.5-2.8,7.1-5.8,13.4-5.8
		C364.9,800.4,369,805.2,369,812.7z"/>
	<path class="st1" d="M402.3,805.2c0,2.5-1.6,4.6-4.8,5c-2.6,0.3-6.6,1.8-8.3,4.2v20.9c0,2.8-2.3,5.1-5,5.1c-2.9,0-5.1-2.3-5.1-5.1
		V806c0-2.9,2.2-5.2,5-5.2c2.9,0,5.2,2.2,5.2,5.1l-0.1,0.7c1.7-2.3,4-4.5,6.3-5.4c1-0.4,1.7-0.6,2.6-0.6
		C400.8,800.6,402.3,802.7,402.3,805.2z"/>
	<path class="st1" d="M425.3,800.4c11.5,0,19.3,8.6,19.3,18.7c0,3.4-2.2,4.8-6.1,4.8h-22.6c0.6,4.9,4.6,8.9,11.1,8.9
		c2.6,0,5.4-0.8,7.8-2.2c0.6-0.3,1.2-0.5,1.9-0.5c2.2,0,4,1.8,4,4c0,1.5-1,2.8-2.2,3.5c-3.8,2.2-8.2,3.2-12.7,3.2
		c-11.7,0-20.6-7.9-20.6-20.3C405.3,809.4,413.5,800.4,425.3,800.4z M415.8,817h19c-0.2-3.7-2.8-8.5-9.5-8.5
		C419,808.5,416.3,813.2,415.8,817z"/>
	<path class="st1" d="M452,835.4v-44.2c0-2.8,2.2-5.1,5.1-5.1c2.7,0,5,2.3,5,5.1v44.2c0,2.8-2.3,5.1-5,5.1
		C454.2,840.5,452,838.2,452,835.4z"/>
	<path class="st1" d="M489.7,800.4c11.5,0,19.3,8.6,19.3,18.7c0,3.4-2.2,4.8-6.1,4.8h-22.6c0.6,4.9,4.6,8.9,11.1,8.9
		c2.6,0,5.4-0.8,7.8-2.2c0.6-0.3,1.2-0.5,1.9-0.5c2.2,0,4,1.8,4,4c0,1.5-1,2.8-2.2,3.5c-3.8,2.2-8.2,3.2-12.7,3.2
		c-11.7,0-20.6-7.9-20.6-20.3C469.7,809.4,477.9,800.4,489.7,800.4z M480.1,817h19c-0.2-3.7-2.8-8.5-9.5-8.5
		C483.3,808.5,480.6,813.2,480.1,817z"/>
	<path class="st1" d="M528.8,799.4v1.9h3.9c2.5,0,4.5,2,4.5,4.5c0,2.4-2,4.4-4.5,4.4h-3.9v25.2c0,2.8-2.3,5.1-5.1,5.1
		c-2.8,0-5.1-2.3-5.1-5.1v-25.2h-2.5c-2.5,0-4.5-2-4.5-4.4c0-2.5,2-4.5,4.5-4.5h2.5v-2.1c0-8.4,5.4-13.4,13-13.4
		c1.4,0,2.8,0.2,4.1,0.5c1.8,0.4,3.1,1.8,3.1,3.8c0,2.2-1.5,3.9-3.9,3.8c-0.4,0-1-0.1-1.3-0.1C530.7,793.9,528.8,795.8,528.8,799.4z
		"/>
	<path class="st1" d="M540,820.6c0-10.9,7.7-20.2,20.4-20.2c12.8,0,20.4,9.3,20.4,20.2c0,11-7.7,20.3-20.4,20.3
		C547.6,840.9,540,831.6,540,820.6z M570.2,820.6c0-6-3.6-11.2-9.9-11.2c-6.3,0-9.8,5.2-9.8,11.2c0,6.1,3.5,11.3,9.8,11.3
		C566.6,831.9,570.2,826.7,570.2,820.6z"/>
	<path class="st1" d="M611.5,805.2c0,2.5-1.6,4.6-4.8,5c-2.6,0.3-6.6,1.8-8.3,4.2v20.9c0,2.8-2.3,5.1-5,5.1c-2.9,0-5.1-2.3-5.1-5.1
		V806c0-2.9,2.2-5.2,5-5.2c2.9,0,5.2,2.2,5.2,5.1l-0.1,0.7c1.7-2.3,4-4.5,6.3-5.4c1-0.4,1.7-0.6,2.6-0.6
		C610,800.6,611.5,802.7,611.5,805.2z"/>
	<path class="st1" d="M653.8,791.2v44.2c0,2.9-2.2,5.3-5.1,5.3c-2.8,0-5.1-2.3-5.2-5.2v-0.3c-3.1,3.8-7.3,5.8-11.8,5.8
		c-9.7,0-17.1-7.3-17.1-20.2c0-12.6,7.3-20.3,17.1-20.3c4.5,0,8.8,1.9,11.9,5.9v-15.1c0-2.8,2.3-5.1,5.1-5.1
		S653.8,788.4,653.8,791.2z M643.6,827.5v-13.7c-1.8-2.6-5.4-4.4-8.8-4.4c-5.8,0-9.7,4.6-9.7,11.3c0,6.6,4,11.2,9.7,11.2
		C638.2,831.9,641.8,830,643.6,827.5z"/>
</g>
<g>
	<g>
		<path class="st1" d="M253.4,42.5l-6.4-6.4l-9.1,5.1c-2.5-1.5-5.2-2.6-8-3.3l-2.8-10l-9.1,0l-2.8,10c-2.8,0.7-5.5,1.8-8,3.3
			l-9.1-5.1l-6.4,6.4l5.1,9.1c-1.5,2.5-2.6,5.2-3.3,8l-10,2.8l0,9.1l10,2.8c0.7,2.8,1.8,5.5,3.3,8l-5.1,9.1l6.4,6.4l9.1-5.1
			c2.5,1.5,5.2,2.6,8,3.3l2.8,10l9.1,0l2.8-10c2.8-0.7,5.5-1.8,8-3.3l9.1,5.1l6.4-6.4l-5.1-9.1c1.5-2.5,2.6-5.2,3.3-8l10-2.8l0-9.1
			l-10-2.8c-0.7-2.8-1.8-5.5-3.3-8L253.4,42.5z M234.1,78.5c-6.4,6.4-16.7,6.4-23,0c-6.4-6.4-6.4-16.7,0-23c6.4-6.4,16.7-6.4,23,0
			S240.4,72.2,234.1,78.5z"/>
		<polygon class="st1" points="258.9,103.3 254.9,93.4 248.9,99.4 		"/>
		
			<rect x="191.5" y="37.8" transform="matrix(0.7071 -0.7071 0.7071 0.7071 27.6754 153.1555)" class="st1" width="14.5" height="10.8"/>
		<path class="st1" d="M189.8,30.7l-3.5,3.5c-1.9,1.9-1.9,4.9,0,6.7l1.8,1.8l10.3-10.3l-1.8-1.8C194.6,28.8,191.6,28.8,189.8,30.7z"
			/>
		<path class="st1" d="M225.8,80.5c2.4-0.6,4.7-1.8,6.6-3.7c1.9-1.9,3.1-4.2,3.7-6.6l-16.7-16.7c-2.4,0.6-4.7,1.8-6.6,3.7
			c-1.9,1.9-3.1,4.2-3.7,6.6L225.8,80.5z"/>
	</g>
	<g>
		<path class="st3" d="M79.6,58.1v27.5c0,3.9-3,7.2-7,7.2c-3.5,0-6.5-2.6-7-6.2c-3.5,4.1-9.7,6.7-16.5,6.7
			c-8.4,0-18.3-5.6-18.3-17.4c0-12.3,9.9-16.7,18.3-16.7c7,0,13.1,2.2,16.6,6.4v-7.3c0-5.3-4.6-8.8-11.5-8.8
			c-4.1,0-7.8,1.1-11.6,3.5c-0.8,0.4-1.7,0.8-2.7,0.8c-2.8,0-5.2-2.4-5.2-5.3c0-2,1.1-3.7,2.5-4.6c6-3.9,12.6-5.7,19.4-5.7
			C68.6,38.2,79.6,43,79.6,58.1z M65.8,79.4v-6.5c-2.3-3-6.6-4.6-11.1-4.6c-5.4,0-9.9,2.9-9.9,7.9c0,4.9,4.5,7.7,9.9,7.7
			C59.2,83.9,63.5,82.4,65.8,79.4z"/>
		<path class="st3" d="M138.6,58.1v27.5c0,3.9-3,7.2-7,7.2c-3.5,0-6.5-2.6-7-6.2c-3.5,4.1-9.7,6.7-16.5,6.7
			c-8.4,0-18.3-5.6-18.3-17.4c0-12.3,9.9-16.7,18.3-16.7c7,0,13.1,2.2,16.6,6.4v-7.3c0-5.3-4.6-8.8-11.5-8.8
			c-4.1,0-7.8,1.1-11.6,3.5c-0.8,0.4-1.7,0.8-2.7,0.8c-2.8,0-5.2-2.4-5.2-5.3c0-2,1.1-3.7,2.5-4.6c6-3.9,12.6-5.7,19.4-5.7
			C127.7,38.2,138.6,43,138.6,58.1z M124.8,79.4v-6.5c-2.3-3-6.6-4.6-11.1-4.6c-5.4,0-9.9,2.9-9.9,7.9c0,4.9,4.5,7.7,9.9,7.7
			C118.2,83.9,122.5,82.4,124.8,79.4z"/>
		<path class="st3" d="M183.9,44.7c0,3.4-2.2,6.2-6.5,6.8c-3.6,0.4-9,2.4-11.3,5.8v28.5c0,3.8-3.2,7-6.8,7c-3.9,0-7-3.2-7-7v-40
			c0-3.9,3-7.1,6.8-7.1c3.9,0,7.1,3,7.1,7l-0.1,1c2.3-3.2,5.4-6.1,8.6-7.3c1.3-0.5,2.3-0.9,3.5-0.9
			C181.9,38.5,183.9,41.4,183.9,44.7z"/>
	</g>
	<g>
		<path class="st3" d="M317.7,55.2v30.9c0,3.8-3,7-7,7c-3.7,0-6.8-3.2-6.8-7V60.5c0-7.3-3.8-9.8-9.7-9.8c-5.4,0-9.7,3-12,6.2v29.1
			c0,3.8-3.2,7-6.8,7c-3.9,0-7-3.2-7-7V46c0-3.9,3-7.1,6.8-7.1c3.9,0,7.1,3.2,7.1,7.1v0.4c3.4-3.8,9.7-7.9,18.3-7.9
			C312.2,38.5,317.7,45,317.7,55.2z"/>
	</g>
	<g>
		<path class="st3" d="M86.6,112.8c0,1.9-1.2,3.5-3.7,3.9c-2,0.2-5.1,1.3-6.4,3.2v16c0,2.1-1.8,3.9-3.9,3.9c-2.2,0-3.9-1.8-3.9-3.9
			v-22.5c0-2.2,1.7-4,3.9-4c2.2,0,4,1.7,4,3.9l-0.1,0.6c1.3-1.8,3.1-3.4,4.8-4.1c0.7-0.3,1.3-0.5,2-0.5
			C85.5,109.3,86.6,110.9,86.6,112.8z"/>
		<path class="st3" d="M104.2,109.1c8.8,0,14.8,6.6,14.8,14.3c0,2.6-1.6,3.7-4.6,3.7H97.1c0.5,3.7,3.5,6.8,8.5,6.8
			c2,0,4.2-0.6,6-1.6c0.4-0.2,0.9-0.4,1.5-0.4c1.6,0,3.1,1.4,3.1,3.1c0,1.2-0.7,2.1-1.6,2.7c-2.9,1.6-6.3,2.4-9.7,2.4
			c-9,0-15.8-6.1-15.8-15.5C88.9,116,95.2,109.1,104.2,109.1z M96.9,121.8h14.5c-0.2-2.8-2.1-6.5-7.3-6.5
			C99.4,115.3,97.3,118.9,96.9,121.8z"/>
		<path class="st3" d="M124.6,135.9v-33.8c0-2.1,1.7-3.9,3.9-3.9c2.1,0,3.9,1.8,3.9,3.9v33.8c0,2.1-1.8,3.9-3.9,3.9
			C126.3,139.8,124.6,138,124.6,135.9z"/>
		<path class="st3" d="M153.5,109.1c8.8,0,14.8,6.6,14.8,14.3c0,2.6-1.6,3.7-4.6,3.7h-17.3c0.5,3.7,3.5,6.8,8.5,6.8
			c2,0,4.2-0.6,6-1.6c0.4-0.2,0.9-0.4,1.5-0.4c1.6,0,3.1,1.4,3.1,3.1c0,1.2-0.7,2.1-1.6,2.7c-2.9,1.6-6.3,2.4-9.7,2.4
			c-9,0-15.8-6.1-15.8-15.5C138.2,116,144.5,109.1,153.5,109.1z M146.2,121.8h14.5c-0.2-2.8-2.1-6.5-7.3-6.5
			C148.6,115.3,146.6,118.9,146.2,121.8z"/>
		<path class="st3" d="M183.4,108.4v1.5h3c1.9,0,3.4,1.5,3.4,3.4c0,1.8-1.5,3.4-3.4,3.4h-3v19.2c0,2.1-1.8,3.9-3.9,3.9
			c-2.1,0-3.9-1.8-3.9-3.9v-19.2h-1.9c-1.9,0-3.4-1.5-3.4-3.4c0-1.9,1.5-3.4,3.4-3.4h1.9v-1.6c0-6.4,4.2-10.3,10-10.3
			c1.1,0,2.1,0.1,3.1,0.4c1.3,0.3,2.4,1.4,2.4,2.9c0,1.7-1.2,3-3,2.9c-0.3,0-0.7-0.1-1-0.1C184.9,104.1,183.4,105.6,183.4,108.4z"/>
		<path class="st3" d="M192,124.6c0-8.4,5.9-15.5,15.6-15.5c9.8,0,15.6,7.1,15.6,15.5c0,8.4-5.9,15.5-15.6,15.5
			C197.8,140.1,192,133,192,124.6z M215.1,124.6c0-4.6-2.8-8.6-7.6-8.6c-4.8,0-7.5,4-7.5,8.6c0,4.6,2.7,8.6,7.5,8.6
			C212.4,133.2,215.1,129.2,215.1,124.6z"/>
		<path class="st3" d="M246.7,112.8c0,1.9-1.2,3.5-3.7,3.9c-2,0.2-5.1,1.3-6.4,3.2v16c0,2.1-1.8,3.9-3.9,3.9c-2.2,0-3.9-1.8-3.9-3.9
			v-22.5c0-2.2,1.7-4,3.9-4c2.2,0,4,1.7,4,3.9l-0.1,0.6c1.3-1.8,3.1-3.4,4.8-4.1c0.7-0.3,1.3-0.5,2-0.5
			C245.6,109.3,246.7,110.9,246.7,112.8z"/>
		<path class="st3" d="M279.1,102.1v33.8c0,2.2-1.7,4-3.9,4c-2.1,0-3.9-1.8-4-4v-0.2c-2.4,2.9-5.6,4.4-9,4.4
			c-7.5,0-13.1-5.6-13.1-15.5c0-9.7,5.6-15.5,13.1-15.5c3.4,0,6.7,1.5,9.1,4.5v-11.5c0-2.1,1.8-3.9,3.9-3.9
			C277.3,98.2,279.1,100,279.1,102.1z M271.2,129.9v-10.5c-1.3-2-4.1-3.4-6.7-3.4c-4.4,0-7.5,3.5-7.5,8.6c0,5.1,3.1,8.6,7.5,8.6
			C267.2,133.2,269.9,131.8,271.2,129.9z"/>
	</g>
	<rect x="31.4" y="118.9" class="st1" width="29.1" height="12.9"/>
	<rect x="288.7" y="118.9" class="st1" width="29.1" height="12.9"/>
</g>
<g>
	<path class="st1" d="M-0.8-253l-6.4-6.4l-9.1,5.1c-2.5-1.5-5.2-2.6-8-3.3l-2.8-10l-9.1,0l-2.8,10c-2.8,0.7-5.5,1.8-8,3.3l-9.1-5.1
		l-6.4,6.4l5.1,9.1c-1.5,2.5-2.6,5.2-3.3,8l-10,2.8l0,9.1l10,2.8c0.7,2.8,1.8,5.5,3.3,8l-5.1,9.1l6.4,6.4l9.1-5.1
		c2.5,1.5,5.2,2.6,8,3.3l2.8,10l9.1,0l2.8-10c2.8-0.7,5.5-1.8,8-3.3l9.1,5.1l6.4-6.4l-5.1-9.1c1.5-2.5,2.6-5.2,3.3-8l10-2.8l0-9.1
		l-10-2.8c-0.7-2.8-1.8-5.5-3.3-8L-0.8-253z M-20.2-217c-6.4,6.4-16.7,6.4-23,0s-6.4-16.7,0-23c6.4-6.4,16.7-6.4,23,0
		C-13.8-233.7-13.8-223.4-20.2-217z"/>
	<polygon class="st1" points="4.7,-192.2 0.7,-202.2 -5.3,-196.2 	"/>
	
		<rect x="-62.8" y="-257.8" transform="matrix(0.7071 -0.7071 0.7071 0.7071 162.2029 -113.1833)" class="st1" width="14.5" height="10.8"/>
	<path class="st1" d="M-64.5-264.9l-3.5,3.5c-1.9,1.9-1.9,4.9,0,6.7l1.8,1.8l10.3-10.3l-1.8-1.8C-59.6-266.7-62.6-266.7-64.5-264.9z
		"/>
	<path class="st1" d="M-28.5-215.1c2.4-0.6,4.7-1.8,6.6-3.7c1.9-1.9,3.1-4.2,3.7-6.6L-34.9-242c-2.4,0.6-4.7,1.8-6.6,3.7
		c-1.9,1.9-3.1,4.2-3.7,6.6L-28.5-215.1z"/>
</g>
<g>
	<path class="st3" d="M-174.6-237.5v27.5c0,3.9-3,7.2-7,7.2c-3.5,0-6.5-2.6-7-6.2c-3.5,4.1-9.7,6.7-16.5,6.7
		c-8.4,0-18.3-5.6-18.3-17.4c0-12.3,9.9-16.7,18.3-16.7c7,0,13.1,2.2,16.6,6.4v-7.3c0-5.3-4.6-8.8-11.5-8.8c-4.1,0-7.8,1.1-11.6,3.5
		c-0.8,0.4-1.7,0.8-2.7,0.8c-2.8,0-5.2-2.4-5.2-5.3c0-2,1.1-3.7,2.5-4.6c6-3.9,12.6-5.7,19.4-5.7
		C-185.6-257.4-174.6-252.6-174.6-237.5z M-188.4-216.2v-6.5c-2.3-3-6.6-4.6-11.1-4.6c-5.4,0-9.9,2.9-9.9,7.9c0,4.9,4.5,7.7,9.9,7.7
		C-195-211.6-190.7-213.1-188.4-216.2z"/>
	<path class="st3" d="M-115.6-237.5v27.5c0,3.9-3,7.2-7,7.2c-3.5,0-6.5-2.6-7-6.2c-3.5,4.1-9.7,6.7-16.5,6.7
		c-8.4,0-18.3-5.6-18.3-17.4c0-12.3,9.9-16.7,18.3-16.7c7,0,13.1,2.2,16.6,6.4v-7.3c0-5.3-4.6-8.8-11.5-8.8c-4.1,0-7.8,1.1-11.6,3.5
		c-0.8,0.4-1.7,0.8-2.7,0.8c-2.8,0-5.2-2.4-5.2-5.3c0-2,1.1-3.7,2.5-4.6c6-3.9,12.6-5.7,19.4-5.7
		C-126.6-257.4-115.6-252.6-115.6-237.5z M-129.4-216.2v-6.5c-2.3-3-6.6-4.6-11.1-4.6c-5.4,0-9.9,2.9-9.9,7.9c0,4.9,4.5,7.7,9.9,7.7
		C-136-211.6-131.7-213.1-129.4-216.2z"/>
	<path class="st3" d="M-70.3-250.8c0,3.4-2.2,6.2-6.5,6.8c-3.6,0.4-9,2.4-11.3,5.8v28.5c0,3.8-3.2,7-6.8,7c-3.9,0-7-3.2-7-7v-40
		c0-3.9,3-7.1,6.8-7.1c3.9,0,7.1,3,7.1,7l-0.1,1c2.3-3.2,5.4-6.1,8.6-7.3c1.3-0.5,2.3-0.9,3.5-0.9C-72.4-257-70.3-254.2-70.3-250.8z
		"/>
</g>
<g>
	<path class="st3" d="M63.5-240.3v30.9c0,3.8-3,7-7,7c-3.7,0-6.8-3.2-6.8-7V-235c0-7.3-3.8-9.8-9.7-9.8c-5.4,0-9.7,3-12,6.2v29.1
		c0,3.8-3.2,7-6.8,7c-3.9,0-7-3.2-7-7v-40.1c0-3.9,3-7.1,6.8-7.1c3.9,0,7.1,3.2,7.1,7.1v0.4c3.4-3.8,9.7-7.9,18.3-7.9
		C57.9-257.1,63.5-250.5,63.5-240.3z"/>
</g>
<text transform="matrix(1 0 0 1 68.8186 -202.2683)" class="st3" style="font-family:'ProximaSoft-Bold'; font-size:105.8661px;">releford</text>
</svg>
