<?xml version="1.0" encoding="utf-8"?>
<!-- Generator: Adobe Illustrator 21.1.0, SVG Export Plug-In . SVG Version: 6.00 Build 0)  -->
<svg version="1.1" id="Layer_1" xmlns="http://www.w3.org/2000/svg" xmlns:xlink="http://www.w3.org/1999/xlink" x="0px" y="0px"
	 viewBox="0 0 209.4 185.7" style="enable-background:new 0 0 209.4 185.7;" xml:space="preserve">
<style type="text/css">
	.st0{fill:#FFD200;}
	.st1{fill:#383638;}
	.st2{fill:#48484A;}
	.st3{fill:#3B3A3C;}
	.st4{fill:#404041;}
	.st5{fill:#FFE24C;}
	.st6{fill:#FCB912;}
	.st7{fill:#545456;}
	.st8{fill:#3E3E3F;}
	.st9{fill:#D3D4D6;}
</style>
<title>measure</title>
<g id="Layer_2_1_">
	<g id="Layer_1-2_1_">
		<g id="_Group__1_">
			
				<rect id="_Rectangle_" x="151.5" y="101.2" transform="matrix(0.3281 -0.9446 0.9446 0.3281 -44.7822 250.5287)" class="st0" width="4.4" height="111.2"/>
			<path id="_Path__1_" class="st0" d="M126.4,35.1c0,0,2.2-2.8,4.2-6c1-1.5,0.5-3.6-1-4.6c-0.1-0.1-0.2-0.1-0.3-0.2
				c-6-2.9-11.4-6.9-16-11.7c-0.8-0.8-1.9-1.3-3-1.2l-2.3,0.2L126.4,35.1z"/>
			<path id="_Path_2_1_" class="st1" d="M128.2,36.3L128.2,36.3l-2.8,6.3L99.9,10.9l6.7-1.4l0,0C115.9,16.5,123.4,25.7,128.2,36.3z"
				/>
			<path id="_Path_3_1_" class="st1" d="M64.8,65.3l-21.2,61.2l19.3,6.7c-0.5,1.4,0.3,3,1.7,3.5l2.9,1c1.4,0.5,3-0.2,3.5-1.7
				l1.8,0.6c-0.5,1.4,0.3,3,1.7,3.5l2.9,1c1.4,0.5,3-0.3,3.5-1.7l1.8,0.6c-0.5,1.4,0.3,3,1.7,3.5l2.9,1c1.4,0.5,3-0.3,3.5-1.7
				l1.8,0.6c-0.5,1.4,0.3,3,1.7,3.5l2.9,1c1.4,0.5,3-0.3,3.5-1.7l0,0c2.3,0.8,4.8-0.4,5.7-2.7l19.8-57L64.8,65.3z"/>
			
				<ellipse id="_Path_4_1_" transform="matrix(0.3274 -0.9449 0.9449 0.3274 -17.7204 105.2713)" class="st2" cx="65.1" cy="65.1" rx="65.1" ry="65.1"/>
			<path id="_Path_5_1_" class="st3" d="M126,86.6c-12.1,33.7-49.3,51.1-82.9,38.9C9.9,113.6-7.6,77.4,3.6,44.1L126,86.6z"/>
			
				<ellipse id="_Path_6_1_" transform="matrix(0.3281 -0.9446 0.9446 0.3281 -18.1875 105.0632)" class="st4" cx="64.8" cy="65.3" rx="60.2" ry="60.2"/>
			<path id="_Compound_Path__1_" class="st5" d="M81.3,17.7c-26.3-9.1-55,4.8-64.2,31.1s4.8,55,31.1,64.2s55-4.8,64.2-31.1
				c0,0,0,0,0,0C121.5,55.6,107.6,26.8,81.3,17.7z"/>
			<path id="_Path_7_1_" class="st6" d="M112.4,81.9c-9.3,26.2-38.1,40-64.3,30.7c-26-9.2-39.8-37.7-30.9-63.8L112.4,81.9z"/>
			
				<ellipse id="_Path_8_1_" transform="matrix(0.3281 -0.9446 0.9446 0.3281 -18.1875 105.0632)" class="st0" cx="64.8" cy="65.3" rx="46.6" ry="46.6"/>
			
				<ellipse id="_Path_9_1_" transform="matrix(0.3281 -0.9446 0.9446 0.3281 -18.1875 105.0632)" class="st7" cx="64.8" cy="65.3" rx="23.6" ry="23.6"/>
			<path id="_Path_10_1_" class="st8" d="M87,73.1c-4.3,12.3-17.7,18.8-30,14.6c-12.3-4.3-18.8-17.7-14.6-30L87,73.1z"/>
			
				<ellipse id="_Path_11_1_" transform="matrix(0.3274 -0.9449 0.9449 0.3274 -17.7204 105.2713)" class="st4" cx="65.1" cy="65.1" rx="20.3" ry="20.3"/>
			<path id="_Rectangle_2" class="st9" d="M207,172.9l2.4,0.8l0,0l-3.9,11.2c-0.2,0.7-1,1-1.6,0.8c0,0,0,0,0,0l0,0
				c-0.7-0.2-1-1-0.8-1.6c0,0,0,0,0,0L207,172.9L207,172.9z"/>
		</g>
	</g>
</g>
</svg>
