<?xml version="1.0" encoding="utf-8"?>
<!-- Generator: Adobe Illustrator 21.1.0, SVG Export Plug-In . SVG Version: 6.00 Build 0)  -->
<svg version="1.1" id="Layer_1" xmlns="http://www.w3.org/2000/svg" xmlns:xlink="http://www.w3.org/1999/xlink" x="0px" y="0px"
	 viewBox="0 0 960 560" style="enable-background:new 0 0 960 560;" xml:space="preserve">
<style type="text/css">
	.st0{fill:#0F1D38;}
	.st1{fill:#FFFFFF;}
	.st2{fill:#D3CC7D;}
	.st3{fill:#EAE6C5;}
</style>
<title>moonwalker</title>
<g id="Layer_2">
	<g id="Icon_Flat">
		<rect class="st0" width="960" height="560"/>
		<g>
			<path class="st1" d="M606.6,415.8c0-0.7-0.2-1.3-0.5-1.9c-0.3-0.6-0.9-1-1.5-1.2c-1.2-0.4-2.5-0.6-3.8-0.5h-0.1v7.3h0.4
				c1.2,0.1,2.5-0.1,3.7-0.5c0.6-0.3,1-0.7,1.3-1.3C606.4,417.1,606.6,416.4,606.6,415.8z M615.7,432.6l2.3,3.1h-6.6l-1.4-2
				c0-0.1-0.1,0-0.2-0.2l-0.8-1.1l-2.5-4.1c-0.6-0.9-1.3-1.7-2-2.5c-0.5-0.5-1-0.9-1.6-1.3c-0.7-0.3-1.5-0.4-2.3-0.3v11.3H595v-28.4
				h7.5c2.5-0.1,5,0.7,7,2.3c3,2.8,3.5,7.2,1.4,10.7c-0.6,0.9-1.5,1.7-2.5,2.2c0.6,0.5,1.1,1,1.6,1.6c1.3,1.6,2.5,3.3,3.5,5.1
				C614.4,430.8,615.1,431.9,615.7,432.6L615.7,432.6z"/>
			<polygon class="st1" points="592.6,430.8 592.6,435.7 575.6,435.7 575.6,407.4 591.8,407.4 591.8,413 580.4,413 580.4,419.5 
				591.8,419.5 591.8,424.4 580.4,424.4 580.4,430.8 			"/>
			<polygon class="st1" points="575.2,435.7 567.6,435.7 555.3,423.8 555.3,435.7 549.7,435.7 549.7,407.4 555.3,407.4 555.3,418.6 
				565.2,407.4 572.2,407.4 559.8,420.8 			"/>
			<polygon class="st1" points="548,430.8 548,435.7 530.2,435.7 530.2,407.4 535.9,407.4 535.9,430.8 			"/>
			<path class="st1" d="M516.8,407.4l12.7,28.3h-5.7l-3.6-7.3h-10.4l-3.3,7.3h-5.7l12.2-28.3H516.8z M518,422.7l-3-6.8l-2.8,6.8H518
				z"/>
			<path class="st1" d="M527.2,457.7c0,1.6-1.4,3.1-4.2,4.7c0.4,0.9,1.4,1.4,2.3,1.3c0.7,0,1.3-0.2,1.9-0.6c0.8-0.5,1.4-1.1,1.9-1.8
				l0.5,0.4c-0.6,1-1.4,1.9-2.3,2.5c-1,0.6-2.2,0.8-3.3,0.8c-0.9,0-1.8-0.3-2.4-0.9c-0.6-0.7-0.9-1.6-0.9-2.5c0-0.3,0-0.6,0.1-0.9
				c-0.4,0.5-0.6,0.8-0.8,1.1c-1,1.9-2.8,3.1-4.9,3.4l-0.1-0.4c0.8-0.2,1.6-0.5,2.2-1c0.8-0.7,1.6-1.6,2.2-2.5l0,0
				c1-1.5,2.1-2.9,3.4-4.1c0.7-0.6,1.7-1,2.6-1c0.5,0,0.9,0.1,1.2,0.4C527,456.9,527.1,457.3,527.2,457.7z M525.4,457.5
				c-0.2-0.2-0.5-0.4-0.8-0.4c-0.6,0-1.2,0.4-1.6,0.9c-0.4,0.6-0.7,1.3-0.6,2.1c0,0.4,0,0.7,0.1,1.1c0.1,0.2,0.1,0.3,0.2,0.5
				c2-1,3-2.1,3-3.3C525.7,458.1,525.6,457.7,525.4,457.5L525.4,457.5z"/>
			<polygon class="st1" points="505.4,450.9 506.7,452.5 505.4,454.1 504.1,452.5 			"/>
			<polygon class="st1" points="506.4,407.4 495,435.7 493,435.7 484.9,415.3 476.6,435.7 474.6,435.7 463.2,407.4 468.8,407.4 
				475.6,424.4 482.5,407.4 487.2,407.4 494.1,424.4 500.9,407.4 			"/>
			<polygon class="st1" points="462.2,407.4 462.2,435.7 458,435.7 441.1,416.7 441.1,435.7 436.3,435.7 436.3,407.4 440.4,407.4 
				457.3,427 457.3,407.4 			"/>
			<polygon class="st1" points="428.8,450.9 430.1,452.5 428.8,454.1 427.5,452.5 			"/>
			<path class="st1" d="M475.2,460.6c0,0.7,0.2,1.4,0.6,2c0.8,0.9,2.2,1,3.1,0.2c0.1-0.1,0.2-0.2,0.3-0.3c0.5-0.5,0.8-0.9,0.8-1.1
				v-3.7c-0.5-0.4-1.2-0.7-1.8-0.8c-0.8,0-1.5,0.4-2,1C475.5,458.7,475.2,459.7,475.2,460.6z M459.2,457.5c-0.2-0.2-0.5-0.4-0.8-0.4
				c-0.6,0-1.2,0.3-1.6,0.9c-0.4,0.6-0.7,1.3-0.6,2.1c0,0.4,0,0.7,0.1,1.1c0.1,0.2,0.1,0.3,0.1,0.5c2-1,3-2.1,3-3.3
				C459.5,458,459.4,457.7,459.2,457.5L459.2,457.5z M513.7,464c0-1.1-0.7-2.7-2.1-4.6c-0.4,0.4-0.7,0.9-1,1.4l-0.8,1.3l0,0
				c-0.5,0.8-1.2,1.4-1.9,2c-0.6,0.5-1.3,0.8-2,0.8c-0.7,0-1.1-0.2-1.2-0.5c-0.2-0.6-0.3-1.2-0.2-1.9v-3.3c-0.8,1-0.9,1.9-1.6,2.8
				h-0.1c-1.3,1.9-2.6,2.9-4.1,2.9c-0.7,0-1.1-0.2-1.3-0.5c-0.2-0.5-0.2-1.1-0.2-1.6v-4.4c-0.8,1.2-1.5,2.3-2.3,3.3h-0.1
				c-1,2-3,3.2-5.3,3.2c-0.9,0-1.9-0.3-2.5-1c-0.7-0.8-1.1-1.8-1-2.9v-0.1l-0.8,1.1c-1.3,2-2.6,2.9-3.9,2.9c-0.4,0-0.8-0.1-1.1-0.4
				c-0.3-0.5-0.4-1.1-0.3-1.7c-0.5,0.7-1.1,1.3-1.8,1.8c-0.5,0.3-1.1,0.4-1.7,0.4c-0.8,0-1.6-0.3-2.2-1c-0.5-0.7-0.8-1.7-0.7-2.6
				v-0.8c-0.8,0.2-0.6,0.6-1.1,1.3h-0.2c-1.3,2-2.6,3-3.9,3s-2.1-0.8-2.1-2.4c0.1-1.6,0.8-3.1,1.9-4.3c-0.4,0.1-0.8,0.1-1.2,0.1
				c-0.4,0-0.8-0.1-1.1-0.2c-0.6,1.3-1.4,2.5-2.2,3.7c-0.6,1-1.4,1.8-2.3,2.5c-1,0.6-2.2,0.8-3.4,0.8c-0.9,0-1.8-0.3-2.4-0.9
				c-0.6-0.7-0.9-1.6-0.9-2.5c0-0.3,0-0.6,0.1-0.9c-0.4,0.6-0.8,1-1,1.4h-0.1c-1.3,2-2.7,3-4.2,3c-0.7,0-1.3-0.2-1.4-0.5
				c-0.3-0.5-0.4-1.1-0.4-1.6v-4.4c-0.8,1.2-1.3,2.3-2,3.3h0.1c-1.5,2.1-2.9,3.2-4.2,3.2c-0.4,0-0.8-0.1-1-0.4
				c-0.3-0.6-0.4-1.3-0.3-2v-4.2c0-0.6-0.3-1-0.7-1c-0.3,0-0.5,0.1-0.7,0.2c-0.3,0.2-0.5,0.4-0.7,0.6c-0.4,0.5-0.8,0.9-1.1,1.4
				c-0.5,0.7-0.8,1-0.8,1.1v3.3l-1.6,1.2v-6.1c0,1-0.9,1.9-1.7,2.9l0,0c-0.5,0.8-1.2,1.5-1.9,2.1c-0.6,0.5-1.3,0.8-2,0.8
				c-0.7,0-1.1-0.2-1.3-0.5c-0.3-0.6-0.4-1.2-0.4-1.9v-3.3c-0.2,1.1-0.7,2-1.5,2.8l-0.4-0.5c1.1-1.4,1.8-2.9,2.3-4.5l2-1v5.8
				c0,0.7-0.1,1.2-0.1,1.4s0.1,0.4,0.3,0.4c0.5,0,1.4-0.8,2.5-2.3c1-1.3,1.7-2.8,2.1-4.4l1.6-0.9v3.4c0.6-1,1.4-1.9,2.3-2.6
				c0.5-0.4,1.1-0.6,1.8-0.7c0.5,0,0.9,0.2,1.2,0.5c0.4,0.8,0.5,1.8,0.4,2.7v2.4c0,0.5,0,0.9,0.1,1.4c0,0.2,0.2,0.4,0.5,0.4
				c0.5,0,1.3-0.7,2.4-2l0,0c0.5-0.7,0.8-1.3,1.1-1.8s0.6-1.1,1.1-2c0.3-0.4,0.5-0.9,0.6-1.4V449l2.4-1.8v6.9l2.7-4.4l0.6,0.5
				l-3.3,5.6v5.6c0,0.9-0.1,1.4-0.1,1.7s0.1,0.4,0.4,0.4c0.8,0,1.8-0.8,3-2.5l0,0c1-1.5,2.1-2.8,3.4-4c0.7-0.6,1.7-1,2.6-1
				c0.5,0,0.9,0.1,1.2,0.4c0.3,0.3,0.5,0.7,0.5,1.1c0,1.6-1.4,3.1-4.2,4.7c0.4,0.9,1.4,1.4,2.4,1.3c0.7,0,1.3-0.2,1.9-0.6
				c0.6-0.4,1.2-0.9,1.6-1.5l0,0c1.2-1.8,2.2-3.6,3-5.6c0.9,0.5,1.8,0.7,2.8,0.8c0.6,0,1.2-0.3,1.6-0.8l0.3,0.2
				c-0.7,0.9-1.3,1.8-1.8,2.8c-0.5,1-0.7,2-0.7,3.1c0,0.4,0.1,0.7,0.4,1c0.2,0.3,0.5,0.4,0.8,0.5c0.5,0,1-0.2,1.3-0.6
				c0.6-0.5,1.1-1.1,1.5-1.8l0,0c0.9-1.3,1.9-2.5,3.1-3.6c0.9-0.8,1.9-1.3,3.1-1.4c0.7,0,1.3,0.2,1.9,0.6l1.6-0.8v6.2
				c0,0.4,0,0.8,0.1,1.2c0.1,0.1,0.3,0.2,0.5,0.2c0.4-0.1,0.7-0.3,1-0.6c0.5-0.5,1-1.1,1.5-1.7c1.7-2.5,2.9-3.9,3.6-4.4
				c0.7-0.5,1.5-0.7,2.3-0.7c1.1-0.1,2.1,0.4,2.8,1.3c-0.2,0.6-0.6,1.2-1.2,1.5c-0.5-1.3-1.3-2-2.4-2c-0.6,0-1.3,0.3-1.6,0.8
				c-0.5,0.6-0.8,1.4-0.7,2.1c0,0.9,0.3,1.9,0.9,2.6c0.5,0.7,1.4,1.1,2.2,1.1c1.3-0.1,2.5-0.9,3.2-2l0,0c0.5-0.7,0.9-1.3,1.2-1.8
				s0.8-1.1,1.2-2c0.3-0.4,0.5-0.9,0.8-1.4V449l1.6-1.8v6.9l2.8-4.4l0.7,0.5l-3.5,5.5v5.6c0,0.6,0,1.1,0.1,1.7
				c0.1,0.3,0.3,0.5,0.6,0.4c0.8,0,1.8-0.8,2.9-2.4c0.9-1.3,1.5-2.7,1.9-4.1l1.7-1v5.8c0,0.5,0.1,1,0.2,1.4c0.1,0.2,0.3,0.4,0.6,0.3
				c0.5,0,1.4-0.8,2.6-2.4l0,0c0.2-0.3,0.4-0.6,0.6-1c0.4-0.6,0.6-1.1,0.8-1.4c0.7-0.8,1.1-1.8,1.1-2.9h0.3c0.2,1,0.6,1.9,1.2,2.6
				c0.5,0.8,1,1.6,1.3,2.5c0.1,0.5,0.2,1,0.2,1.5v0.5c1.6-2,2.9-4.1,2.9-6.3c0.1-0.7-0.1-1.4-0.5-2c-0.4-0.5-1-0.7-1.6-0.7
				c-0.5,0-1,0.1-1.4,0.4c-0.3-0.5-0.4-1.1-0.4-1.8c0.4-0.2,0.8-0.3,1.2-0.3c1,0,1.9,0.5,2.5,1.2c0.7,0.9,1.1,2,1,3.1
				c0,2.9-1.6,5.6-4.7,8.3l-0.2-0.1C513.6,464.6,513.6,464.3,513.7,464z"/>
			<path class="st1" d="M410.8,428.5c3.9,3.6,9.9,3.6,13.8,0c1.8-1.7,2.8-4.2,2.8-6.7c0.1-2.5-0.9-4.9-2.8-6.6
				c-1.8-1.8-4.3-2.7-6.8-2.7c-2.6-0.1-5.1,0.8-7,2.6c-1.8,1.8-2.8,4.2-2.7,6.8C408,424.4,409,426.8,410.8,428.5z M428.5,411.4
				c2.9,2.7,4.5,6.5,4.4,10.4c0.1,3.9-1.5,7.7-4.4,10.4c-3,2.7-6.9,4.2-11,4.1c-3.9,0.1-7.8-1.4-10.6-4.1c-2.8-2.7-4.4-6.4-4.3-10.3
				c-0.1-4,1.4-7.8,4.3-10.5c2.9-2.8,6.8-4.3,10.8-4.1C421.7,407.1,425.6,408.6,428.5,411.4L428.5,411.4z"/>
			<path class="st1" d="M385.4,431.1c2.6,0.1,5.1-0.9,6.9-2.7c1.8-1.8,2.8-4.2,2.8-6.7c0.1-2.5-0.9-4.9-2.8-6.6
				c-1.8-1.8-4.3-2.7-6.8-2.7c-2.6-0.1-5.1,0.8-7,2.6c-1.8,1.8-2.8,4.2-2.7,6.8c-0.1,2.5,0.9,4.9,2.7,6.6
				C380.4,430.3,382.9,431.2,385.4,431.1z M400.6,421.8c0.1,3.9-1.5,7.7-4.4,10.4c-3,2.7-6.9,4.2-11,4.1c-3.9,0.1-7.8-1.4-10.6-4.1
				c-2.8-2.7-4.4-6.4-4.3-10.3c-0.1-3.9,1.5-7.8,4.3-10.5c2.9-2.8,6.8-4.3,10.8-4.1c4-0.1,7.9,1.4,10.9,4.1
				C399.1,414.1,400.7,417.8,400.6,421.8z"/>
			<polygon class="st1" points="367.4,407.4 367.4,435.7 361.8,435.7 361.8,416.7 354.8,425.2 353.3,425.2 346.4,416.6 346.4,435.7 
				340.7,435.7 340.7,407.4 345.6,407.4 354.1,417.9 362.5,407.4 			"/>
			<path class="st2" d="M607.9,168.9c42.7,71.9,19,165-52.9,207.7c-3,1.8-6,3.2-9.1,4.9H409.3c-25.9-12.8-47.5-32.9-62.1-57.8
				c-42.7-71.9-19-164.9,52.9-207.6S565.2,97,607.9,168.9z M575.3,353.7c49.9-45.4,62.8-121.2,27-181.4c-33.1-55.8-98-81.2-158-67.2
				c-4.8,1.1-9.6,2.5-14.3,4.1c-55.5,60.3-51.6,154.2,8.7,209.7C475.5,352.8,526.8,365.8,575.3,353.7L575.3,353.7z"/>
			<path class="st3" d="M602.3,172.2c35.8,60.2,22.8,136-27,181.4c-79.5,19.9-160.1-28.3-180-107.8c-12.2-48.5,0.9-99.8,34.8-136.6
				c4.7-1.6,9.4-3,14.3-4.1C504.4,91,569.2,116.5,602.3,172.2z M567.6,268.9c10.6-6.3,14.1-19.9,7.8-30.5
				c-6.3-10.6-19.9-14.1-30.5-7.8c-10.6,6.3-14.1,19.9-7.8,30.5c5,8.4,14.8,12.5,24.2,10.3C563.6,271,565.7,270.1,567.6,268.9
				L567.6,268.9z M553.7,203.4c3.6-2.1,4.7-6.7,2.6-10.3c-2.1-3.6-6.7-4.7-10.3-2.6c-3.6,2.1-4.7,6.7-2.6,10.3
				C545.5,204.3,550.2,205.5,553.7,203.4C553.7,203.4,553.7,203.4,553.7,203.4L553.7,203.4z M532,176.7c9.2-5.5,12.2-17.4,6.7-26.6
				c-5.5-9.2-17.4-12.2-26.6-6.7s-12.2,17.4-6.7,26.6c4.3,7.2,12.8,10.9,21,8.9C528.4,178.5,530.3,177.8,532,176.7z M518.8,293.4
				c1.8-7.2-2.5-14.6-9.8-16.4c-7.2-1.8-14.6,2.5-16.4,9.8c-1.8,7.2,2.5,14.6,9.8,16.4c2.1,0.5,4.3,0.6,6.4,0.1
				c1.3-0.3,2.6-0.8,3.8-1.5C515.7,299.8,517.9,296.9,518.8,293.4z M506.4,239.7c8-4.8,10.7-15.1,5.9-23.2s-15.1-10.7-23.2-5.9
				c-8,4.8-10.7,15.1-5.9,23.2c3.8,6.3,11.2,9.5,18.4,7.8C503.3,241.2,504.9,240.5,506.4,239.7L506.4,239.7z M470,176.4
				c3.6-2.1,4.8-6.7,2.6-10.3c-2.1-3.6-6.7-4.8-10.3-2.6c-3.6,2.1-4.8,6.7-2.6,10.3C461.8,177.3,466.4,178.5,470,176.4
				C470,176.4,470,176.4,470,176.4z M458.7,271.8c3.6-2.1,4.7-6.8,2.6-10.3c-2.1-3.6-6.8-4.7-10.3-2.6c-3.6,2.1-4.7,6.7-2.6,10.3
				C450.5,272.8,455.1,274,458.7,271.8C458.7,271.8,458.7,271.8,458.7,271.8z M439.7,229.2c5.4-3.2,7.2-10.2,4-15.5
				c-3.2-5.4-10.2-7.2-15.5-4s-7.2,10.2-4,15.5c2.5,4.3,7.5,6.4,12.3,5.2C437.6,230.2,438.7,229.8,439.7,229.2L439.7,229.2z"/>
			<path class="st0" d="M575.4,238.4c6.3,10.6,2.8,24.3-7.8,30.5c-10.6,6.3-24.3,2.8-30.5-7.8c-6.3-10.6-2.8-24.2,7.8-30.5
				C555.5,224.3,569.1,227.8,575.4,238.4z M565.6,265.5c8.7-5.1,11.5-16.3,6.4-25c-5.1-8.7-16.3-11.5-25-6.4
				c-8.7,5.1-11.5,16.3-6.4,25C545.7,267.8,556.9,270.6,565.6,265.5L565.6,265.5z"/>
			<path class="st3" d="M571.9,240.5c5.1,8.7,2.3,19.9-6.4,25c-8.7,5.1-19.9,2.3-25-6.4c-5.1-8.7-2.3-19.9,6.4-25
				c1.6-0.9,3.3-1.6,5.1-2.1C559.8,230.2,567.9,233.6,571.9,240.5z"/>
			<path class="st0" d="M556.4,193c2.1,3.6,0.9,8.2-2.6,10.3c-3.6,2.1-8.2,0.9-10.3-2.6c-2.1-3.6-1-8.2,2.6-10.3
				C549.6,188.2,554.2,189.4,556.4,193C556.4,193,556.4,193,556.4,193z"/>
			<path class="st0" d="M538.8,150.1c5.5,9.2,2.5,21.2-6.8,26.7s-21.2,2.5-26.7-6.8c-5.5-9.2-2.5-21.2,6.8-26.7c0,0,0,0,0,0
				C521.4,137.8,533.3,140.9,538.8,150.1z M530,173.3c7.3-4.3,9.7-13.8,5.4-21.1c-2.1-3.5-5.5-6.1-9.4-7.1c-2.4-0.6-4.9-0.6-7.3-0.1
				c-1.5,0.4-3,1-4.4,1.8c-7.3,4.3-9.7,13.8-5.4,21.1C513.2,175.2,522.7,177.6,530,173.3z"/>
			<path class="st3" d="M535.3,152.2c4.3,7.3,1.9,16.8-5.4,21.1c-7.3,4.3-16.8,1.9-21.1-5.4c-4.3-7.3-1.9-16.7,5.4-21.1c0,0,0,0,0,0
				c1.4-0.8,2.8-1.4,4.4-1.8C525.1,143.5,531.9,146.4,535.3,152.2L535.3,152.2z"/>
			<path class="st0" d="M517.3,283.2c3.8,6.4,1.7,14.7-4.7,18.5c-3.1,1.8-6.8,2.4-10.2,1.5c-7.2-1.9-11.6-9.2-9.7-16.4
				c1.9-7.2,9.2-11.6,16.4-9.7C512.5,277.9,515.5,280.1,517.3,283.2L517.3,283.2z M514.8,292.4c1.3-5.1-1.8-10.2-6.8-11.5
				c-5.1-1.3-10.2,1.8-11.5,6.8c-1.3,5.1,1.8,10.2,6.8,11.5c2.4,0.6,5,0.2,7.1-1C512.7,296.9,514.2,294.8,514.8,292.4L514.8,292.4z"
				/>
			<path class="st3" d="M513.8,285.2c2.7,4.5,1.2,10.3-3.3,13c-4.5,2.7-10.3,1.2-13-3.3c-2.7-4.5-1.2-10.3,3.3-13
				c2.2-1.3,4.8-1.7,7.2-1.1C510.4,281.5,512.5,283.1,513.8,285.2z"/>
			<path class="st0" d="M512.3,216.5c4.8,8,2.1,18.4-5.9,23.1c-8,4.8-18.4,2.1-23.1-5.9c-4.8-8-2.1-18.4,5.9-23.1
				C497.2,205.9,507.5,208.5,512.3,216.5z M504.3,236.2c6.1-3.6,8.1-11.5,4.5-17.6c-2.9-4.8-8.5-7.2-14-5.9
				c-1.3,0.3-2.5,0.8-3.6,1.5c-6.1,3.6-8.1,11.5-4.5,17.6C490.3,237.8,498.2,239.8,504.3,236.2z"/>
			<path class="st3" d="M508.8,218.6c3.6,6.1,1.6,14-4.5,17.6c-6.1,3.6-14,1.6-17.6-4.5c-3.6-6.1-1.6-14,4.5-17.6
				c1.1-0.7,2.3-1.2,3.6-1.5C500.3,211.4,505.9,213.8,508.8,218.6z"/>
			<path class="st0" d="M472.6,166c2.1,3.6,0.9,8.2-2.6,10.3c-3.6,2.1-8.2,0.9-10.3-2.6c-2.1-3.6-1-8.2,2.6-10.3
				C465.9,161.2,470.5,162.4,472.6,166C472.6,166,472.6,166,472.6,166z"/>
			<path class="st0" d="M461.3,261.5c2.1,3.6,0.9,8.2-2.6,10.3c-3.6,2.1-8.2,0.9-10.3-2.6c-2.1-3.6-0.9-8.2,2.6-10.3
				C454.6,256.7,459.2,257.9,461.3,261.5C461.3,261.5,461.3,261.5,461.3,261.5z"/>
			<path class="st0" d="M443.6,213.7c3.2,5.4,1.4,12.3-4,15.5c-1,0.6-2.1,1-3.2,1.3c-6.1,1.4-12.2-2.3-13.6-8.4
				c-1.4-6.1,2.3-12.2,8.4-13.6C436.1,207.3,441.1,209.4,443.6,213.7L443.6,213.7z M437.6,225.7c3.5-2.1,4.6-6.5,2.5-10
				c-1.6-2.7-4.8-4.1-7.9-3.4c-0.7,0.2-1.4,0.5-2.1,0.8c-3.5,2-4.7,6.5-2.7,9.9c2,3.5,6.5,4.7,9.9,2.7
				C437.5,225.7,437.6,225.7,437.6,225.7L437.6,225.7z"/>
			<path class="st3" d="M440.2,215.8c2.1,3.5,0.9,7.9-2.5,10c-3.5,2.1-7.9,0.9-10-2.5l0,0c-2.1-3.5-0.9-7.9,2.5-10
				c0.6-0.4,1.3-0.7,2.1-0.8c1.1-0.3,2.3-0.3,3.5,0C437.6,212.8,439.2,214.1,440.2,215.8z"/>
			<rect x="548" y="459.2" class="st2" width="180.6" height="2.4"/>
			<rect x="637.1" y="420.3" class="st2" width="91.5" height="2.4"/>
			<rect x="231.4" y="373.3" class="st2" width="497.3" height="8.1"/>
			<rect x="231.4" y="459.2" class="st2" width="180.6" height="2.4"/>
			<rect x="231.4" y="420.3" class="st2" width="91.5" height="2.4"/>
		</g>
	</g>
</g>
</svg>
