<svg xmlns="http://www.w3.org/2000/svg" viewBox="0 0 270.33 270.33"><defs><style>.cls-1{fill:#282f39;}.cls-2{fill:#8a0917;opacity:0.82;}</style></defs><title>no-templates</title><g id="Layer_2" data-name="Layer 2"><g id="Layer_1-2" data-name="Layer 1"><path class="cls-1" d="M38,143.42V121.2H31.57a2.91,2.91,0,1,1,0-5.81H51.15a2.91,2.91,0,1,1,0,5.81H44.68v22.22a3.32,3.32,0,0,1-6.65,0Z"/><path class="cls-1" d="M63.14,123.38a10.86,10.86,0,0,1,11.25,10.88c0,2-1.25,2.79-3.53,2.79H57.7c.37,2.84,2.65,5.21,6.46,5.21A9.61,9.61,0,0,0,68.72,141a2.21,2.21,0,0,1,1.12-.28A2.36,2.36,0,0,1,72.16,143a2.45,2.45,0,0,1-1.25,2A14.93,14.93,0,0,1,63.51,147c-6.83,0-12-4.6-12-11.81A11.43,11.43,0,0,1,63.14,123.38Zm-5.53,9.67H68.67a5.2,5.2,0,0,0-5.53-5A5.4,5.4,0,0,0,57.61,133.05Z"/><path class="cls-1" d="M112.46,130.17v13.58a3,3,0,0,1-6,0V132.21c0-2.09-.93-3.58-3.35-3.58a6,6,0,0,0-4.65,2.6v12.51a3,3,0,0,1-6,0V132.21c0-2.09-.93-3.58-3.35-3.58a6,6,0,0,0-4.65,2.65v12.46a3,3,0,1,1-5.9,0V126.59a3,3,0,0,1,2.93-3,3,3,0,0,1,3,3v.23a9.87,9.87,0,0,1,7.3-3.44c3.3,0,5.39,1.53,6.23,4.09a9.53,9.53,0,0,1,7.72-4.09C110,123.38,112.46,125.57,112.46,130.17Z"/><path class="cls-1" d="M141,135.14c0,7.48-4.18,11.81-9.95,11.81a8.64,8.64,0,0,1-6.93-3.44v8.79a3,3,0,1,1-5.9,0V126.59a3,3,0,0,1,3-3.07,3,3,0,0,1,3,3.07v.14a8.67,8.67,0,0,1,6.88-3.35C136.86,123.38,141,127.66,141,135.14Zm-6.14,0c0-3.86-2.28-6.51-5.67-6.51a6.61,6.61,0,0,0-5.07,2.56v8a6.76,6.76,0,0,0,5.07,2.56C132.63,141.7,134.91,139,134.91,135.14Z"/><path class="cls-1" d="M145.46,143.74V118a3,3,0,1,1,5.9,0v25.71a3,3,0,1,1-5.9,0Z"/><path class="cls-1" d="M176.61,131.89v11.76a3,3,0,0,1-6,.42,9.28,9.28,0,0,1-7.07,2.88c-3.58,0-7.81-2.42-7.81-7.44,0-5.25,4.23-7.16,7.81-7.16,3,0,5.63.93,7.11,2.74V132c0-2.28-2-3.77-4.93-3.77a9,9,0,0,0-5,1.49,2.41,2.41,0,0,1-1.16.33,2.27,2.27,0,0,1-2.23-2.28,2.33,2.33,0,0,1,1.07-2,15,15,0,0,1,8.32-2.42C171.91,123.38,176.61,125.43,176.61,131.89ZM170.7,141v-2.79a5.9,5.9,0,0,0-4.74-2c-2.32,0-4.23,1.26-4.23,3.39s1.91,3.3,4.23,3.3A5.9,5.9,0,0,0,170.7,141Z"/><path class="cls-1" d="M194.83,144.16a2.4,2.4,0,0,1-1.77,2.32A9.26,9.26,0,0,1,190,147c-4.14,0-6.37-2.14-6.37-6.14V129.1h-1.44a2.58,2.58,0,1,1,0-5.16h1.44v-3.49a3,3,0,1,1,6,0v3.49h2.32a2.58,2.58,0,0,1,0,5.16h-2.32v10.13c0,1.39.7,2.46,2,2.46.42,0,.7-.09,1-.09A2.41,2.41,0,0,1,194.83,144.16Z"/><path class="cls-1" d="M208.36,123.38a10.86,10.86,0,0,1,11.25,10.88c0,2-1.25,2.79-3.53,2.79H202.92c.37,2.84,2.65,5.21,6.46,5.21a9.61,9.61,0,0,0,4.56-1.25,2.21,2.21,0,0,1,1.12-.28,2.36,2.36,0,0,1,2.32,2.32,2.45,2.45,0,0,1-1.25,2,14.93,14.93,0,0,1-7.39,1.86c-6.83,0-12-4.6-12-11.81A11.43,11.43,0,0,1,208.36,123.38Zm-5.53,9.67h11.06a5.2,5.2,0,0,0-5.53-5A5.4,5.4,0,0,0,202.83,133.05Z"/><path class="cls-1" d="M222.44,142.63a2.48,2.48,0,0,1,2.46-2.46,2.8,2.8,0,0,1,1.26.33,12.18,12.18,0,0,0,6.09,1.91c2.56,0,3.77-.88,3.77-2.28,0-1.58-2-2.14-4.51-2.65-3.86-.74-8.83-1.67-8.83-7,0-3.77,3.3-7.07,9.21-7.07a13.91,13.91,0,0,1,7.39,2,2.21,2.21,0,0,1,1.16,2,2.28,2.28,0,0,1-2.28,2.28,2.2,2.2,0,0,1-1.12-.28,9.82,9.82,0,0,0-5.11-1.44c-2.14,0-3.53.79-3.53,2.09s1.77,1.91,4.28,2.42c3.86.74,9,1.77,9,7.35,0,4.14-3.49,7.21-9.72,7.21a15.94,15.94,0,0,1-8.27-2.19A2.5,2.5,0,0,1,222.44,142.63Z"/><path class="cls-2" d="M135.17,0C60.64,0,0,60.63,0,135.17S60.64,270.33,135.17,270.33,270.33,209.7,270.33,135.17,209.7,0,135.17,0Zm0,23a111.63,111.63,0,0,1,70.73,25.18L48.18,205.89A112.1,112.1,0,0,1,135.17,23Zm0,224.33a111.64,111.64,0,0,1-70.73-25.18L222.16,64.44a112.1,112.1,0,0,1-87,182.89Z"/></g></g></svg>