<svg xmlns="http://www.w3.org/2000/svg" viewBox="0 0 423.68 247.15"><defs><style>.cls-1{fill:#fffae4;}.cls-2{fill:#26393d;}.cls-3{fill:#40627c;}.cls-4{fill:#d0a825;}</style></defs><title>pbor</title><g id="Layer_2" data-name="Layer 2"><g id="Layer_1-2" data-name="Layer 1"><rect class="cls-1" width="423.68" height="247.15"/><polygon class="cls-2" points="87.9 79.02 87.9 86.72 49.3 109.02 49.3 101.32 62.9 93.52 69.6 89.52 87.9 79.02"/><polygon class="cls-3" points="126.5 101.32 126.5 109.02 87.9 86.72 87.9 79.02 126.5 101.32"/><polygon class="cls-3" points="113 108.82 113 138.32 106.2 142.32 87.9 152.82 87.9 145.12 106.2 134.62 106.2 112.52 87.9 102.02 87.9 94.32 106.2 104.82 113 108.82"/><polygon class="cls-2" points="87.9 94.32 87.9 102.02 69.6 112.52 69.6 157.62 62.9 153.62 60.8 152.52 56.1 149.72 49.3 145.82 49.3 116.52 56.1 112.72 56.1 142.12 62.9 146.02 62.9 108.82 87.9 94.32"/><polygon class="cls-2" points="83.2 150.12 83.2 157.72 87.9 160.52 87.9 168.12 83.2 165.42 76.4 161.42 76.4 138.52 83.2 142.42 87.9 145.12 87.9 152.82 83.2 150.12"/><polygon class="cls-3" points="126.5 116.52 126.5 145.82 119.7 149.72 113 153.62 112 154.32 87.9 168.12 87.9 160.52 106.2 149.92 113 146.02 119.7 142.12 119.7 112.72 126.5 116.52"/><polygon class="cls-2" points="69.6 83.72 69.6 90.82 62.9 93.52 62.9 83.72 69.6 83.72"/><rect class="cls-4" x="78.2" y="113.82" width="8.7" height="8.7"/><rect class="cls-4" x="88.9" y="113.82" width="8.7" height="8.7"/><rect class="cls-4" x="88.9" y="124.62" width="8.7" height="8.7"/><rect class="cls-4" x="78.2" y="124.62" width="8.7" height="8.7"/><path class="cls-2" d="M135.75,129.42V96H150a9.07,9.07,0,0,1,4.3,1,10.94,10.94,0,0,1,5.6,6.1,10.65,10.65,0,0,1,0,8.1,13.06,13.06,0,0,1-2.1,3.6,10.3,10.3,0,0,1-3.3,2.5,9.9,9.9,0,0,1-4.2.9h-7.9v11.2Zm6.5-16.9h7.5a3.69,3.69,0,0,0,3-1.5,6.16,6.16,0,0,0,1.2-4,5.87,5.87,0,0,0-.4-2.3,6.93,6.93,0,0,0-1-1.7,4.86,4.86,0,0,0-1.4-1.1,4.71,4.71,0,0,0-1.7-.4h-7.2Z"/><path class="cls-2" d="M204.7,129.32V95.92h12.1a18.13,18.13,0,0,1,7.2,1.3,13.81,13.81,0,0,1,5.1,3.6,14.83,14.83,0,0,1,3.1,5.3,19.68,19.68,0,0,1,1,6.5,19.23,19.23,0,0,1-1.2,6.9,15.87,15.87,0,0,1-3.3,5.3,14.24,14.24,0,0,1-5.2,3.4,18.31,18.31,0,0,1-6.8,1.2h-12Zm22-16.8a12.32,12.32,0,0,0-.7-4.4,10.78,10.78,0,0,0-1.9-3.5,9,9,0,0,0-3.1-2.3,10.84,10.84,0,0,0-4.2-.8h-5.6v22h5.6a11.76,11.76,0,0,0,4.3-.8,9,9,0,0,0,3.1-2.3,10.78,10.78,0,0,0,1.9-3.5A15.1,15.1,0,0,0,226.7,112.52Z"/><path class="cls-2" d="M252.5,123.62a8,8,0,0,0,3.9-.9,7.18,7.18,0,0,0,2.5-2.4,12.21,12.21,0,0,0,1.4-3.5,17.52,17.52,0,0,0,.4-4v-17h6.4v17a26.08,26.08,0,0,1-.8,6.4,13.84,13.84,0,0,1-2.6,5.3,13.28,13.28,0,0,1-4.5,3.6,15.25,15.25,0,0,1-6.6,1.3,15.54,15.54,0,0,1-6.8-1.4,11,11,0,0,1-4.5-3.7,13.68,13.68,0,0,1-2.5-5.3,25.88,25.88,0,0,1-.8-6.3v-17h6.5v17a18.4,18.4,0,0,0,.4,4.1,9.89,9.89,0,0,0,1.4,3.5,7.18,7.18,0,0,0,2.5,2.4A6.76,6.76,0,0,0,252.5,123.62Z"/><path class="cls-2" d="M271.6,112.12a17.69,17.69,0,0,1,1.1-6,15.06,15.06,0,0,1,3.2-5.3,16.31,16.31,0,0,1,12.2-5.3,15.82,15.82,0,0,1,8,2,12.75,12.75,0,0,1,5,5.3l-5,3.4a10,10,0,0,0-1.6-2.4,7,7,0,0,0-2-1.5,6.31,6.31,0,0,0-2.3-.8,9.69,9.69,0,0,0-2.3-.3,8.54,8.54,0,0,0-4.3,1,9.42,9.42,0,0,0-3,2.6,11.07,11.07,0,0,0-1.8,3.6,13.86,13.86,0,0,0-.6,4,12.51,12.51,0,0,0,.7,4.3,10.49,10.49,0,0,0,2,3.6,10.67,10.67,0,0,0,3.1,2.5,8.72,8.72,0,0,0,4,.9,10.5,10.5,0,0,0,2.4-.3,9.17,9.17,0,0,0,2.3-.9,7.42,7.42,0,0,0,2-1.6,7.63,7.63,0,0,0,1.5-2.3l5.3,3.1a8.56,8.56,0,0,1-2.3,3.3,15.47,15.47,0,0,1-3.3,2.4,13.76,13.76,0,0,1-4,1.5,20,20,0,0,1-4.1.5,13.84,13.84,0,0,1-6.5-1.5,17.1,17.1,0,0,1-8.4-9.4A15.93,15.93,0,0,1,271.6,112.12Z"/><path class="cls-2" d="M374.38,96v33.4H368v-14.3h-15.1v14.3h-6.5V96h6.5v13.5H368V96Z"/><polygon class="cls-2" points="199.42 129.42 192.86 129.42 192.86 109.59 181.46 100.67 170.07 109.59 170.07 129.42 163.5 129.42 163.5 106.39 181.46 92.34 199.42 106.39 199.42 129.42"/><rect class="cls-2" x="178.21" y="107.31" width="6.5" height="13.65" transform="translate(295.59 -67.33) rotate(90)"/><rect class="cls-2" x="168.14" y="95.02" width="6.5" height="8.8" transform="translate(342.77 198.84) rotate(180)"/><polygon class="cls-2" points="341.17 129.42 334.61 129.42 334.61 109.59 323.21 100.67 311.82 109.59 311.82 129.42 305.25 129.42 305.25 106.39 323.21 92.34 341.17 106.39 341.17 129.42"/><rect class="cls-2" x="319.96" y="107.31" width="6.5" height="13.65" transform="translate(437.34 -209.08) rotate(90)"/><rect class="cls-2" x="309.89" y="95.02" width="6.5" height="8.8" transform="translate(626.28 198.84) rotate(180)"/><path class="cls-3" d="M137.56,133.15h5.63a5.63,5.63,0,0,1,3.93,1.24,4.14,4.14,0,0,1,1.37,3.2q0,2.78-3.19,3.63a4.12,4.12,0,0,1,2.59,1.46,4.38,4.38,0,0,1,1,2.89,3.82,3.82,0,0,1-1.5,3,5.82,5.82,0,0,1-3.92,1.28h-5.9Zm1.69,1.38v6h3.94a3.92,3.92,0,0,0,2.63-.81,2.74,2.74,0,0,0,.94-2.19,2.77,2.77,0,0,0-.94-2.2,3.88,3.88,0,0,0-2.63-.82Zm0,13.95h4.18a4.11,4.11,0,0,0,2.8-.87,3,3,0,0,0,1-2.39,2.92,2.92,0,0,0-1.1-2.4,4.52,4.52,0,0,0-2.91-.88h-4Z"/><path class="cls-3" d="M153.55,147.59a8.82,8.82,0,0,1,0-12.21,8.78,8.78,0,0,1,12.07,0,8.51,8.51,0,0,1-6,14.61A8.3,8.3,0,0,1,153.55,147.59Zm10.85-1a7.76,7.76,0,0,0,0-10.21,7,7,0,0,0-9.68,0,7.75,7.75,0,0,0,0,10.21,7,7,0,0,0,9.67,0Z"/><path class="cls-3" d="M182.59,149.82l-1.4-3.89h-7.78L172,149.82h-1.69l6.14-16.68h1.74l6.11,16.68Zm-8.7-5.25h6.79l-3.38-9.33Z"/><path class="cls-3" d="M189.07,142.84v7h-1.69V133.15h5.1a6.05,6.05,0,0,1,4.25,1.34,4.43,4.43,0,0,1,1.45,3.4,4.8,4.8,0,0,1-1.14,3.32,5.26,5.26,0,0,1-3.38,1.56l4.74,7.06h-2.2l-4.52-7Zm0-8.31v6.94h3.41q4,0,4-3.47t-4-3.47Z"/><path class="cls-3" d="M207.08,133.15a8.65,8.65,0,0,1,6.32,2.24,8.28,8.28,0,0,1,2.28,6.2,8,8,0,0,1-2.27,6.1,8.87,8.87,0,0,1-6.33,2.14H202V133.15Zm-3.43,15.37h3.43a6.76,6.76,0,0,0,5.11-1.82,8.33,8.33,0,0,0,0-10.22,6.76,6.76,0,0,0-5.11-1.82h-3.43Z"/><path class="cls-3" d="M227.37,147.59a8.82,8.82,0,0,1,0-12.21,8.78,8.78,0,0,1,12.07,0,8.51,8.51,0,0,1-6,14.61A8.3,8.3,0,0,1,227.37,147.59Zm10.85-1a7.76,7.76,0,0,0,0-10.21,7,7,0,0,0-9.68,0,7.75,7.75,0,0,0,0,10.21,7,7,0,0,0,9.67,0Z"/><path class="cls-3" d="M244.64,149.82V133.15h9v1.38h-7.3v6.24h5.82v1.35h-5.82v7.71Z"/><path class="cls-3" d="M264.89,142.84v7H263.2V133.15h5.1a6.05,6.05,0,0,1,4.25,1.34,4.43,4.43,0,0,1,1.45,3.4,4.8,4.8,0,0,1-1.14,3.32,5.26,5.26,0,0,1-3.38,1.56l4.74,7.06H272l-4.52-7Zm0-8.31v6.94h3.41q4,0,4-3.47t-4-3.47Z"/><path class="cls-3" d="M286.26,133.15v1.38h-6.79v6.24h6.07v1.35h-6.07v6.36h6.79v1.35h-8.48V133.15Z"/><path class="cls-3" d="M301.31,149.82l-1.4-3.89h-7.78l-1.43,3.89H289l6.14-16.68h1.74L303,149.82Zm-8.7-5.25h6.79L296,135.25Z"/><path class="cls-3" d="M306.1,133.15h1.69v15.37h6.07v1.31H306.1Z"/><path class="cls-3" d="M315.53,134.52v-1.38h10.42v1.38h-4.37v15.3H319.9v-15.3Z"/><path class="cls-3" d="M330.55,147.59a8.82,8.82,0,0,1,0-12.21,8.78,8.78,0,0,1,12.07,0,8.51,8.51,0,0,1-6,14.61A8.3,8.3,0,0,1,330.55,147.59Zm10.85-1a7.76,7.76,0,0,0,0-10.21,7,7,0,0,0-9.68,0,7.74,7.74,0,0,0,0,10.21,7,7,0,0,0,9.67,0Z"/><path class="cls-3" d="M349.51,142.84v7h-1.69V133.15h5.1a6.06,6.06,0,0,1,4.25,1.34,4.43,4.43,0,0,1,1.45,3.4,4.79,4.79,0,0,1-1.14,3.32,5.26,5.26,0,0,1-3.38,1.56l4.74,7.06h-2.2l-4.52-7Zm0-8.31v6.94h3.41q4,0,4-3.47t-4-3.47Z"/><path class="cls-3" d="M363.6,137.55a2.45,2.45,0,0,0,.52,1.62,3.07,3.07,0,0,0,1.34.93,13.79,13.79,0,0,0,1.81.52q1,.22,2,.48a9.17,9.17,0,0,1,1.81.69,3.34,3.34,0,0,1,1.34,1.29,4.13,4.13,0,0,1,.52,2.15,4.57,4.57,0,0,1-1.43,3.34,5.27,5.27,0,0,1-3.9,1.43,6.73,6.73,0,0,1-4-1.11,3.5,3.5,0,0,1-1.55-3h1.79a2.73,2.73,0,0,0,1,1.92,4,4,0,0,0,2.67.76,4.15,4.15,0,0,0,2.83-.92,2.91,2.91,0,0,0,1.05-2.28,2.36,2.36,0,0,0-1-2.05,5.93,5.93,0,0,0-2.33-1q-1.37-.27-2.73-.62a4.81,4.81,0,0,1-2.33-1.37,4.11,4.11,0,0,1-1-2.95,4.05,4.05,0,0,1,1.44-3.19,5.56,5.56,0,0,1,3.79-1.26,5.77,5.77,0,0,1,3.71,1.09,4.5,4.5,0,0,1,1.64,2.9h-1.91a2.59,2.59,0,0,0-1-1.78,3.82,3.82,0,0,0-2.51-.76,4,4,0,0,0-2.59.8A2.8,2.8,0,0,0,363.6,137.55Z"/></g></g></svg>