<svg xmlns="http://www.w3.org/2000/svg" viewBox="0 0 452.87 161.9"><defs><style>.cls-1{fill:#993533;}.cls-2{fill:#f09400;}.cls-3{fill:#feab47;}.cls-4{fill:#bd4f49;}.cls-5{fill:#c4c4c4;}.cls-6{fill:#d8d8d8;}.cls-7{fill:#edd4a5;}.cls-8{fill:#dbbc93;}.cls-9{fill:#282828;}.cls-10{fill:#b7b7b7;}</style></defs><title>pencil</title><g id="Layer_2" data-name="Layer 2"><g id="Layer_1-2" data-name="Layer 1"><path class="cls-1" d="M68.51,154.26,402.15,42.88l8.88-3,17.51-5.84,8.63-2.88,10.15-3.39s7.53-2.79,5.07-10.15l-2-6.09-2-6.09C445.77-2.13,438.16.41,438.16.41L428,3.8l-8.63,2.88-17.51,5.84-8.88,3L59.36,126.86,24.95,148.78l-15.31,9.9,18.19-1.28Z"/><path class="cls-2" d="M54.55,143.69,388.18,32.32l-4.57-13.7L50,130s-6.34,4.65-4.82,9.22S54.55,143.69,54.55,143.69Z"/><path class="cls-3" d="M392.76,46l-4.57-13.7L54.55,143.69s-6.34,4.65-4.82,9.22,9.39,4.48,9.39,4.48Z"/><path class="cls-4" d="M442.74,20.87l-2-6.09h0l-2-6.09c-2.54-7.61-10.15-5.07-10.15-5.07L418.37,7l4.57,13.7h0l4.57,13.7L437.67,31S445.19,28.23,442.74,20.87Z"/><rect class="cls-5" x="389.98" y="30.55" width="9.36" height="14.44" transform="translate(8.35 126.91) rotate(-18.46)"/><rect class="cls-5" x="416.37" y="21.78" width="9.09" height="14.44" transform="translate(12.47 134.77) rotate(-18.46)"/><rect class="cls-6" x="398.62" y="26.14" width="18.46" height="14.44" transform="translate(10.42 130.86) rotate(-18.46)"/><path class="cls-7" d="M17.25,156.14a23.56,23.56,0,0,1,.93,4.48l40.94-3.23s-7.87.09-9.39-4.48,4.82-9.22,4.82-9.22l-7.1,2.37Z"/><path class="cls-8" d="M45.16,139.21C43.63,134.65,50,130,50,130L15.56,151.92a26.35,26.35,0,0,1,1.95,4.14l29.94-10,7.1-2.37S46.68,143.78,45.16,139.21Z"/><path class="cls-9" d="M17.25,156.14A23.56,23.56,0,0,0,15.31,152L0,161.9l18.19-1.28A13.25,13.25,0,0,0,17.25,156.14Z"/><rect class="cls-10" x="385.4" y="16.85" width="9.36" height="14.44" transform="translate(12.45 124.76) rotate(-18.46)"/><rect class="cls-10" x="411.8" y="8.08" width="9.09" height="14.44" transform="translate(16.58 132.62) rotate(-18.46)"/><rect class="cls-5" x="394.05" y="12.44" width="18.46" height="14.44" transform="translate(14.52 128.71) rotate(-18.46)"/></g></g></svg>