<svg xmlns="http://www.w3.org/2000/svg" viewBox="0 0 1920 388.59"><defs><style>.cls-1{fill:#2291bf;}.cls-2{fill:#4d4d4f;}.cls-3{fill:#231f20;}.cls-4{fill:#404041;}.cls-5{fill:#f8a01b;}.cls-6{fill:#fbc265;}.cls-7{fill:#fcb837;}.cls-8{fill:#bbbdbf;}.cls-9{fill:#e6e7e8;}.cls-10{fill:#58595b;}.cls-11{fill:#a6a8ab;}.cls-12{fill:#808184;}</style></defs><title>phone</title><g id="Layer_2" data-name="Layer 2"><g id="Layer_1-2" data-name="Layer 1"><rect class="cls-1" width="1920" height="388.59"/><path class="cls-2" d="M254.16,368.45a5.26,5.26,0,0,1-5.06-3.83l-8.78-31.16a5.26,5.26,0,0,1,6.23-6.55l.24-.34a5.25,5.25,0,0,1,2.88-1.88,5.26,5.26,0,0,1,6.55-5.63l.93.24a5.26,5.26,0,0,1,6.33-6.46l2.67.65a5.26,5.26,0,0,1,5-9l4.26,1.33-.34-.31a5.26,5.26,0,0,1,3.78-9.14,5.26,5.26,0,0,1,6-8.46l4.32,2.11-5.52-6.34a5.26,5.26,0,0,1,6.94-7.78l.32.22a5.26,5.26,0,0,1,4.44-6.18,5.26,5.26,0,0,1,7.17-5.32l3.41,1.35-4.55-4.55a5.26,5.26,0,0,1,5.74-8.56l.75.31a5.26,5.26,0,0,1,3.92-8.68l-.72-.68a5.26,5.26,0,0,1,6.25-8.37l0,0a5.26,5.26,0,0,1,4.94-4.47l-1.14-1.1a5.26,5.26,0,0,1,6.38-8.27,92.49,92.49,0,0,0,10.77,5.46c7.75,3.26,11.22,3,11.9,2.62.19-.26,1.28-2.06,1.16-9-.09-5.29-.84-11.61-1.5-17.19-.9-7.63-1.43-12.47-1-15.67.72-4.89,4.91-9.53,12.82-14.19a83.75,83.75,0,0,1,10.15-5,5.26,5.26,0,0,1,3.91,9.75,74.18,74.18,0,0,0-8.78,4.37c-7.12,4.21-7.69,6.61-7.7,6.63-.29,2,.39,7.79,1,12.91,1.95,16.48,2.93,28.6-2.27,34.45-2.83,3.18-6.88,3.94-10.86,3.66l5.79,5.58a5.26,5.26,0,0,1-3.37,9,5.26,5.26,0,0,1-4.37,8,5.26,5.26,0,0,1-6.75,5.93,5.26,5.26,0,0,1-7.25,5.47l-3.53-1.48,3.64,3.64a5.26,5.26,0,0,1-5.65,8.6l-3.43-1.36,1.19,1.19a5.26,5.26,0,0,1-5.48,8.67l2.45,3a5.26,5.26,0,0,1-5.12,8.48,5.26,5.26,0,0,1-5.6,6.28,5.26,5.26,0,0,1-7.17,5.73l-.78-.32A5.26,5.26,0,0,1,295,323l-.27-.08a5.26,5.26,0,0,1-4.61,7.08,5.26,5.26,0,0,1-6.15,7.17l-1.87-.48a5.26,5.26,0,0,1-6,8.16L265,340.64l6.91,9.82a5.26,5.26,0,0,1-7.95,6.81l-8.28-8,3.52,12.49a5.26,5.26,0,0,1-5.06,6.68Z"/><path class="cls-3" d="M360.84,189.17a8.76,8.76,0,0,1-5.06-15.91,82.21,82.21,0,0,1,14.75-7.92,8.76,8.76,0,0,1,6.53,16.26,64.77,64.77,0,0,0-11.17,6A8.72,8.72,0,0,1,360.84,189.17Z"/><path class="cls-4" d="M314.31,376.61a5.26,5.26,0,0,1-5.11-4l-2.38-10-2,9.87a5.26,5.26,0,0,1-10.36-.39l-.06-.47a5.26,5.26,0,0,1-8.13.6v.06a5.26,5.26,0,0,1-10.2.73,5.17,5.17,0,0,1-2.95.86,5.26,5.26,0,0,1-5.14-4.55l-.06-.43a5.26,5.26,0,0,1-10.07-1.17,5.26,5.26,0,0,1-9.05-3.14l-.46-5.14a5.26,5.26,0,0,1-9.08-3.6V332.43a5.26,5.26,0,0,1,8.61-4,5.26,5.26,0,0,1,8.14,1.88,5.26,5.26,0,0,1,9.81.62,5.26,5.26,0,0,1,8.07,3.7l.33,2.4a5.26,5.26,0,0,1,7.14.17l.17-1a5.26,5.26,0,0,1,9-2.76,5.26,5.26,0,0,1,9.85,1.82l.49,3.89.41-2a5.26,5.26,0,0,1,10.26-.17l1.25,5.25.83-6.4a5.25,5.25,0,0,1,5.13-4.58h.08a5.25,5.25,0,0,1,5.19,4.42l.36,2.26.53-3.36a5.26,5.26,0,0,1,5.19-4.44h.08a5.26,5.26,0,0,1,5.13,4.6l.34,2.73,1.11-5.91a5.26,5.26,0,0,1,10-1.19,5.26,5.26,0,0,1,4.79-3.09h0a5.26,5.26,0,0,1,5.22,4.66l.28,2.45.63-2.95a5.26,5.26,0,0,1,9.31-2.11l.21-1.46a5.26,5.26,0,0,1,5.19-4.49h0a5.26,5.26,0,0,1,5.2,4.47l.55,3.68.88-5.92a5.25,5.25,0,0,1,5.18-4.48h0a5.26,5.26,0,0,1,5.19,4.45l.25,1.58,1.2-7.78a5.26,5.26,0,0,1,10.43.36l.69,8.24a63.05,63.05,0,0,1,5.55-7.33c8.28-9.44,18.35-15.31,26.28-15.31a5.26,5.26,0,0,1,0,10.51c-9.27,0-29.68,18.36-29.68,38a5.26,5.26,0,0,1-8.57,4.07l-.68,4.41a5.26,5.26,0,0,1-5.19,4.45h0a5.26,5.26,0,0,1-5.19-4.45l-.16-1-1,6.45a5.26,5.26,0,0,1-5.19,4.48h0a5.26,5.26,0,0,1-5.2-4.47l-.52-3.44-.5,3.42a5.26,5.26,0,0,1-10.42-.17l-.28-2.42-.62,2.92a5.26,5.26,0,0,1-8.27,3.13l-.1.89a5.26,5.26,0,0,1-10.43.07l-.8-6.17-1.22,6.47a5.26,5.26,0,0,1-10.24.41,5.26,5.26,0,0,1-5.06,3.88h0a5.26,5.26,0,0,1-5.07-3.88,5.26,5.26,0,0,1-4.8,3.87Z"/><path class="cls-3" d="M418.9,325.72A8.76,8.76,0,0,1,413.52,310c4.88-3.79,12.35-8.3,20.26-8.3a8.76,8.76,0,1,1,0,17.52c-1.64,0-5.12,1.21-9.51,4.62A8.72,8.72,0,0,1,418.9,325.72Z"/><path class="cls-5" d="M855.47,78.54c-19-15.69-116.8-55.7-157.53-62.71a421.33,421.33,0,0,0-77.14-5.69,421.33,421.33,0,0,0-77.14,5.69c-40.73,7-138.56,47-157.53,62.71-18.22,15.07-31.53,45.76-29.47,66.69a45.36,45.36,0,0,0,6.54,19.67l13.57,23.5c5.18,9,33.33-2.52,71.07-24.31s61.77-40.42,56.59-49.39l-5.75-10c-7.61-13.2,4-21.27,11.56-21.27s68.19-4.93,110.55-4.93,103,4.93,110.55,4.93,19.17,8.07,11.57,21.27l-5.75,10c-5.18,9,18.85,27.6,56.59,49.39s65.89,33.29,71.07,24.31l13.57-23.5a45.36,45.36,0,0,0,6.54-19.67C887,124.3,873.69,93.61,855.47,78.54Z"/><path class="cls-6" d="M799.27,154.56C769.54,137.4,747.5,122,739.32,111l-11.54,20c-5.18,9,18.85,27.6,56.59,49.39s65.89,33.29,71.07,24.31l11.54-20C853.35,183.12,829,171.73,799.27,154.56Z"/><path class="cls-5" d="M787.75,174.51C758,157.34,736,142,727.81,130.92l-4.6,8c-5.18,9,16.53,31.62,54.27,53.41s68.21,29.27,73.39,20.3l4.6-8C841.83,203.06,817.48,191.67,787.75,174.51Z"/><path class="cls-6" d="M513.82,131l-11.54-20c-8.18,11-30.21,26.42-59.94,43.59s-54.08,28.55-67.72,30.12l11.54,20c5.18,9,33.33-2.52,71.07-24.31S519,139.93,513.82,131Z"/><path class="cls-5" d="M453.86,174.51c29.73-17.16,51.77-32.56,59.94-43.58l4.6,8c5.18,9-16.53,31.62-54.27,53.41s-68.21,29.27-73.39,20.3l-4.6-8C399.78,203.06,424.13,191.67,453.86,174.51Z"/><path class="cls-5" d="M720.41,69.51c0,48.09,2,133.57,32.75,181.26,25.84,40.09,61.76,48.74,61.76,48.74v-8.76s-20.54-3.17-48.62-41.74c-34.4-47.25-42.82-116.67-42.82-179.51Z"/><path class="cls-5" d="M521.2,69.51c0,48.09-2,133.57-32.75,181.26-25.84,40.09-61.76,48.74-61.76,48.74v-8.76s20.54-3.17,48.62-41.74c34.4-47.25,42.82-116.67,42.82-179.51Z"/><path class="cls-7" d="M426.7,299.51s35.91-8.65,61.76-48.74C519.2,203.08,521.2,117.6,521.2,69.51A5.51,5.51,0,0,1,526.71,64h21.35a5.51,5.51,0,0,1,5.51,5.51v38.94H688V69.51A5.51,5.51,0,0,1,693.55,64H714.9a5.51,5.51,0,0,1,5.51,5.51c0,48.09,2,133.57,32.75,181.26,25.84,40.09,61.76,48.74,61.76,48.74Z"/><path class="cls-5" d="M814.91,361.52a12.29,12.29,0,0,1-12.29,12.29H439a12.29,12.29,0,0,1-12.29-12.29v-62H814.91Z"/><path class="cls-7" d="M426.7,327.17v34.35A12.29,12.29,0,0,0,439,373.81H802.62a12.29,12.29,0,0,0,12.29-12.29V327.17Z"/><path class="cls-6" d="M720.72,97.37A197.25,197.25,0,0,0,688,78.54v29.9H553.57V82.88a165,165,0,0,0-33,23.91c-1.75,47.36-8.31,107-32.14,144a128.31,128.31,0,0,1-12.83,16.74c66.94-2.46,173.17-12.34,260.62-54.52C724.88,176.45,721.62,132.54,720.72,97.37Z"/><path class="cls-8" d="M443.78,388.59h57.53a3.79,3.79,0,0,0,3.78-3.79v-11H440v11A3.79,3.79,0,0,0,443.78,388.59Z"/><path class="cls-8" d="M740.29,388.59h57.53a3.79,3.79,0,0,0,3.78-3.79v-11h-65.1v11A3.79,3.79,0,0,0,740.29,388.59Z"/><rect class="cls-9" x="581.52" y="340.78" width="78.58" height="15.36"/><ellipse class="cls-10" cx="619.79" cy="175.88" rx="91.1" ry="83.57"/><path class="cls-4" d="M528.69,175.88c0,46.15,40.79,83.57,91.1,83.57s91.1-37.41,91.1-83.57l.44,5.69c0,46.15-41.22,83.57-91.53,83.57s-91.53-37.42-91.53-83.57Z"/><ellipse class="cls-8" cx="619.79" cy="173.04" rx="52.47" ry="45.29"/><ellipse class="cls-3" cx="636.42" cy="108.28" rx="14.11" ry="10.2"/><path class="cls-4" d="M650.52,108.28c0-5.64-6.32-10.2-14.11-10.2s-14.11,4.57-14.11,10.2a7.66,7.66,0,0,0,.68,3.14c0-.06,0-.12,0-.18,0-5.37,6-9.71,13.43-9.71s13.43,4.35,13.43,9.71c0,.06,0,.12,0,.18A7.66,7.66,0,0,0,650.52,108.28Z"/><ellipse class="cls-3" cx="602.71" cy="110.06" rx="14.11" ry="10.2"/><path class="cls-4" d="M616.81,110.06c0-5.64-6.32-10.2-14.11-10.2s-14.11,4.57-14.11,10.2a7.66,7.66,0,0,0,.68,3.14c0-.06,0-.12,0-.18,0-5.37,6-9.71,13.43-9.71s13.43,4.35,13.43,9.71c0,.06,0,.12,0,.18A7.66,7.66,0,0,0,616.81,110.06Z"/><ellipse class="cls-3" cx="573.89" cy="125.84" rx="14.11" ry="10.2"/><path class="cls-4" d="M588,125.84c0-5.64-6.32-10.2-14.11-10.2s-14.11,4.57-14.11,10.2a7.66,7.66,0,0,0,.68,3.14c0-.06,0-.12,0-.18,0-5.37,6-9.71,13.43-9.71s13.43,4.35,13.43,9.71c0,.06,0,.12,0,.18A7.66,7.66,0,0,0,588,125.84Z"/><ellipse class="cls-3" cx="553.8" cy="149.39" rx="14.11" ry="10.2"/><path class="cls-4" d="M567.91,149.39c0-5.64-6.32-10.2-14.11-10.2s-14.11,4.57-14.11,10.2a7.66,7.66,0,0,0,.68,3.14c0-.06,0-.12,0-.18,0-5.37,6-9.71,13.43-9.71s13.43,4.35,13.43,9.71c0,.06,0,.12,0,.18A7.66,7.66,0,0,0,567.91,149.39Z"/><ellipse class="cls-3" cx="548.75" cy="177.7" rx="14.11" ry="10.2"/><path class="cls-4" d="M562.86,177.7c0-5.64-6.32-10.2-14.11-10.2s-14.11,4.57-14.11,10.2a7.66,7.66,0,0,0,.68,3.14c0-.06,0-.12,0-.18,0-5.37,6-9.71,13.43-9.71s13.43,4.35,13.43,9.71c0,.06,0,.12,0,.18A7.65,7.65,0,0,0,562.86,177.7Z"/><ellipse class="cls-3" cx="581.52" cy="227.26" rx="14.92" ry="10.79"/><path class="cls-4" d="M596.44,227.26c0-6-6.68-10.79-14.92-10.79s-14.92,4.83-14.92,10.79a8.1,8.1,0,0,0,.72,3.32c0-.06,0-.13,0-.19,0-5.68,6.36-10.28,14.2-10.28s14.2,4.6,14.2,10.28c0,.06,0,.13,0,.19A8.09,8.09,0,0,0,596.44,227.26Z"/><ellipse class="cls-3" cx="557.76" cy="205.67" rx="14.92" ry="10.79"/><path class="cls-4" d="M572.68,205.67c0-6-6.68-10.79-14.92-10.79s-14.92,4.83-14.92,10.79a8.1,8.1,0,0,0,.72,3.32c0-.06,0-.13,0-.19,0-5.68,6.36-10.28,14.2-10.28s14.2,4.6,14.2,10.28c0,.06,0,.13,0,.19A8.1,8.1,0,0,0,572.68,205.67Z"/><ellipse class="cls-3" cx="617.87" cy="237.9" rx="14.95" ry="10.82"/><path class="cls-4" d="M632.82,237.9c0-6-6.7-10.82-15-10.82s-15,4.84-15,10.82a8.12,8.12,0,0,0,.73,3.33c0-.06,0-.13,0-.19,0-5.69,6.37-10.3,14.23-10.3s14.23,4.61,14.23,10.3c0,.06,0,.13,0,.19A8.11,8.11,0,0,0,632.82,237.9Z"/><ellipse class="cls-3" cx="665.77" cy="122.7" rx="14.11" ry="10.2"/><path class="cls-4" d="M679.87,122.7c0-5.64-6.32-10.2-14.11-10.2s-14.11,4.57-14.11,10.2a7.66,7.66,0,0,0,.68,3.14c0-.06,0-.12,0-.18,0-5.37,6-9.71,13.43-9.71s13.43,4.35,13.43,9.71c0,.06,0,.12,0,.18A7.65,7.65,0,0,0,679.87,122.7Z"/><ellipse class="cls-3" cx="685.37" cy="147.42" rx="14.11" ry="10.2"/><path class="cls-4" d="M699.47,147.42c0-5.64-6.32-10.2-14.11-10.2s-14.11,4.57-14.11,10.2a7.66,7.66,0,0,0,.68,3.14c0-.06,0-.12,0-.18,0-5.37,6-9.71,13.43-9.71s13.43,4.35,13.43,9.71c0,.06,0,.12,0,.18A7.66,7.66,0,0,0,699.47,147.42Z"/><path class="cls-8" d="M670.48,227.26c-8.7-5.92-8.7-21.45-12.73-18.27s-.64,21.49,8,28c9,6.76,14.11,4.85,14.11,4.85s1.42,11.21-5.11,17.51l15.87-4.8v-24S679.17,233.18,670.48,227.26Z"/><path class="cls-11" d="M678.61,230.57a80.84,80.84,0,0,0-8.26,9.38c6.11,3.18,9.53,1.92,9.53,1.92s1.42,11.21-5.11,17.51l15.87-4.8v-24A32,32,0,0,1,678.61,230.57Z"/><path class="cls-12" d="M679.87,241.87s1.42,11.21-5.11,17.51l15.87-4.8v-24Z"/></g></g></svg>