<svg xmlns="http://www.w3.org/2000/svg" viewBox="0 0 318.6 94.08"><defs><style>.cls-1{fill:#b2b2b2;}.cls-2{opacity:0.1;}.cls-3{fill:#989898;}</style></defs><title>pipe</title><g id="Layer_2" data-name="Layer 2"><g id="Layer_1-2" data-name="Layer 1"><path class="cls-1" d="M174.8,11.51c-2.6,0-4.72,2.91-4.72,6.46V76.11c0,3.55,2.12,6.46,4.72,6.46H318.38l.22.07V11.51Z"/><path class="cls-2" d="M318.6,47.08H170.08v29c0,3.55,2.12,6.46,4.72,6.46H318.38l.22.07"/><polygon class="cls-3" points="203.24 11.51 203.24 82.65 216.96 86.06 216.96 7.95 203.24 11.51"/><polygon class="cls-1" points="203.24 11.51 0 11.51 0 82.58 202.94 82.58 203.24 82.65 203.24 11.51"/><path class="cls-3" d="M299.56,8V86.13A7.13,7.13,0,0,0,306.66,79v-64A7.13,7.13,0,0,0,299.56,8Z"/><path class="cls-1" d="M294.89,8s0,.08,0,.12V86s0,.08,0,.12h4.67V8Z"/><path class="cls-1" d="M263.41,8.08s0-.08,0-.12H217v78.1l.3.07h46.16s0-.08,0-.12Z"/><path class="cls-3" d="M294.89,8a8.07,8.07,0,0,0-8.06-8V94.08a8.07,8.07,0,0,0,8.06-8s0-.08,0-.12V8.08S294.89,8,294.89,8Z"/><path class="cls-3" d="M263.42,8s0,.08,0,.12V86s0,.08,0,.12a8.07,8.07,0,0,0,8.06,8V0A8.07,8.07,0,0,0,263.42,8Z"/><polygon class="cls-1" points="271.48 0 271.48 7.95 271.48 86.13 271.48 94.08 286.82 94.08 286.82 86.13 286.82 7.95 286.82 0 271.48 0"/><path class="cls-2" d="M0,47.08V82.5a.08.08,0,0,0,.08.08H202.94l.3.07L217,86.06l.3.07h46.16a8.07,8.07,0,0,0,8.06,8h15.34a8.07,8.07,0,0,0,8.06-8h5.71a6.08,6.08,0,0,0,6.06-6.06v-33Z"/></g></g></svg>