<svg xmlns="http://www.w3.org/2000/svg" xmlns:xlink="http://www.w3.org/1999/xlink" viewBox="0 0 1188.72 642.2"><defs><style>.cls-1{fill:url(#linear-gradient);}.cls-2{fill:#ffe4b3;}.cls-3{fill:#282f39;}.cls-4{fill:#e0f5f8;}.cls-27,.cls-40,.cls-5{fill:#fff;}.cls-17,.cls-18,.cls-23,.cls-26,.cls-35,.cls-37,.cls-38,.cls-39,.cls-6,.cls-7,.cls-8{fill:none;}.cls-6,.cls-7,.cls-8{stroke:#000;}.cls-17,.cls-18,.cls-23,.cls-26,.cls-27,.cls-35,.cls-37,.cls-38,.cls-39,.cls-40,.cls-6,.cls-7,.cls-8{stroke-miterlimit:10;}.cls-7{stroke-dasharray:12.43 12.43;}.cls-8{stroke-dasharray:14.33 14.33;}.cls-9{fill:#2291bf;}.cls-10{fill:#f7a806;}.cls-11{fill:#f7b906;}.cls-12{fill:#b3b3b3;}.cls-13,.cls-14,.cls-29{fill:#1a1a1a;}.cls-13{opacity:0.72;}.cls-14{opacity:0.42;}.cls-15{fill:#ffba38;}.cls-16{fill:#f15d2f;}.cls-17{stroke:#fff;}.cls-17,.cls-18,.cls-23{stroke-width:2px;}.cls-18,.cls-35,.cls-37{stroke:#999;}.cls-18,.cls-23{stroke-linecap:round;}.cls-19{fill:#e6e6e6;}.cls-20{fill:#999;}.cls-21,.cls-29{opacity:0.12;}.cls-22{fill:url(#linear-gradient-2);}.cls-23{stroke:#b3b3b3;}.cls-24{opacity:0.28;}.cls-25{fill:#ccc;}.cls-26,.cls-27{stroke:#282f39;}.cls-26,.cls-27,.cls-38,.cls-39,.cls-40{stroke-width:3px;}.cls-28{fill:#f2f2f2;}.cls-30{opacity:0.63;}.cls-31{fill:#e59d35;}.cls-32{fill:url(#linear-gradient-3);}.cls-33{fill:#4d4d4d;}.cls-34{fill:#2ab4d3;}.cls-36{opacity:0.35;}.cls-37{stroke-dasharray:2.91 2.91;}.cls-38,.cls-39,.cls-40{stroke:#004358;}.cls-39{stroke-dasharray:15.42 15.42;}.cls-41{fill:#004358;}</style><linearGradient id="linear-gradient" x1="1031.07" y1="239.52" x2="1041.39" y2="239.52" gradientUnits="userSpaceOnUse"><stop offset="0"/><stop offset="1" stop-color="#fff"/></linearGradient><linearGradient id="linear-gradient-2" x1="1024.8" y1="219.86" x2="1047.05" y2="219.86" xlink:href="#linear-gradient"/><linearGradient id="linear-gradient-3" x1="492.46" y1="224.6" x2="453.46" y2="195.85" gradientUnits="userSpaceOnUse"><stop offset="0" stop-color="#e6e6e6"/><stop offset="1" stop-color="gray"/></linearGradient></defs><title>responsive</title><g id="Layer_2" data-name="Layer 2"><g id="laptop"><rect class="cls-1" x="1031.07" y="215.92" width="10.33" height="47.21"/><polygon class="cls-2" points="806.46 117.58 786.46 156.92 826.46 156.92 806.46 117.58"/><rect class="cls-3" x="629.37" y="316.92" width="434" height="296"/><rect class="cls-4" x="646.37" y="335.92" width="402" height="258"/><rect class="cls-5" x="681.37" y="355.92" width="330" height="218"/><polyline class="cls-6" points="995.37 445.92 995.37 451.92 989.37 451.92"/><line class="cls-7" x1="976.94" y1="451.92" x2="709.59" y2="451.92"/><polyline class="cls-6" points="703.37 451.92 697.37 451.92 697.37 445.92"/><line class="cls-8" x1="697.37" y1="431.59" x2="697.37" y2="410.09"/><polyline class="cls-6" points="697.37 402.92 697.37 396.92 703.37 396.92"/><line class="cls-7" x1="715.81" y1="396.92" x2="983.16" y2="396.92"/><polyline class="cls-6" points="989.37 396.92 995.37 396.92 995.37 402.92"/><line class="cls-8" x1="995.37" y1="417.25" x2="995.37" y2="438.75"/><rect class="cls-9" x="696.37" y="365.92" width="53" height="15"/><polygon class="cls-10" points="816.37 151.5 806.37 156.92 796.37 151.5 786.37 156.92 786.37 316.92 826.37 316.92 826.37 156.92 816.37 151.5"/><polygon class="cls-11" points="806.37 156.92 800.45 153.71 800.45 156.92 800.45 316.92 812.46 316.92 812.46 156.92 812.46 153.62 806.37 156.92"/><polygon points="806.37 117.58 798.58 132.92 814.17 132.92 806.37 117.58"/><rect class="cls-12" x="696.37" y="553.56" width="301.5" height="3.75"/><rect class="cls-9" x="697.37" y="467.27" width="77" height="70.65"/><rect class="cls-5" x="703.99" y="474.09" width="45.98" height="7.83"/><rect class="cls-5" x="703.99" y="524.48" width="19.13" height="5.82"/><rect class="cls-13" x="703.99" y="492.81" width="56.43" height="3.91"/><rect class="cls-14" x="703.99" y="500.99" width="61.73" height="3.91"/><rect class="cls-13" x="703.99" y="509.17" width="54.19" height="3.91"/><rect class="cls-14" x="703.99" y="516.73" width="58.29" height="3.91"/><rect class="cls-15" x="809.12" y="467.27" width="77" height="70.65"/><rect class="cls-5" x="815.74" y="474.09" width="45.98" height="7.83"/><rect class="cls-5" x="815.74" y="524.48" width="19.13" height="5.82"/><rect class="cls-13" x="815.74" y="492.81" width="56.43" height="3.91"/><rect class="cls-14" x="815.74" y="500.99" width="61.73" height="3.91"/><rect class="cls-13" x="815.74" y="509.17" width="54.19" height="3.91"/><rect class="cls-14" x="815.74" y="516.73" width="58.29" height="3.91"/><rect class="cls-16" x="920.87" y="467.27" width="77" height="70.65"/><rect class="cls-5" x="927.49" y="474.09" width="45.98" height="7.83"/><rect class="cls-5" x="927.49" y="524.48" width="19.13" height="5.82"/><rect class="cls-13" x="927.49" y="492.81" width="56.43" height="3.91"/><rect class="cls-14" x="927.49" y="500.99" width="61.73" height="3.91"/><rect class="cls-13" x="927.49" y="509.17" width="54.19" height="3.91"/><rect class="cls-14" x="927.49" y="516.73" width="58.29" height="3.91"/><circle class="cls-10" cx="1036.23" cy="263.13" r="7.75"/><path class="cls-10" d="M729.37,171.92v44h358v-44Zm15.92,28.75a6.75,6.75,0,1,1,6.75-6.75A6.75,6.75,0,0,1,745.3,200.67Z"/><rect class="cls-11" x="729.37" y="205.92" width="358" height="10"/><rect class="cls-9" x="837.97" y="365.92" width="49.64" height="7.86"/><rect class="cls-15" x="893.1" y="365.92" width="49.64" height="7.86"/><rect class="cls-16" x="948.24" y="365.92" width="49.64" height="7.86"/><line class="cls-17" x1="738.55" y1="215.86" x2="738.55" y2="208.96"/><line class="cls-17" x1="761.17" y1="215.86" x2="761.17" y2="208.96"/><line class="cls-17" x1="783.79" y1="215.86" x2="783.79" y2="208.96"/><line class="cls-17" x1="806.41" y1="215.86" x2="806.41" y2="208.96"/><line class="cls-17" x1="829.03" y1="215.86" x2="829.03" y2="208.96"/><line class="cls-17" x1="851.66" y1="215.86" x2="851.66" y2="208.96"/><line class="cls-17" x1="874.28" y1="215.86" x2="874.28" y2="208.96"/><line class="cls-17" x1="896.9" y1="215.86" x2="896.9" y2="208.96"/><line class="cls-17" x1="1010.01" y1="215.86" x2="1010.01" y2="208.96"/><line class="cls-17" x1="1032.63" y1="215.86" x2="1032.63" y2="208.96"/><line class="cls-17" x1="1055.26" y1="215.86" x2="1055.26" y2="208.96"/><line class="cls-17" x1="1077.88" y1="215.86" x2="1077.88" y2="208.96"/><line class="cls-17" x1="919.52" y1="215.86" x2="919.52" y2="208.96"/><line class="cls-17" x1="942.15" y1="215.86" x2="942.15" y2="208.96"/><line class="cls-17" x1="964.77" y1="215.86" x2="964.77" y2="208.96"/><line class="cls-18" x1="921.46" y1="399.29" x2="1033.84" y2="316.67"/><line class="cls-17" x1="987.39" y1="215.86" x2="987.39" y2="208.96"/><rect class="cls-19" x="599.79" y="612.92" width="493.17" height="14.64"/><path class="cls-20" d="M1040.26,642.2H652.49a100.44,100.44,0,0,1-46.4-11.36l-6.3-3.28H1093l-6.3,3.28A100.44,100.44,0,0,1,1040.26,642.2Z"/><rect class="cls-12" x="599.79" y="612.92" width="493.17" height="3.89"/><polygon class="cls-3" points="886.12 623.06 806.62 623.06 803.12 612.92 889.62 612.92 886.12 623.06"/><rect class="cls-21" x="786.46" y="215.92" width="39.92" height="6.89"/><polygon class="cls-22" points="1024.8 215.92 1024.8 219.86 1028.63 223.81 1043.21 223.81 1047.05 219.86 1047.05 215.92 1024.8 215.92"/><path class="cls-11" d="M1054.71,313a4.5,4.5,0,0,0-6.36-.13A17.87,17.87,0,1,1,1036,282h.26a5.16,5.16,0,0,0,5.16-5.16V263.13h-10.33V273.5a26.87,26.87,0,1,0,23.51,45.82A4.5,4.5,0,0,0,1054.71,313Z"/><line class="cls-23" x1="1156.63" y1="381.35" x2="1033.84" y2="316.67"/><rect class="cls-3" x="894.85" y="386.04" width="292.49" height="51.36" transform="translate(-25.03 70) rotate(-3.81)"/><path class="cls-5" d="M1030.87,425.58l-22.19-8.08-.21-3.11,20.85-12.2.35,5.21-14.4,7.87,15.26,5.11Z"/><path class="cls-5" d="M1049.12,396.9l-9.72,32.53-6,.4,9.72-32.53Z"/><path class="cls-5" d="M1052.72,418.91l14.45-7.09-15.31-5.9-.35-5.21,22.28,9.34.21,3.11-20.93,10.94Z"/></g><g id="desktop"><g class="cls-24"><path d="M629.37,316.67V558.34h25c9.3,0,16.84-8.25,16.84-18.43V316.67Z"/></g><path class="cls-12" d="M494.89,633h-198s34,0,34-85.5c0-32.47,129.89-32.47,129.89,0C460.84,633,494.89,633,494.89,633Z"/><rect class="cls-3" x="131.16" y="157.53" width="529.47" height="389.98" rx="15.82" ry="15.82"/><path class="cls-25" d="M131.16,508.93H660.63a0,0,0,0,1,0,0v22.91A15.67,15.67,0,0,1,645,547.51H146.83a15.67,15.67,0,0,1-15.67-15.67V508.93A0,0,0,0,1,131.16,508.93Z"/><rect class="cls-4" x="157.91" y="174.93" width="482" height="315"/><rect class="cls-5" x="178.24" y="188.21" width="441.35" height="288.43"/><rect class="cls-19" x="296.9" y="633" width="197.99" height="7.92"/><rect class="cls-20" x="330.93" y="547.51" width="129.97" height="7.92"/><line class="cls-26" x1="364.35" y1="253.1" x2="583.15" y2="253.1"/><path class="cls-26" d="M583.15,303.56a143.82,143.82,0,0,0-218.8,0"/><rect class="cls-26" x="350.89" y="303.56" width="13.46" height="13.46"/><rect class="cls-26" x="583.15" y="303.56" width="13.46" height="13.46"/><rect class="cls-27" x="467.49" y="246.37" width="13.46" height="13.46"/><circle class="cls-26" cx="357.62" cy="253.1" r="6.73"/><circle class="cls-26" cx="589.88" cy="253.1" r="6.73"/><rect class="cls-28" x="182.16" y="109.34" width="48.19" height="48.19"/><rect class="cls-19" x="182.16" y="109.34" width="24.09" height="48.19"/><rect class="cls-28" x="246.41" y="109.34" width="48.19" height="48.19"/><rect class="cls-19" x="246.5" y="109.34" width="24.09" height="48.19"/><rect class="cls-28" x="310.84" y="109.34" width="48.19" height="48.19"/><rect class="cls-19" x="310.84" y="109.34" width="24.09" height="48.19"/><rect class="cls-12" x="197.91" y="452.81" width="398.22" height="5.14"/><rect class="cls-9" x="197.91" y="343.93" width="97" height="89"/><rect class="cls-5" x="206.25" y="352.52" width="57.93" height="9.86"/><rect class="cls-5" x="206.25" y="416.01" width="24.09" height="7.33"/><rect class="cls-13" x="206.25" y="376.1" width="71.09" height="4.93"/><rect class="cls-14" x="206.25" y="386.41" width="77.76" height="4.93"/><rect class="cls-13" x="206.25" y="396.72" width="68.26" height="4.93"/><rect class="cls-14" x="206.25" y="406.24" width="73.43" height="4.93"/><rect class="cls-15" x="350.41" y="343.93" width="97" height="89"/><rect class="cls-5" x="358.75" y="352.52" width="57.93" height="9.86"/><rect class="cls-5" x="358.75" y="416.01" width="24.09" height="7.33"/><rect class="cls-13" x="358.75" y="376.1" width="71.09" height="4.93"/><rect class="cls-14" x="358.75" y="386.41" width="77.76" height="4.93"/><rect class="cls-13" x="358.75" y="396.72" width="68.26" height="4.93"/><rect class="cls-14" x="358.75" y="406.24" width="73.43" height="4.93"/><rect class="cls-16" x="499.14" y="343.93" width="97" height="89"/><rect class="cls-5" x="507.48" y="352.52" width="57.93" height="9.86"/><rect class="cls-5" x="507.48" y="416.01" width="24.09" height="7.33"/><rect class="cls-13" x="507.48" y="376.1" width="71.09" height="4.93"/><rect class="cls-14" x="507.48" y="386.41" width="77.76" height="4.93"/><rect class="cls-13" x="507.48" y="396.72" width="68.26" height="4.93"/><rect class="cls-14" x="507.48" y="406.24" width="73.43" height="4.93"/><rect class="cls-9" x="412.9" y="200.67" width="56.88" height="9.01"/><rect class="cls-15" x="476.08" y="200.67" width="56.88" height="9.01"/><rect class="cls-16" x="539.26" y="200.67" width="56.88" height="9.01"/><path class="cls-3" d="M167,29.71l-1.91,1.91-9.43-9.43a10.27,10.27,0,0,0-14.53,0h0a10.27,10.27,0,0,0,0,14.53l9.43,9.43-1.91,1.91a2.44,2.44,0,0,0,0,3.45L150,52.86a2.44,2.44,0,0,0,3.45,0L171.8,34.51a2.44,2.44,0,0,0,0-3.45l-1.35-1.35A2.44,2.44,0,0,0,167,29.71Z"/><path class="cls-5" d="M156.11,50.21l32.25,32.25,8.14.82,2.86,2.86a4,4,0,0,0,5.71,0h0a4,4,0,0,0,0-5.71l-2.86-2.86-.82-8.14L169.14,37.17Z"/><path class="cls-9" d="M168.36,62.46l20,20,8.14.82,2.86,2.86a4,4,0,0,0,5.71,0h0a4,4,0,0,0,0-5.71l-2.86-2.86-.82-8.14-7-7Z"/><path class="cls-9" d="M209.75,113.56v-.3C209.75,113.4,209.75,113.51,209.75,113.56Z"/><path class="cls-9" d="M230.35,107.4H182.16a2.9,2.9,0,0,0-2.9,2.9V114a2.9,2.9,0,0,0,2.9,2.9v-7.56h1.06a4,4,0,0,1,3.9,3.92v18.55a5,5,0,1,0,10,0V115.37a1.31,1.31,0,0,1,2.63,0v4.2a5,5,0,1,0,10,0V109.34h0v3.92a4,4,0,0,1,3.9-3.92h16.7v7.56a2.9,2.9,0,0,0,2.9-2.9v-3.7A2.9,2.9,0,0,0,230.35,107.4Z"/><path class="cls-15" d="M274.09,113.56v-.3C274.09,113.4,274.09,113.51,274.09,113.56Z"/><path class="cls-15" d="M294.69,107.4H246.5a2.9,2.9,0,0,0-2.9,2.9V114a2.9,2.9,0,0,0,2.9,2.9v-7.56h1.06a4,4,0,0,1,3.9,3.92v18.55a5,5,0,1,0,10,0V115.37a1.31,1.31,0,0,1,2.63,0v4.2a5,5,0,1,0,10,0V109.34h0v3.92a4,4,0,0,1,3.9-3.92h16.7v7.56a2.9,2.9,0,0,0,2.9-2.9v-3.7A2.9,2.9,0,0,0,294.69,107.4Z"/><path class="cls-16" d="M338.43,113.56v-.3C338.43,113.4,338.43,113.51,338.43,113.56Z"/><path class="cls-16" d="M359,107.4H310.84a2.9,2.9,0,0,0-2.9,2.9V114a2.9,2.9,0,0,0,2.9,2.9v-7.56h1.06a4,4,0,0,1,3.9,3.92v18.55a5,5,0,0,0,10,0V115.37a1.31,1.31,0,0,1,2.63,0v4.2a5,5,0,0,0,10,0V109.34h0v3.92a4,4,0,0,1,3.9-3.92H359v7.56a2.9,2.9,0,0,0,2.9-2.9v-3.7A2.9,2.9,0,0,0,359,107.4Z"/><path class="cls-29" d="M141.14,22.2a10.27,10.27,0,0,0,0,14.53l9.43,9.43-1.91,1.91a2.44,2.44,0,0,0,0,3.45L150,52.86a2.44,2.44,0,0,0,3.45,0l2.66-2.66,12.25,12.25,20,20,8.14.82,2.86,2.86a4,4,0,0,0,5.71,0Z"/><rect class="cls-9" x="197.91" y="200.67" width="60.73" height="17.19"/><g class="cls-30"><polygon points="517.51 462.21 515.64 462.21 515.64 547.51 521.27 547.51 517.51 462.21 517.51 462.21"/><polygon points="579.64 541.88 515.64 541.88 515.64 547.51 579.64 547.51 579.64 541.88 579.64 541.88"/><polygon points="579.64 504.88 515.64 504.88 515.64 510.51 579.64 510.51 579.64 504.88 579.64 504.88"/><polygon points="598.01 462.21 596.14 462.21 596.14 547.51 601.77 547.51 598.01 462.21 598.01 462.21"/></g><path class="cls-15" d="M579.64,462.21v26h-64v-26h-16.5v180h16.5v-26h64v26h16.5v-180Zm0,137.48h-64V579h64Zm0-37.16h-64V541.88h64Zm0-37.16h-64V504.72h64Z"/><rect class="cls-31" x="515.64" y="612.96" width="64" height="3.23"/><rect class="cls-31" x="515.64" y="575.82" width="64" height="3.23"/><rect class="cls-31" x="515.64" y="538.64" width="64" height="3.23"/><rect class="cls-31" x="515.64" y="501.63" width="64" height="3.23"/><path class="cls-9" d="M438,143.57c-2.87,2.87-4.14,7.72-4.14,7.72a38.63,38.63,0,0,1,18.85,11l4.71-1.88-.75,15.27,2.54.38s-.1.4-.23,1.07a15.32,15.32,0,0,1,12.9-11V152c-.42-10-18.09-39.3-18.09-66s6.93-54.14,6.93-54.14A167.27,167.27,0,0,0,462,12.16C462,2,461.59,0,451.7,0s-9.61,9.47-9.61,9.47S441,24.17,441,28.84s-7.07,21.34-7.07,49.33,8.85,52.58,8.85,55.13S440.9,140.69,438,143.57Z"/><path class="cls-9" d="M488.48,177.16c-.12-.68-.23-1.07-.23-1.07l2.54-.38L490,160.44l4.71,1.88a38.63,38.63,0,0,1,18.85-11s-1.27-4.85-4.15-7.72-4.71-7.73-4.71-10.27,8.86-27.14,8.86-55.13-7.07-44.67-7.07-49.33-1.13-19.37-1.13-19.37S505.69,0,495.8,0s-10.32,2-10.32,12.16a167.27,167.27,0,0,0,1.27,19.65s6.93,27.42,6.93,54.14-17.67,56-18.09,66v14.19A15.32,15.32,0,0,1,488.48,177.16Z"/><path class="cls-32" d="M473.75,196.68a15.33,15.33,0,0,1-14.2-9.54c-.36.17-2.2,1.33-2.2,6.94,0,6.22,11,46.93,11,46.93H472V218.8c-1.91-1.24-3.27-4.46-3.27-8.23,0-4.84,2.24-8.77,5-8.77s5,3.93,5,8.77c0,3.78-1.36,7-3.26,8.23V241h3.64s11-40.71,11-46.93c0-5.64-1.86-6.79-2.21-6.95A15.31,15.31,0,0,1,473.75,196.68Z"/><circle class="cls-33" cx="473.75" cy="181.36" r="15.35"/><circle class="cls-5" cx="473.75" cy="181.36" r="8.49"/><path class="cls-34" d="M510.62,68.09s1.13,45.42-7,53.53-.94-37.51-.94-52-8.1-36.75-8.1-43.54,8-8.48,8-4.33S510.62,58.1,510.62,68.09Z"/><path class="cls-34" d="M436.88,68.09s-1.13,45.42,7,53.53.94-37.51.94-52,8.1-36.75,8.1-43.54-8-8.48-8-4.33S436.88,58.1,436.88,68.09Z"/><path class="cls-21" d="M468.75,210.56c0-4.42,1.87-8.07,4.29-8.67V166c-.38,0-.76.05-1.13.09V152c-.42-10-18.09-39.3-18.09-66s6.93-54.14,6.93-54.14A167.26,167.26,0,0,0,462,12.16C462,2,461.59,0,451.7,0s-9.61,9.47-9.61,9.47S441,24.17,441,28.84s-7.07,21.34-7.07,49.33,8.85,52.58,8.85,55.13-1.84,7.4-4.71,10.27-4.14,7.72-4.14,7.72a38.63,38.63,0,0,1,18.85,11l4.71-1.88-.75,15.27,2.54.38s-.08.34-.19.9a15.27,15.27,0,0,0,.5,10.16c-.39.19-2.19,1.38-2.19,6.94,0,6.22,11,46.93,11,46.93H472V218.8C470.11,217.56,468.75,214.34,468.75,210.56Z"/></g><g id="mobile"><g class="cls-24"><path d="M162.12,352.52h-31V531.79c0,8.68,6.61,15.71,14.77,15.71h29.57V366.76C175.49,358.89,169.5,352.52,162.12,352.52Z"/></g><rect class="cls-3" x="36.07" y="361.22" width="131.33" height="232.67" rx="14.33" ry="14.33"/><rect class="cls-5" x="48.74" y="382.56" width="106" height="176.67"/><rect class="cls-35" x="57.97" y="420.39" width="87.55" height="57.17"/><rect class="cls-5" x="90.49" y="369.89" width="22.5" height="5"/><circle class="cls-5" cx="101.74" cy="576.64" r="8"/><rect class="cls-9" x="57.97" y="391.89" width="36.38" height="11.5"/><rect class="cls-9" x="57.97" y="486.88" width="87.55" height="15.5"/><rect class="cls-5" x="63.76" y="492.13" width="22.5" height="5"/><rect class="cls-36" x="91.7" y="492.13" width="48.02" height="5"/><rect class="cls-15" x="57.97" y="509.88" width="87.55" height="15.5"/><rect class="cls-5" x="63.76" y="515.13" width="22.5" height="5"/><rect class="cls-36" x="91.7" y="515.13" width="48.02" height="5"/><rect class="cls-16" x="57.97" y="532.88" width="87.55" height="15.5"/><rect class="cls-5" x="63.76" y="538.13" width="22.5" height="5"/><rect class="cls-36" x="91.7" y="538.13" width="48.02" height="5"/><rect class="cls-9" x="57.97" y="409.64" width="27.18" height="4.5"/><rect class="cls-15" x="88.15" y="409.64" width="27.18" height="4.5"/><rect class="cls-16" x="118.34" y="409.64" width="27.18" height="4.5"/><line class="cls-35" x1="143.52" y1="422.39" x2="142.25" y2="423.19"/><line class="cls-37" x1="139.8" y1="424.76" x2="62.46" y2="473.97"/><line class="cls-35" x1="61.23" y1="474.75" x2="59.97" y2="475.56"/><line class="cls-35" x1="59.97" y1="422.39" x2="61.23" y2="423.19"/><line class="cls-37" x1="63.69" y1="424.76" x2="141.02" y2="473.97"/><line class="cls-35" x1="142.25" y1="474.75" x2="143.52" y2="475.56"/><polyline class="cls-38" points="319.49 614.05 319.49 621.55 311.99 621.55"/><line class="cls-39" x1="296.57" y1="621.55" x2="26.71" y2="621.55"/><polyline class="cls-38" points="19 621.55 11.5 621.55 11.5 614.05"/><line class="cls-39" x1="11.5" y1="598.63" x2="11.5" y2="328.77"/><polyline class="cls-38" points="11.5 321.06 11.5 313.56 19 313.56"/><line class="cls-39" x1="34.42" y1="313.56" x2="304.28" y2="313.56"/><polyline class="cls-38" points="311.99 313.56 319.49 313.56 319.49 321.06"/><line class="cls-39" x1="319.49" y1="336.48" x2="319.49" y2="606.34"/><rect class="cls-40" x="1.5" y="303.56" width="20" height="20"/><rect class="cls-40" x="155.49" y="303.56" width="20" height="20"/><rect class="cls-40" x="309.49" y="303.56" width="20" height="20"/><rect class="cls-40" x="1.5" y="611.55" width="20" height="20"/><rect class="cls-40" x="1.5" y="457.56" width="20" height="20"/><rect class="cls-40" x="155.49" y="611.55" width="20" height="20"/><rect class="cls-40" x="309.49" y="457.56" width="20" height="20"/><polygon class="cls-41" points="333.92 613.18 303.76 605.83 311.12 635.98 317.26 627.42 327.11 637.27 335.21 629.17 325.36 619.32 333.92 613.18"/><polygon class="cls-24" points="896.87 447.05 1063.37 447.05 1063.37 435.97 896.87 447.05"/></g></g></svg>