<svg xmlns="http://www.w3.org/2000/svg" viewBox="0 0 312.63 153.4"><defs><style>.cls-1{fill:#ff7b5c;}.cls-2{fill:#f15d2f;}.cls-3{fill:#8ea3af;}.cls-4{fill:#b0c0c6;}.cls-5{fill:#cfdae0;}</style></defs><title>scissors</title><g id="Layer_2" data-name="Layer 2"><g id="Layer_1-2" data-name="Layer 1"><path class="cls-1" d="M50.69,56.29l3.74,1.26,7,2.36,69.2,23.37,11.51-15.56c-15.84-5.35-22.39-27.49-41.7-43.95h0c-8.36-7.55-19.8-14-32.64-18.32C53.45.61,38.89-1.11,26.82.71,13.28,2.74,4.06,8.86,1,18a16.33,16.33,0,0,0,.7,12.74c5.41,10.93,22.93,16.84,45.21,24.3Zm.22-13c-17.15-5.79-34.87-11.71-38-18A3.89,3.89,0,0,1,12.83,22c1.52-4.49,7.27-7.75,15.89-9,10.16-1.5,22.7,0,35.17,4.24s23.37,10.6,30.54,18c6,6.2,8.69,12.31,7.18,16.8a3.89,3.89,0,0,1-2,2.57c-6.34,3.14-24-2.9-41.17-8.69l-3.74-1.26Z"/><path class="cls-2" d="M67.26,108.21h0c13.6-14.37,21.93-15.17,48-6.37l15.39-18.63-79.93-27C32.39,50,13,58.49,7.42,75s4.77,35,23,41.19C44.24,120.85,58.57,117.29,67.26,108.21ZM18.12,78.69c3.58-10.6,16.61-15.85,29-11.69S66.61,83.19,63,93.85s-16.61,15.85-29,11.69S14.54,89.29,18.12,78.69Z"/><path class="cls-3" d="M309.37,143.65l-6.85-10.37c-13.94-11-140.33-54.62-161.65-63.9L127.65,86.72Z"/><path class="cls-4" d="M272.81,149.08c14.38,4.93,28.4,7.44,39.82-2.53C301.28,131.61,137.57,74,137.57,74l-22.27,27.9C134.94,97.65,272.81,149.08,272.81,149.08Z"/><circle class="cls-5" cx="148.13" cy="91.69" r="6.91" transform="translate(13.86 202.7) rotate(-71.34)"/></g></g></svg>