<?xml version="1.0" encoding="utf-8"?>
<!-- Generator: Adobe Illustrator 21.1.0, SVG Export Plug-In . SVG Version: 6.00 Build 0)  -->
<svg version="1.1" id="Layer_1" xmlns="http://www.w3.org/2000/svg" xmlns:xlink="http://www.w3.org/1999/xlink" x="0px" y="0px"
	 viewBox="0 0 458.2 213.3" style="enable-background:new 0 0 458.2 213.3;" xml:space="preserve">
<style type="text/css">
	.st0{fill:#CCCCCC;}
	.st1{fill:url(#SVGID_1_);}
	.st2{fill:#B3B3B3;}
	.st3{fill:#DBDCDD;}
	.st4{fill:#E6E7E8;}
	.st5{opacity:0.12;enable-background:new    ;}
</style>
<title>wrench</title>
<g>
	<g>
		<path class="st0" d="M371.5,201.3c0,0-0.2-0.1-0.1-0.3c-2.2-2.8-3.9-5.6-5.6-8.6c-6.7-13.3-7.4-27.9-2.1-43.4
			c5.3-15.5,14.7-26.9,28.1-33.2c3-1.5,6.3-2.6,9.7-3.4c0,0,0.2,0.1,0.3-0.1c7.4-0.6,14.9,1,23.3,5c26.4,12.3,32.5,32.6,32.7,33.3
			c0.1,0.5,0.1,1.1-0.5,1.4c-0.3,0.3-0.9,0.6-1.5,0.4l-32.8-11.1c-2.5,0.7-16.6,5.8-21.6,20.5s3.1,27.3,4.6,29.4l32.8,11.1
			c0.6,0.2,0.9,0.5,0.9,1.2c0.1,0.3,0.1,0.5,0,0.7s-0.2,0.6-0.5,0.7c-0.6,0.5-17.8,12.8-46.3,6.6C384,209.6,377,206.3,371.5,201.3z"
			/>
		
			<linearGradient id="SVGID_1_" gradientUnits="userSpaceOnUse" x1="-680.03" y1="1071.5093" x2="-680.03" y2="761.1438" gradientTransform="matrix(-0.3211 0.9471 -0.9471 -0.3211 868.8524 1038.3385)">
			<stop  offset="0" style="stop-color:#B3B3B3"/>
			<stop  offset="5.000000e-02" style="stop-color:#D1D1D1"/>
			<stop  offset="0.5146" style="stop-color:#E6E6E6"/>
			<stop  offset="0.95" style="stop-color:#D2D2D2"/>
			<stop  offset="1" style="stop-color:#B3B3B3"/>
		</linearGradient>
		<path class="st1" d="M362.7,178.1c-1.1-8-0.6-17.5,3.1-28.4c3.7-10.9,9-18.7,14.8-24.4c-8.8,3.5-11.5,4.9-32.3-2.2
			c-20.8-7-207.4-70.3-207.4-70.3s-38.5-11-71-32.6c3.9,9.2,4.4,19.5,1,29.5c-3.4,10.1-10.4,18-18.8,22.9
			c38.9,2.6,76.4,17.1,76.4,17.1S315.1,153,336,160.1C356.6,167.1,357.8,170,362.7,178.1z"/>
		<path class="st2" d="M111.7,78.2l212.4,72c6.9,2.3,14.4-1.4,16.7-8.3l0.3-1c2.3-6.9-1.4-14.4-8.3-16.7l-212.4-72
			c-6.9-2.3-14.4,1.4-16.7,8.3l-0.3,1C101.1,68.3,104.6,75.8,111.7,78.2z"/>
		<path class="st3" d="M43.5,77.8c15-1.9,27.2-12.1,32.1-26.4c4.9-14.3,1.1-29.7-9.4-40.5C60.8,5.7,51.6-0.4,38.1,0.5
			C17.4,1.8,5.1,18.7,2.4,26.8s-3.3,29,12.3,42.6C25,78,36.1,78.6,43.5,77.8z M37.8,63.5L30.7,66c-0.3,0.1-0.7,0-0.8-0.3l-4.5-6.5
			l-7.3-1.8c-0.2-0.1-0.5-0.4-0.5-0.6l-0.5-7.1l-5.3-4.9c0.1-0.2-0.1-0.5,0.1-0.9l3.3-7l-2.8-7c-0.1-0.3,0-0.7,0.3-0.8l6.5-4.1
			l1.6-7.3c0.1-0.2,0.4-0.5,0.6-0.5l7.5-0.2l4.7-5.4c0.3-0.1,0.5-0.3,0.7-0.2l7.2,3.3l6.5-2.5c0.3-0.1,0.7,0,0.8,0.3l4.1,6.3l6.9,1
			c0.2,0.1,0.6,0.2,0.5,0.6l0.8,7.7l5.6,4.8c0.1,0.3,0.3,0.5,0.2,0.7l-3.3,7l2.7,7.2c0.1,0.3,0,0.7-0.3,0.8l-6.5,3.9l-2,7.9
			c-0.1,0.2-0.4,0.5-0.6,0.5l-7,0.1l-4.4,5.7C45.4,67,44.9,67,44.7,67L37.8,63.5z"/>
		<path class="st4" d="M43.3,76.4C57.2,74.6,69.6,65.1,74.4,51s0.7-29.2-9.2-39.1c-5-4.6-13.9-10.8-26.9-10
			C16.9,3.2,5.9,21,3.9,27.1s-4,27.2,12,40.9C25.7,76.7,36.5,77.2,43.3,76.4z M28.7,66.5l-4.2-6.1l-6.7-1.6
			c-0.8-0.3-1.5-0.9-1.6-1.9l-0.4-6.7l-4.8-4.5c-0.7-0.7-0.8-1.6-0.5-2.4l3.1-6.4l-2.5-6.5c-0.3-1,0-2,0.9-2.6l6-3.8l1.4-6.9
			c0.1-1.1,1-1.7,1.9-1.6l7-0.1l4.3-4.8c0.7-0.7,1.7-1,2.4-0.5l6.6,3.1l5.9-2.3c1-0.3,2,0,2.4,0.8l3.9,5.8l6.2,1
			c0.9,0.1,1.7,0.8,1.8,2l0.7,7.2l5.2,4.5c0.7,0.7,1,1.7,0.5,2.4l-2.9,6.6l2.5,6.7c0.1,0.5,0.1,0.9,0,1.3c-0.1,0.4-0.5,0.9-0.8,1.1
			l-5.9,3.6l-1.8,7.3c-0.3,0.8-1,1.7-2.1,1.5l-6.3,0.1l-4,5.2c-0.7,0.7-1.7,1-2.5,0.7l-6.6-3.1l-6.6,2.3
			C30.3,67.7,29.3,67.4,28.7,66.5z"/>
		<path class="st3" d="M365,149.5c5.2-15.3,14.3-26.2,27.4-32.3c3.4-1.5,6.5-2.7,9.4-3.3c6.3-0.6,13.7,0.6,22.5,4.7
			c26,12.2,31.9,32.6,31.9,32.6l-33.3-11.3c0,0-17.2,4.5-23.1,21.6s5.2,31.2,5.2,31.2l33.3,11.3c0,0-17.1,12.6-45.1,6.5
			c-9.6-2.1-16.1-5.7-20.7-9.9c-1.7-2.2-3.7-5.1-5.5-8.4C360.6,179,359.8,164.8,365,149.5z"/>
		<path class="st3" d="M26.6,76.1C6,69.1-4.8,46.8,2.1,26.4s29-31.3,49.6-24.3s31.5,29.1,24.5,49.7C69.2,72.3,46.9,83,26.6,76.1z
			 M27.5,73.3c18.9,6.4,39.5-3.7,45.9-22.6S69.7,11.2,50.8,4.8S11.3,8.5,4.9,27.4S8.6,66.9,27.5,73.3z"/>
	</g>
	<path class="st5" d="M66.6,48.3c0.1-0.2,0.1-0.2-0.1-0.5l-2.7-7.2l3.3-7c0.1-0.2,0-0.7-0.2-0.7l-5.6-4.8l-1-7.7
		c-0.1-0.3-0.3-0.5-0.5-0.6l-6.9-1l-4.1-6.3c-0.1-0.3-0.5-0.4-0.8-0.3l-6.5,2.5l-7.2-3.3c-0.2-0.1-0.7,0-0.7,0.2l-4.7,5.4l-7.5,0.2
		c-0.2-0.1-0.5,0.3-0.6,0.5l-1.7,7.5l-6.5,4.1c-0.3,0.1-0.3,0.3-0.3,0.8L2.1,26.4C8.9,6.3,30.8-4.7,51.1,1.9c4.9,1.4,9,3.9,12.2,6.4
		c5.2,4,9,9.1,11.8,15c31.3,19.6,66.1,29.6,66.1,29.6s186.4,63.2,207.4,70.3c17.3,5.9,22,5.9,28.4,3.6c4.3-4.6,9.3-8.3,15.2-11
		c3-1.5,6.3-2.6,9.7-3.4c0,0,0.2,0.1,0.3-0.1c7.4-0.6,14.9,1,23.3,5c26.4,12.3,32.5,32.6,32.7,33.3c0.1,0.5,0.1,1.1-0.5,1.4
		c-0.3,0.3-0.9,0.6-1.5,0.4l-32.8-11.1c-2.5,0.7-16.6,5.8-21.6,20.5L66.6,48.1L66.6,48.3z"/>
</g>
</svg>
